<svg width="692" height="715" viewBox="0 0 692 715" fill="none" xmlns="http://www.w3.org/2000/svg">
<mask id="mask0_208_3831" style="mask-type:luminance" maskUnits="userSpaceOnUse" x="-154" y="0" width="869" height="881">
<path d="M-83.951 671.376C-87.5582 665.643 -91.0793 659.803 -94.504 653.855C-125.476 600.103 -144.252 544.439 -150.833 486.864C-157.425 429.301 -153.603 373.626 -139.378 319.874C-125.154 266.121 -100.537 216.383 -65.5288 170.628C-30.5096 124.884 13.7314 87.0847 67.1943 57.2293C124.146 25.3555 182.977 6.82601 243.686 1.65149C303.955 -3.46934 362.614 3.3155 419.684 22.049C420.736 22.3925 421.767 22.8005 422.722 23.3587C425.524 24.9798 427.628 27.3308 429.013 30.4119C430.677 34.1157 430.709 37.8087 429.12 41.5017L387.08 158.551C386.898 159.045 386.715 159.549 386.479 160.022C384.869 163.361 382.346 165.808 378.889 167.354C375.346 168.943 371.793 169.05 368.261 167.644C367.96 167.526 367.649 167.408 367.338 167.3C329.162 154.16 289.913 148.782 249.601 151.154C209.139 153.548 170.964 165.551 135.064 187.14C102.654 206.743 75.6968 231.799 54.215 262.288C32.7333 292.777 17.8968 325.95 9.72707 361.785C1.53586 397.62 0.0114441 434.497 5.12155 472.436C10.2317 510.375 22.8458 546.769 42.932 581.638C63.0396 616.539 88.5472 645.503 119.487 668.563C150.427 691.623 183.696 708.22 219.306 718.365C254.915 728.521 291.094 731.602 327.842 727.619C364.6 723.636 399.727 711.988 433.243 692.686C467.747 671.891 495.938 644.966 517.817 611.912C539.675 578.857 554.146 542.625 561.21 503.225C561.693 499.232 563.572 496.054 566.868 493.692C570.035 491.416 573.706 490.783 577.893 491.792C578.237 491.878 578.57 491.953 578.913 492.017L701.545 514.433C705.549 514.927 708.727 516.806 711.089 520.102C713.064 522.85 714.03 525.834 714.019 529.055C714.019 530.15 713.848 531.245 713.622 532.319C700.911 592.19 676.778 647.382 641.254 697.882C605.451 748.746 558.398 790.529 500.061 823.208C447.682 853.375 392.899 871.668 335.722 878.12C278.544 884.572 223.192 880.181 169.708 864.969C116.213 849.768 66.5394 824.217 20.688 788.328C-20.0532 756.412 -54.9437 717.42 -83.951 671.376Z" fill="white"/>
</mask>
<g mask="url(#mask0_208_3831)">
<rect x="-154.042" y="-1.05396" width="868.503" height="882.459" fill="white"/>
</g>
<path d="M344.741 509.892C344.676 531.299 344.676 552.802 344.741 574.402C344.837 606.072 345.063 637.538 345.428 668.789C368.82 633.018 396.142 582.239 414.21 517.343C423.861 482.678 428.993 450.74 431.58 423.063C360.103 442.269 258.051 474.154 141.303 527.262C-74.3094 625.342 -218.97 740.727 -215.954 745.59C-212.958 750.421 -66.0001 642.175 173.563 559.512C242.657 535.668 301.97 519.994 344.741 509.892Z" fill="#8E8E93"/>
<path d="M-215.964 745.579C-111.948 649.035 41.2804 528.743 247.982 430.492C379.599 367.925 502.167 328.912 605.238 303.963C572.28 361.774 533.718 423.546 488.629 487.551C440.019 556.57 391.269 617.655 344.73 671.139C359.91 618.106 377.903 562.506 399.31 504.91C409.809 476.665 420.587 449.376 431.559 423.041C340.318 447.518 232.523 484.03 116.472 539.651C-21.372 605.728 -131.948 680.103 -215.964 745.579Z" fill="white"/>
<path d="M-154.977 647.297C-67.7505 582.164 42.0629 510.376 174.84 444.106C303.537 379.875 423.27 336.074 525.268 305.703C460.157 293.336 393.393 281.516 325.019 270.362C250.815 258.263 178.136 247.506 107.099 237.973C186.606 266.444 266.113 294.904 345.631 323.374C283.064 350.986 215.592 384.824 145.382 426.446C23.2758 498.835 -76.2423 576.485 -154.977 647.297Z" fill="white"/>
<path d="M229.259 318.242C187.584 290.941 145.919 263.651 104.244 236.351C185.587 265.004 266.941 293.657 348.284 322.3C179.962 431.018 11.6395 539.747 -156.683 648.466C-94.4918 582.399 -21.1897 512.146 64.3508 441.925C121.024 395.408 176.408 354.388 229.259 318.242Z" fill="#8E8E93"/>
</svg>
