<svg width="94" height="93" viewBox="0 0 94 93" fill="none" xmlns="http://www.w3.org/2000/svg">
<path d="M47.0006 64.1404C53.1996 64.1404 58.2249 59.1152 58.2249 52.9163C58.2249 46.7174 53.1996 41.6921 47.0006 41.6921C40.8016 41.6921 35.7764 46.7174 35.7764 52.9163C35.7764 59.1152 40.8016 64.1404 47.0006 64.1404Z" fill="white"/>
<path d="M80.6812 25.658H70.1657C69.4923 25.6582 68.836 25.4464 68.2898 25.0527C67.7435 24.659 67.3351 24.1034 67.1223 23.4645L66.1089 20.4212C65.6828 19.1441 64.8657 18.0335 63.7732 17.2467C62.6808 16.4599 61.3685 16.0368 60.0222 16.0374H33.9915C32.6454 16.0377 31.3335 16.4616 30.2417 17.2489C29.1498 18.0363 28.3334 19.1472 27.908 20.4244L26.8946 23.4645C26.6818 24.1034 26.2734 24.659 25.7271 25.0527C25.1809 25.4464 24.5246 25.6582 23.8512 25.658H13.3357C11.6347 25.658 10.0033 26.3338 8.80045 27.5366C7.59762 28.7394 6.92188 30.3708 6.92188 32.0718V70.5546C6.92188 72.2556 7.59762 73.887 8.80045 75.0898C10.0033 76.2926 11.6347 76.9684 13.3357 76.9684H80.6812C82.3822 76.9684 84.0136 76.2926 85.2165 75.0898C86.4193 73.887 87.095 72.2556 87.095 70.5546V32.0718C87.095 30.3708 86.4193 28.7394 85.2165 27.5366C84.0136 26.3338 82.3822 25.658 80.6812 25.658ZM47.0085 70.5546C37.2851 70.5546 29.3704 62.6399 29.3704 52.9166C29.3704 43.1933 37.2851 35.2787 47.0085 35.2787C56.7319 35.2787 64.6466 43.1933 64.6466 52.9166C64.6466 62.6399 56.7319 70.5546 47.0085 70.5546ZM66.25 38.4856C65.3995 38.4856 64.5838 38.1477 63.9824 37.5463C63.381 36.9449 63.0431 36.1292 63.0431 35.2787C63.0431 34.4282 63.381 33.6125 63.9824 33.0111C64.5838 32.4097 65.3995 32.0718 66.25 32.0718C67.1006 32.0718 67.9162 32.4097 68.5177 33.0111C69.1191 33.6125 69.4569 34.4282 69.4569 35.2787C69.4569 36.1292 69.1191 36.9449 68.5177 37.5463C67.9162 38.1477 67.1006 38.4856 66.25 38.4856Z" fill="white"/>
<path d="M18.1443 22.4513H11.7304C11.3052 22.4513 10.8973 22.2823 10.5966 21.9816C10.2959 21.6809 10.127 21.2731 10.127 20.8478C10.127 20.4226 10.2959 20.0147 10.5966 19.714C10.8973 19.4133 11.3052 19.2444 11.7304 19.2444H18.1443C18.5695 19.2444 18.9774 19.4133 19.2781 19.714C19.5788 20.0147 19.7477 20.4226 19.7477 20.8478C19.7477 21.2731 19.5788 21.6809 19.2781 21.9816C18.9774 22.2823 18.5695 22.4513 18.1443 22.4513Z" fill="white"/>
</svg>
