<svg width="240" height="241" viewBox="0 0 240 241" fill="none" xmlns="http://www.w3.org/2000/svg">
<path d="M240 184.052H0V184.172H240V184.052Z" fill="#EBEBEB"/>
<path d="M215.952 191.775H200.054V191.895H215.952V191.775Z" fill="#EBEBEB"/>
<path d="M158.986 193.081H154.814V193.201H158.986V193.081Z" fill="#EBEBEB"/>
<path d="M199.574 187.321H190.363V187.441H199.574V187.321Z" fill="#EBEBEB"/>
<path d="M45.9121 188.127H25.1809V188.247H45.9121V188.127Z" fill="#EBEBEB"/>
<path d="M53.2271 188.127H50.1887V188.247H53.2271V188.127Z" fill="#EBEBEB"/>
<path d="M108.072 190.153H63.1057V190.273H108.072V190.153Z" fill="#EBEBEB"/>
<path d="M113.76 162.644H21.0768C20.3507 162.643 19.6548 162.353 19.1419 161.839C18.6289 161.326 18.3408 160.629 18.3408 159.903V29.6167C18.3471 28.8948 18.638 28.2045 19.1503 27.6958C19.6626 27.1872 20.3549 26.9011 21.0768 26.8999H113.76C114.487 26.8999 115.184 27.1887 115.698 27.7027C116.212 28.2167 116.501 28.9138 116.501 29.6407V159.903C116.501 160.63 116.212 161.327 115.698 161.841C115.184 162.355 114.487 162.644 113.76 162.644ZM21.0768 26.9959C20.3826 26.9972 19.7172 27.2739 19.2267 27.7652C18.7363 28.2566 18.4608 28.9225 18.4608 29.6167V159.903C18.4608 160.597 18.7363 161.263 19.2267 161.755C19.7172 162.246 20.3826 162.523 21.0768 162.524H113.76C114.455 162.523 115.121 162.246 115.612 161.755C116.103 161.264 116.38 160.598 116.381 159.903V29.6167C116.38 28.922 116.103 28.2561 115.612 27.7649C115.121 27.2737 114.455 26.9972 113.76 26.9959H21.0768Z" fill="#EBEBEB"/>
<path d="M217.589 162.644H124.901C124.174 162.643 123.478 162.353 122.964 161.84C122.45 161.326 122.161 160.63 122.16 159.903V29.6167C122.167 28.8944 122.459 28.2041 122.972 27.6955C123.486 27.187 124.178 26.9011 124.901 26.8999H217.589C218.31 26.9024 219.001 27.189 219.512 27.6975C220.023 28.2061 220.314 28.8956 220.32 29.6167V159.903C220.32 160.628 220.032 161.324 219.521 161.838C219.009 162.351 218.314 162.641 217.589 162.644ZM124.901 26.9959C124.206 26.9972 123.54 27.2737 123.049 27.7649C122.558 28.2561 122.281 28.922 122.28 29.6167V159.903C122.281 160.598 122.558 161.264 123.049 161.755C123.54 162.246 124.206 162.523 124.901 162.524H217.589C218.283 162.523 218.949 162.246 219.44 161.755C219.932 161.264 220.208 160.598 220.21 159.903V29.6167C220.208 28.922 219.932 28.2561 219.44 27.7649C218.949 27.2737 218.283 26.9972 217.589 26.9959H124.901Z" fill="#EBEBEB"/>
<path d="M177.638 142.633V152.017L181.598 154.897H163.094L169.008 152.708V143.286L177.638 142.633Z" fill="#E0E0E0"/>
<path d="M124.906 154.628V184.191H215.947V154.628H124.906ZM126.394 156.548H199.488V166.21H126.394V156.548Z" fill="#E0E0E0"/>
<path d="M124.906 154.628V184.191H201.475V154.628H124.906ZM126.394 156.548H199.488V166.21H126.394V156.548Z" fill="#EBEBEB"/>
<path d="M126.398 166.206H139.723V156.543H126.398V166.206Z" fill="#E0E0E0"/>
<path d="M180.192 166.206H199.488V161.377H180.192V166.206Z" fill="#E0E0E0"/>
<path d="M166.56 166.206H178.973V163.335H166.56V166.206Z" fill="#E0E0E0"/>
<path d="M149.059 166.21H163.694V160.34H149.059V166.21Z" fill="#E0E0E0"/>
<path d="M184.954 168.308L185.309 169.465H190.056L190.411 168.308H199.488V181.133H175.882V168.308H184.954Z" fill="#E0E0E0"/>
<path d="M160.243 168.308L160.599 169.465H165.346L165.696 168.308H174.773V181.133H151.167V168.308H160.243Z" fill="#E0E0E0"/>
<path d="M135.533 168.308L135.888 169.465H140.63L140.986 168.308H150.062V181.133H126.456V168.308H135.533Z" fill="#E0E0E0"/>
<path d="M138.595 148.239H201.331C202.267 148.239 203.026 147.48 203.026 146.545V109.978C203.026 109.042 202.267 108.284 201.331 108.284H138.595C137.659 108.284 136.901 109.042 136.901 109.978V146.545C136.901 147.48 137.659 148.239 138.595 148.239Z" fill="#E0E0E0"/>
<path d="M137.04 148.239H199.776C200.712 148.239 201.47 147.48 201.47 146.545V109.978C201.47 109.042 200.712 108.284 199.776 108.284H137.04C136.104 108.284 135.346 109.042 135.346 109.978V146.545C135.346 147.48 136.104 148.239 137.04 148.239Z" fill="#E6E6E6"/>
<path d="M199.531 146.295V110.228H137.294V146.295H199.531Z" fill="#F0F0F0"/>
<path d="M209.563 40.5942H155.506V100.412H209.563V40.5942Z" fill="#E9E9E9"/>
<path d="M207.322 42.9656H157.882V98.1656H207.322V42.9656Z" fill="#F4F4F4"/>
<path d="M171.854 42.9656L157.882 95.2952V66.9656L164.275 42.9656H171.854Z" fill="white"/>
<path d="M178.099 42.9656L163.363 98.1656H160.584L175.32 42.9656H178.099Z" fill="white"/>
<path d="M207.322 58.0183V86.3527L204.192 98.1655H196.613L207.322 58.0183Z" fill="white"/>
<path d="M183.49 40.5942H181.57V100.412H183.49V40.5942Z" fill="#E9E9E9"/>
<path d="M208.522 52.7334H156.442V54.6534H208.522V52.7334Z" fill="#E9E9E9"/>
<path d="M34.2576 92.0503V106.935H55.3152V92.0503H34.2576Z" fill="#E0E0E0"/>
<path d="M35.2463 93.0248V105.966H54.3263V93.0248H35.2463Z" fill="#EBEBEB"/>
<path d="M41.5632 73.3591V88.2439H62.6208V73.3591H41.5632Z" fill="#E0E0E0"/>
<path d="M42.552 74.3336V87.2744H61.632V74.3336H42.552Z" fill="#EBEBEB"/>
<path d="M72.7151 92.0552H59.3135V111.015H72.7151V92.0552Z" fill="#E0E0E0"/>
<path d="M71.8417 92.948H60.1873V110.127H71.8417V92.948Z" fill="#EBEBEB"/>
<path d="M80.3377 67.1814H65.4529V88.239H80.3377V67.1814Z" fill="#E0E0E0"/>
<path d="M79.3632 68.175H66.4224V87.255H79.3632V68.175Z" fill="#EBEBEB"/>
<path d="M93.7537 103.71V92.0552H77.2657V103.71H93.7537Z" fill="#E0E0E0"/>
<path d="M92.9761 102.946V92.8135H78.0385V102.946H92.9761Z" fill="#EBEBEB"/>
<path d="M30.72 125.545H82.7616C83.8861 125.546 84.9642 125.994 85.7589 126.789C86.5536 127.585 87 128.663 87 129.788L92.76 166.489H32.2224L26.4624 129.788C26.4618 129.229 26.5716 128.676 26.7855 128.16C26.9994 127.644 27.3132 127.175 27.7089 126.781C28.1046 126.387 28.5743 126.074 29.091 125.862C29.6078 125.65 30.1614 125.542 30.72 125.545Z" fill="#EBEBEB"/>
<path d="M92.6063 139.738L92.5439 139.551H112.704V184.191H87.7439V144.903C87.7251 143.579 88.222 142.3 89.1294 141.336C90.0369 140.372 91.2838 139.799 92.6063 139.738Z" fill="#E0E0E0"/>
<path d="M112.915 139.729C114.286 139.731 115.599 140.278 116.568 141.248C117.536 142.218 118.08 143.532 118.08 144.903V184.191H107.741V144.903C107.741 143.531 108.286 142.215 109.256 141.244C110.227 140.274 111.543 139.729 112.915 139.729Z" fill="#F0F0F0"/>
<path d="M34.5265 139.738L34.4641 139.551H54.6241V184.191H29.6641V144.903C29.6452 143.579 30.1421 142.3 31.0496 141.336C31.9571 140.372 33.204 139.799 34.5265 139.738Z" fill="#E0E0E0"/>
<path d="M60.0097 184.191H104.366V152.751H60.0097L60.0097 184.191Z" fill="#E0E0E0"/>
<path d="M101.477 160.426H51.5569V149.525H101.477C102.923 149.525 104.31 150.1 105.333 151.123C106.355 152.145 106.93 153.532 106.93 154.978C106.928 156.424 106.353 157.809 105.331 158.831C104.308 159.852 102.922 160.426 101.477 160.426Z" fill="#F5F5F5"/>
<path d="M54.8353 139.729C56.206 139.731 57.5196 140.278 58.4879 141.248C59.4563 142.218 60.0001 143.532 60.0001 144.903V184.191H49.6609V144.903C49.6609 143.531 50.206 142.215 51.1764 141.244C52.1468 140.274 53.463 139.729 54.8353 139.729Z" fill="#F0F0F0"/>
<path d="M40.6992 167.031H32.2224L26.4624 129.788C26.4618 129.229 26.5716 128.676 26.7855 128.16C26.9994 127.644 27.3132 127.175 27.7089 126.781C28.1046 126.387 28.5743 126.074 29.091 125.862C29.6078 125.65 30.1614 125.542 30.72 125.545C31.2772 125.545 31.829 125.654 32.3438 125.868C32.8586 126.081 33.3264 126.394 33.7204 126.788C34.1144 127.182 34.427 127.649 34.6402 128.164C34.8534 128.679 34.9632 129.231 34.9632 129.788L40.6992 167.031Z" fill="#E0E0E0"/>
<path d="M28.4784 36.7303V50.8999C28.4806 51.0833 28.5202 51.2644 28.5948 51.432C28.6693 51.5996 28.7773 51.7503 28.9121 51.8747C29.0469 51.9992 29.2057 52.0948 29.3787 52.1558C29.5517 52.2168 29.7354 52.2419 29.9184 52.2295H77.832C77.832 52.2295 83.3712 49.6471 82.9776 46.0375C82.6656 43.1575 82.3392 40.8103 82.0704 39.0247C81.9123 37.9762 81.3819 37.0197 80.5762 36.3304C79.7705 35.641 78.7435 35.265 77.6832 35.2711H29.9184C29.7277 35.2711 29.5388 35.3089 29.3629 35.3825C29.1869 35.4561 29.0273 35.5638 28.8933 35.6996C28.7593 35.8354 28.6537 35.9964 28.5825 36.1733C28.5112 36.3502 28.4759 36.5396 28.4784 36.7303Z" fill="#F5F5F5"/>
<path d="M28.4783 36.7303V50.8999C28.4805 51.0833 28.5201 51.2644 28.5946 51.432C28.6692 51.5996 28.7772 51.7503 28.912 51.8747C29.0468 51.9992 29.2055 52.0949 29.3786 52.1558C29.5516 52.2168 29.7352 52.2419 29.9183 52.2295H34.1471C34.1471 52.2295 39.6863 49.6471 39.2927 46.0375C38.9759 43.1719 38.6543 40.8199 38.3999 39.0391C38.2418 37.9906 37.7114 37.0341 36.9057 36.3448C36.1 35.6554 35.073 35.2794 34.0127 35.2855H29.9327C29.742 35.2836 29.5528 35.3196 29.3761 35.3914C29.1994 35.4632 29.0387 35.5694 28.9034 35.7038C28.7681 35.8382 28.6608 35.9982 28.5879 36.1744C28.5149 36.3506 28.4776 36.5395 28.4783 36.7303Z" fill="#E6E6E6"/>
<path d="M81.8783 47.1943H40.0223C40.0223 47.1943 38.6399 50.2567 36.2927 51.5143H77.1887C77.1887 51.5143 81.5183 49.5367 81.8783 47.1943Z" fill="#E0E0E0"/>
<path d="M78.9889 50.0791H38.5825L39.1825 51.5239H78.9889V50.0791Z" fill="#EBEBEB"/>
<path d="M80.4337 48.2744H40.0225L40.6273 49.7192H80.4337V48.2744Z" fill="#EBEBEB"/>
<path d="M41.4671 46.532H42.4895V46.1096H41.4671V46.532Z" fill="#E0E0E0"/>
<path d="M42.9073 46.532H43.9297V46.1096H42.9073V46.532Z" fill="#E0E0E0"/>
<path d="M120 205.729C171.4 205.729 213.067 203.296 213.067 200.295C213.067 197.294 171.4 194.862 120 194.862C68.6005 194.862 26.9329 197.294 26.9329 200.295C26.9329 203.296 68.6005 205.729 120 205.729Z" fill="#F5F5F5"/>
<path d="M43.536 165.668C43.6368 166.374 41.7216 166.839 40.176 167.108C40.3056 168.39 41.136 169.686 42.3312 170.895C43.8144 170.06 45.9264 168.975 46.32 169.23C46.7136 169.484 44.5632 170.9 43.2 171.735C44.1686 172.578 45.1933 173.354 46.2672 174.058C46.9296 173.439 47.7072 172.892 48.1872 173.19C48.6672 173.487 48.5376 174.452 48.2976 175.311C49.9104 176.247 51.1152 176.818 51.1152 176.818C51.5842 175.321 51.9451 173.793 52.1952 172.244C52.1136 172.086 52.032 171.922 51.9552 171.764C51.696 171.164 51.9552 170.91 52.3776 170.828C52.4998 169.733 52.5094 168.628 52.4064 167.53C50.5824 167.146 48.3648 166.441 49.1952 165.346C49.6752 164.689 50.6352 164.612 51.5664 164.775C51.4369 164.557 51.2857 164.353 51.1152 164.166C47.7984 160.508 45.4848 164.166 45.4848 164.166C43.5648 162.558 40.8432 162.99 40.2576 165.505C41.3376 165.212 43.4112 164.799 43.536 165.668Z" fill="#004693"/>
<path opacity="0.3" d="M43.536 165.668C43.6368 166.374 41.7216 166.839 40.176 167.108C40.3056 168.39 41.136 169.686 42.3312 170.895C43.8144 170.06 45.9264 168.975 46.32 169.23C46.7136 169.484 44.5632 170.9 43.2 171.735C44.1686 172.578 45.1933 173.354 46.2672 174.058C46.9296 173.439 47.7072 172.892 48.1872 173.19C48.6672 173.487 48.5376 174.452 48.2976 175.311C49.9104 176.247 51.1152 176.818 51.1152 176.818C51.5842 175.321 51.9451 173.793 52.1952 172.244C52.1136 172.086 52.032 171.922 51.9552 171.764C51.696 171.164 51.9552 170.91 52.3776 170.828C52.4998 169.733 52.5094 168.628 52.4064 167.53C50.5824 167.146 48.3648 166.441 49.1952 165.346C49.6752 164.689 50.6352 164.612 51.5664 164.775C51.4369 164.557 51.2857 164.353 51.1152 164.166C47.7984 160.508 45.4848 164.166 45.4848 164.166C43.5648 162.558 40.8432 162.99 40.2576 165.505C41.3376 165.212 43.4112 164.799 43.536 165.668Z" fill="white"/>
<path d="M47.6784 192.543L47.1984 192.505C47.1984 192.255 49.1616 167.77 43.6656 165.462C43.4034 165.34 43.1167 165.281 42.8278 165.288C42.5389 165.296 42.2556 165.37 42 165.505C40.0176 166.537 39.0672 170.823 39.0576 170.866L38.5776 170.766C38.616 170.583 39.5856 166.215 41.7696 165.078C42.0878 164.91 42.4402 164.817 42.7997 164.807C43.1593 164.797 43.5163 164.87 43.8432 165.02C49.6656 167.463 47.76 191.54 47.6784 192.543Z" fill="#004693"/>
<path d="M48.3697 192.02C48.2737 190.921 46.0273 165.015 50.2225 162.26C51.2305 161.598 52.1425 161.458 52.8865 161.842C54.8689 162.846 55.1281 167.079 55.1377 167.262L54.6577 167.29C54.6577 167.247 54.4033 163.148 52.6705 162.274C52.0705 161.972 51.3361 162.102 50.4865 162.658C46.5313 165.255 48.8257 191.708 48.8449 191.977L48.3697 192.02Z" fill="#004693"/>
<path d="M48.9984 194.108C48.9696 193.263 48.2784 173.435 52.0944 171.697C52.4507 171.531 52.839 171.445 53.232 171.445C53.6251 171.445 54.0134 171.531 54.3696 171.697C56.9904 172.849 58.608 177.735 58.6896 177.937L58.2336 178.086C58.2336 178.038 56.6112 173.199 54.1872 172.134C53.8941 171.994 53.5735 171.921 53.2488 171.921C52.9241 171.921 52.6035 171.994 52.3104 172.134C49.3824 173.463 49.2816 188.454 49.4928 194.089L48.9984 194.108Z" fill="#004693"/>
<path d="M48.0289 193.201L47.5489 193.148C48.2257 187.244 49.5121 171.515 47.4097 169.628C47.3078 169.505 47.1724 169.414 47.0199 169.366C46.8674 169.319 46.7043 169.316 46.5505 169.359C45.1201 169.94 44.2801 175.028 44.0689 176.958L43.5889 176.905C43.6705 176.166 44.4385 169.667 46.3729 168.927C46.6077 168.847 46.861 168.838 47.101 168.901C47.341 168.964 47.557 169.097 47.7217 169.283C50.4433 171.707 48.1297 192.323 48.0289 193.201Z" fill="#004693"/>
<path d="M40.0178 182.012H57.2642L55.8242 201.327H41.4578L40.0178 182.012Z" fill="#263238"/>
<path opacity="0.2" d="M45.2544 182.012L45.7344 201.327H55.824L57.264 182.012H45.2544Z" fill="white"/>
<path d="M42.3648 174.923C42.1872 175.403 40.848 175.023 39.7968 174.649C39.4368 175.484 39.5184 176.569 39.8304 177.721C41.0256 177.721 42.7104 177.759 42.8592 178.062C43.008 178.364 41.2032 178.508 40.0848 178.542C40.3931 179.395 40.7604 180.226 41.184 181.028C41.8032 180.87 42.4704 180.803 42.6528 181.143C42.8352 181.484 42.4368 182.041 41.9952 182.487C42.6672 183.62 43.2144 184.407 43.2144 184.407C44.0183 183.641 44.7643 182.817 45.4464 181.94C45.4464 181.815 45.4464 181.686 45.4464 181.556C45.4944 181.076 45.7392 181.023 46.032 181.119C46.4819 180.485 46.8662 179.806 47.1792 179.094C46.1856 178.235 45.0576 177.039 45.9456 176.646C46.4832 176.415 47.0736 176.679 47.6016 177.126C47.5988 176.946 47.5763 176.768 47.5344 176.593C46.7424 173.199 44.064 174.673 44.064 174.673C43.4256 173.022 41.6016 172.364 40.3824 173.713C41.1696 173.886 42.5904 174.342 42.3648 174.923Z" fill="#004693"/>
<path opacity="0.3" d="M42.3648 174.923C42.1872 175.403 40.848 175.023 39.7968 174.649C39.4368 175.484 39.5184 176.569 39.8304 177.721C41.0256 177.721 42.7104 177.759 42.8592 178.062C43.008 178.364 41.2032 178.508 40.0848 178.542C40.3931 179.395 40.7604 180.226 41.184 181.028C41.8032 180.87 42.4704 180.803 42.6528 181.143C42.8352 181.484 42.4368 182.041 41.9952 182.487C42.6672 183.62 43.2144 184.407 43.2144 184.407C44.0183 183.641 44.7643 182.817 45.4464 181.94C45.4464 181.815 45.4464 181.686 45.4464 181.556C45.4944 181.076 45.7392 181.023 46.032 181.119C46.4819 180.485 46.8662 179.806 47.1792 179.094C46.1856 178.235 45.0576 177.039 45.9456 176.646C46.4832 176.415 47.0736 176.679 47.6016 177.126C47.5988 176.946 47.5763 176.768 47.5344 176.593C46.7424 173.199 44.064 174.673 44.064 174.673C43.4256 173.022 41.6016 172.364 40.3824 173.713C41.1696 173.886 42.5904 174.342 42.3648 174.923Z" fill="white"/>
<path d="M55.1713 177.217C54.6348 177.261 54.1059 177.373 53.5969 177.548C53.4581 177.182 53.3787 176.796 53.3617 176.406C53.2513 172.93 55.7617 174.394 57.0577 173.372C57.3574 173.111 57.7078 172.915 58.087 172.796C58.4661 172.677 58.8658 172.638 59.2609 172.681C59.1474 172.873 59.0479 173.074 58.9633 173.281C58.9317 173.356 58.9178 173.438 58.9226 173.52C58.9275 173.602 58.9509 173.681 58.9912 173.753C59.0315 173.824 59.0876 173.885 59.1551 173.931C59.2226 173.978 59.2998 174.008 59.3809 174.02C59.705 174.084 60.0411 174.044 60.3409 173.905C60.4299 173.856 60.5136 173.798 60.5905 173.732C60.8007 174.096 60.9621 174.487 61.0705 174.894C61.2005 175.38 61.2762 175.879 61.2961 176.382C61.0971 176.424 60.9014 176.48 60.7105 176.55C60.6351 176.582 60.5681 176.632 60.5146 176.694C60.4611 176.757 60.4225 176.83 60.4017 176.91C60.3809 176.989 60.3784 177.073 60.3945 177.153C60.4106 177.234 60.4448 177.31 60.4945 177.375C60.7037 177.583 60.9473 177.754 61.2145 177.879C61.1241 178.435 60.9761 178.981 60.7729 179.506L60.5953 179.535C60.4705 179.559 60.3457 179.593 60.2209 179.626L60.0145 179.703C59.929 179.741 59.8544 179.799 59.7974 179.873C59.7403 179.946 59.7028 180.033 59.6881 180.126C59.6802 180.216 59.6949 180.308 59.7309 180.392C59.7669 180.475 59.8231 180.549 59.8945 180.606C59.9762 180.666 60.0629 180.719 60.1537 180.764C59.8219 181.337 59.3473 181.815 58.7761 182.151C58.2717 181.923 57.7812 181.665 57.3073 181.378C57.4129 181.239 57.5185 181.1 57.6145 180.956C57.7275 180.797 57.7803 180.603 57.7633 180.409C57.7323 180.219 57.6313 180.048 57.4801 179.929C57.4032 179.869 57.3152 179.825 57.2213 179.8C57.1274 179.774 57.0294 179.768 56.9329 179.78C56.7431 179.811 56.5718 179.912 56.4529 180.063C56.3377 180.236 56.2081 180.399 56.0833 180.543C55.419 180.053 54.8247 179.475 54.3169 178.825H54.3697C54.6844 178.743 55.0056 178.688 55.3297 178.662C55.493 178.608 55.6325 178.499 55.7241 178.353C55.8157 178.208 55.8537 178.035 55.8315 177.864C55.8093 177.694 55.7284 177.536 55.6026 177.419C55.4769 177.302 55.3141 177.232 55.1425 177.222L55.1713 177.217Z" fill="#004693"/>
<path opacity="0.5" d="M55.1713 177.217C54.6348 177.261 54.1059 177.373 53.5969 177.548C53.4581 177.182 53.3787 176.796 53.3617 176.406C53.2513 172.93 55.7617 174.394 57.0577 173.372C57.3574 173.111 57.7078 172.915 58.087 172.796C58.4661 172.677 58.8658 172.638 59.2609 172.681C59.1474 172.873 59.0479 173.074 58.9633 173.281C58.9317 173.356 58.9178 173.438 58.9226 173.52C58.9275 173.602 58.9509 173.681 58.9912 173.753C59.0315 173.824 59.0876 173.885 59.1551 173.931C59.2226 173.978 59.2998 174.008 59.3809 174.02C59.705 174.084 60.0411 174.044 60.3409 173.905C60.4299 173.856 60.5136 173.798 60.5905 173.732C60.8007 174.096 60.9621 174.487 61.0705 174.894C61.2005 175.38 61.2762 175.879 61.2961 176.382C61.0971 176.424 60.9014 176.48 60.7105 176.55C60.6351 176.582 60.5681 176.632 60.5146 176.694C60.4611 176.757 60.4225 176.83 60.4017 176.91C60.3809 176.989 60.3784 177.073 60.3945 177.153C60.4106 177.234 60.4448 177.31 60.4945 177.375C60.7037 177.583 60.9473 177.754 61.2145 177.879C61.1241 178.435 60.9761 178.981 60.7729 179.506L60.5953 179.535C60.4705 179.559 60.3457 179.593 60.2209 179.626L60.0145 179.703C59.929 179.741 59.8544 179.799 59.7974 179.873C59.7403 179.946 59.7028 180.033 59.6881 180.126C59.6802 180.216 59.6949 180.308 59.7309 180.392C59.7669 180.475 59.8231 180.549 59.8945 180.606C59.9762 180.666 60.0629 180.719 60.1537 180.764C59.8219 181.337 59.3473 181.815 58.7761 182.151C58.2717 181.923 57.7812 181.665 57.3073 181.378C57.4129 181.239 57.5185 181.1 57.6145 180.956C57.7275 180.797 57.7803 180.603 57.7633 180.409C57.7323 180.219 57.6313 180.048 57.4801 179.929C57.4032 179.869 57.3152 179.825 57.2213 179.8C57.1274 179.774 57.0294 179.768 56.9329 179.78C56.7431 179.811 56.5718 179.912 56.4529 180.063C56.3377 180.236 56.2081 180.399 56.0833 180.543C55.419 180.053 54.8247 179.475 54.3169 178.825H54.3697C54.6844 178.743 55.0056 178.688 55.3297 178.662C55.493 178.608 55.6325 178.499 55.7241 178.353C55.8157 178.208 55.8537 178.035 55.8315 177.864C55.8093 177.694 55.7284 177.536 55.6026 177.419C55.4769 177.302 55.3141 177.232 55.1425 177.222L55.1713 177.217Z" fill="white"/>
<path d="M56.16 165.227C56.4568 165.014 56.7794 164.84 57.12 164.708C57.0322 164.456 56.9041 164.219 56.7408 164.007C55.272 162.131 54.6096 164.007 53.4672 164.036C53.1989 164.032 52.9326 164.083 52.6849 164.187C52.4372 164.29 52.2133 164.443 52.0272 164.636C52.1697 164.689 52.3091 164.75 52.4448 164.819C52.4951 164.844 52.5388 164.882 52.5725 164.927C52.6062 164.972 52.6291 165.025 52.6393 165.081C52.6495 165.136 52.6468 165.193 52.6314 165.248C52.6159 165.302 52.5882 165.353 52.5504 165.395C52.408 165.575 52.211 165.705 51.9888 165.764C51.9185 165.769 51.8479 165.769 51.7776 165.764C51.831 166.047 51.918 166.323 52.0368 166.585C52.1824 166.897 52.3628 167.192 52.5744 167.463C52.6968 167.399 52.8235 167.343 52.9536 167.295C53.0076 167.278 53.0648 167.274 53.1208 167.283C53.1767 167.291 53.2299 167.313 53.2763 167.345C53.3227 167.378 53.361 167.42 53.3883 167.47C53.4155 167.52 53.431 167.575 53.4336 167.631C53.4162 167.833 53.3625 168.03 53.2752 168.212C53.5712 168.467 53.8929 168.691 54.2352 168.879L54.3408 168.812L54.5808 168.697C54.627 168.676 54.6752 168.66 54.7248 168.649C54.7856 168.63 54.8502 168.627 54.9125 168.641C54.9747 168.654 55.0324 168.683 55.08 168.726C55.1277 168.77 55.1631 168.826 55.1824 168.889C55.2018 168.951 55.2045 169.017 55.1904 169.081C55.174 169.148 55.1531 169.214 55.128 169.278C55.5529 169.434 56.0111 169.477 56.4576 169.403C56.6239 169.062 56.7682 168.711 56.8896 168.351L56.544 168.265C56.416 168.23 56.304 168.152 56.2272 168.044C56.1552 167.93 56.1311 167.792 56.16 167.66C56.1728 167.595 56.1991 167.533 56.2371 167.479C56.2751 167.424 56.3241 167.378 56.3808 167.343C56.495 167.271 56.6329 167.247 56.7648 167.276C56.8992 167.315 57.0384 167.343 57.1728 167.377C57.3092 166.829 57.3689 166.266 57.3504 165.702H57.3168C57.1117 165.797 56.9156 165.911 56.7312 166.043C56.6754 166.079 56.6131 166.103 56.5478 166.115C56.4825 166.127 56.4155 166.126 56.3507 166.112C56.2858 166.098 56.2244 166.071 56.1698 166.033C56.1153 165.995 56.0687 165.947 56.0328 165.891C55.9969 165.836 55.9723 165.773 55.9604 165.708C55.9486 165.643 55.9497 165.576 55.9637 165.511C55.9778 165.446 56.0045 165.385 56.0422 165.33C56.08 165.275 56.1282 165.229 56.184 165.193L56.16 165.227Z" fill="#004693"/>
<path opacity="0.3" d="M56.16 165.227C56.4568 165.014 56.7794 164.84 57.12 164.708C57.0322 164.456 56.9041 164.219 56.7408 164.007C55.272 162.131 54.6096 164.007 53.4672 164.036C53.1989 164.032 52.9326 164.083 52.6849 164.187C52.4372 164.29 52.2133 164.443 52.0272 164.636C52.1697 164.689 52.3091 164.75 52.4448 164.819C52.4951 164.844 52.5388 164.882 52.5725 164.927C52.6062 164.972 52.6291 165.025 52.6393 165.081C52.6495 165.136 52.6468 165.193 52.6314 165.248C52.6159 165.302 52.5882 165.353 52.5504 165.395C52.408 165.575 52.211 165.705 51.9888 165.764C51.9185 165.769 51.8479 165.769 51.7776 165.764C51.831 166.047 51.918 166.323 52.0368 166.585C52.1824 166.897 52.3628 167.192 52.5744 167.463C52.6968 167.399 52.8235 167.343 52.9536 167.295C53.0076 167.278 53.0648 167.274 53.1208 167.283C53.1767 167.291 53.2299 167.313 53.2763 167.345C53.3227 167.378 53.361 167.42 53.3883 167.47C53.4155 167.52 53.431 167.575 53.4336 167.631C53.4162 167.833 53.3625 168.03 53.2752 168.212C53.5712 168.467 53.8929 168.691 54.2352 168.879L54.3408 168.812L54.5808 168.697C54.627 168.676 54.6752 168.66 54.7248 168.649C54.7856 168.63 54.8502 168.627 54.9125 168.641C54.9747 168.654 55.0324 168.683 55.08 168.726C55.1277 168.77 55.1631 168.826 55.1824 168.889C55.2018 168.951 55.2045 169.017 55.1904 169.081C55.174 169.148 55.1531 169.214 55.128 169.278C55.5529 169.434 56.0111 169.477 56.4576 169.403C56.6239 169.062 56.7682 168.711 56.8896 168.351L56.544 168.265C56.416 168.23 56.304 168.152 56.2272 168.044C56.1552 167.93 56.1311 167.792 56.16 167.66C56.1728 167.595 56.1991 167.533 56.2371 167.479C56.2751 167.424 56.3241 167.378 56.3808 167.343C56.495 167.271 56.6329 167.247 56.7648 167.276C56.8992 167.315 57.0384 167.343 57.1728 167.377C57.3092 166.829 57.3689 166.266 57.3504 165.702H57.3168C57.1117 165.797 56.9156 165.911 56.7312 166.043C56.6754 166.079 56.6131 166.103 56.5478 166.115C56.4825 166.127 56.4155 166.126 56.3507 166.112C56.2858 166.098 56.2244 166.071 56.1698 166.033C56.1153 165.995 56.0687 165.947 56.0328 165.891C55.9969 165.836 55.9723 165.773 55.9604 165.708C55.9486 165.643 55.9497 165.576 55.9637 165.511C55.9778 165.446 56.0045 165.385 56.0422 165.33C56.08 165.275 56.1282 165.229 56.184 165.193L56.16 165.227Z" fill="white"/>
<path d="M42.1153 168.706C42.0145 169.412 43.9297 169.878 45.4753 170.146C45.3457 171.428 44.5153 172.724 43.3153 173.929C41.8369 173.098 39.7201 172.009 39.3313 172.263C38.9425 172.518 41.0737 173.958 42.4273 174.778C41.4597 175.62 40.4348 176.393 39.3601 177.092C38.6977 176.473 37.9201 175.93 37.4401 176.223C36.9601 176.516 37.0897 177.49 37.3297 178.345C35.7169 179.305 34.5121 179.857 34.5121 179.857C34.0431 178.36 33.6822 176.831 33.4321 175.282C33.5137 175.119 33.5953 174.961 33.6673 174.802C33.9313 174.202 33.6673 173.948 33.2497 173.842C33.1251 172.747 33.1155 171.642 33.2209 170.545C35.0449 170.166 37.2625 169.455 36.4321 168.361C35.9521 167.703 35.0161 167.626 34.0609 167.794C34.1906 167.575 34.3417 167.369 34.5121 167.18C37.8289 163.522 40.1425 167.18 40.1425 167.18C42.0625 165.572 44.7793 166.009 45.3649 168.519C44.3137 168.246 42.2401 167.833 42.1153 168.706Z" fill="#004693"/>
<path opacity="0.5" d="M42.1153 168.706C42.0145 169.412 43.9297 169.878 45.4753 170.146C45.3457 171.428 44.5153 172.724 43.3153 173.929C41.8369 173.098 39.7201 172.009 39.3313 172.263C38.9425 172.518 41.0737 173.958 42.4273 174.778C41.4597 175.62 40.4348 176.393 39.3601 177.092C38.6977 176.473 37.9201 175.93 37.4401 176.223C36.9601 176.516 37.0897 177.49 37.3297 178.345C35.7169 179.305 34.5121 179.857 34.5121 179.857C34.0431 178.36 33.6822 176.831 33.4321 175.282C33.5137 175.119 33.5953 174.961 33.6673 174.802C33.9313 174.202 33.6673 173.948 33.2497 173.842C33.1251 172.747 33.1155 171.642 33.2209 170.545C35.0449 170.166 37.2625 169.455 36.4321 168.361C35.9521 167.703 35.0161 167.626 34.0609 167.794C34.1906 167.575 34.3417 167.369 34.5121 167.18C37.8289 163.522 40.1425 167.18 40.1425 167.18C42.0625 165.572 44.7793 166.009 45.3649 168.519C44.3137 168.246 42.2401 167.833 42.1153 168.706Z" fill="white"/>
<path d="M185.016 201.327L194.208 140.247V201.327H196.675V139.868L205.877 201.327H208.522L197.002 124.393L196.675 124.441V121.94H194.208V124.431L193.867 124.393L182.318 201.327H185.016Z" fill="#004693"/>
<path opacity="0.3" d="M185.016 201.327L194.208 140.247V201.327H196.675V139.868L205.877 201.327H208.522L197.002 124.393L196.675 124.441V121.94H194.208V124.431L193.867 124.393L182.318 201.327H185.016Z" fill="white"/>
<path d="M208.09 132.927H182.659L184.718 111.677H206.03L208.09 132.927Z" fill="#004693"/>
<g opacity="0.5">
<path d="M208.09 132.927H182.659L184.718 111.677H206.03L208.09 132.927Z" fill="white"/>
</g>
<path d="M144 105.337H135.638C135.46 105.337 135.289 105.266 135.163 105.14C135.037 105.014 134.966 104.843 134.966 104.665V84.8649C135.058 84.8213 135.137 84.7537 135.193 84.6691C135.249 84.5845 135.282 84.4862 135.287 84.3846C135.292 84.2831 135.269 84.1821 135.221 84.0925C135.173 84.0028 135.101 83.9279 135.014 83.8757C134.927 83.8234 134.827 83.7959 134.726 83.7959C134.624 83.7959 134.524 83.8235 134.437 83.8758C134.35 83.9281 134.278 84.0031 134.23 84.0927C134.182 84.1824 134.16 84.2834 134.165 84.3849C134.169 84.4867 134.202 84.5853 134.258 84.6699C134.315 84.7545 134.394 84.822 134.486 84.8649V104.66C134.486 104.812 134.515 104.962 134.573 105.102C134.63 105.242 134.715 105.369 134.822 105.476C134.929 105.583 135.057 105.668 135.197 105.726C135.337 105.783 135.487 105.813 135.638 105.812H144C144.178 105.812 144.349 105.883 144.475 106.009C144.601 106.135 144.672 106.306 144.672 106.484V117.817H145.152V106.489C145.152 106.338 145.122 106.188 145.064 106.048C145.006 105.908 144.921 105.781 144.815 105.674C144.708 105.567 144.581 105.482 144.441 105.425C144.301 105.367 144.151 105.337 144 105.337Z" fill="#004693"/>
<path opacity="0.4" d="M144 105.337H135.638C135.46 105.337 135.289 105.266 135.163 105.14C135.037 105.014 134.966 104.843 134.966 104.665V84.8649C135.058 84.8213 135.137 84.7537 135.193 84.6691C135.249 84.5845 135.282 84.4862 135.287 84.3846C135.292 84.2831 135.269 84.1821 135.221 84.0925C135.173 84.0028 135.101 83.9279 135.014 83.8757C134.927 83.8234 134.827 83.7959 134.726 83.7959C134.624 83.7959 134.524 83.8235 134.437 83.8758C134.35 83.9281 134.278 84.0031 134.23 84.0927C134.182 84.1824 134.16 84.2834 134.165 84.3849C134.169 84.4867 134.202 84.5853 134.258 84.6699C134.315 84.7545 134.394 84.822 134.486 84.8649V104.66C134.486 104.812 134.515 104.962 134.573 105.102C134.63 105.242 134.715 105.369 134.822 105.476C134.929 105.583 135.057 105.668 135.197 105.726C135.337 105.783 135.487 105.813 135.638 105.812H144C144.178 105.812 144.349 105.883 144.475 106.009C144.601 106.135 144.672 106.306 144.672 106.484V117.817H145.152V106.489C145.152 106.338 145.122 106.188 145.064 106.048C145.006 105.908 144.921 105.781 144.815 105.674C144.708 105.567 144.581 105.482 144.441 105.425C144.301 105.367 144.151 105.337 144 105.337Z" fill="white"/>
<path d="M154.003 117.342H135.778C135.064 117.342 134.486 117.92 134.486 118.633V137.876C134.486 138.589 135.064 139.167 135.778 139.167H154.003C154.716 139.167 155.294 138.589 155.294 137.876V118.633C155.294 117.92 154.716 117.342 154.003 117.342Z" fill="#004693"/>
<path opacity="0.4" d="M154.003 117.342H135.778C135.064 117.342 134.486 117.92 134.486 118.633V137.876C134.486 138.589 135.064 139.167 135.778 139.167H154.003C154.716 139.167 155.294 138.589 155.294 137.876V118.633C155.294 117.92 154.716 117.342 154.003 117.342Z" fill="white"/>
<path opacity="0.2" d="M146.29 129.894H143.491V132.692H146.29V129.894Z" fill="white"/>
<path opacity="0.2" d="M149.328 120.779H146.53V123.577H149.328V120.779Z" fill="white"/>
<path opacity="0.2" d="M143.251 132.932H140.453V135.731H143.251V132.932Z" fill="white"/>
<path opacity="0.2" d="M149.328 123.817H146.53V126.615H149.328V123.817Z" fill="white"/>
<path opacity="0.2" d="M149.328 126.855H146.53V129.654H149.328V126.855Z" fill="white"/>
<path opacity="0.2" d="M146.29 123.817H143.491V126.615H146.29V123.817Z" fill="white"/>
<path opacity="0.2" d="M146.29 117.582H143.491V120.539H146.29V117.582Z" fill="white"/>
<path opacity="0.2" d="M143.251 129.894H140.453V132.692H143.251V129.894Z" fill="white"/>
<path opacity="0.2" d="M146.29 120.779H143.491V123.577H146.29V120.779Z" fill="white"/>
<path opacity="0.2" d="M146.29 132.932H143.491V135.731H146.29V132.932Z" fill="white"/>
<path opacity="0.2" d="M149.328 132.932H146.53V135.731H149.328V132.932Z" fill="white"/>
<path opacity="0.2" d="M146.29 126.855H143.491V129.654H146.29V126.855Z" fill="white"/>
<path opacity="0.2" d="M149.328 117.582H146.53V120.539H149.328V117.582Z" fill="white"/>
<path opacity="0.2" d="M137.174 129.894H134.726V132.692H137.174V129.894Z" fill="white"/>
<path opacity="0.2" d="M137.174 120.779H134.726V123.577H137.174V120.779Z" fill="white"/>
<path opacity="0.2" d="M137.174 126.855H134.726V129.654H137.174V126.855Z" fill="white"/>
<path opacity="0.2" d="M137.174 123.817H134.726V126.615H137.174V123.817Z" fill="white"/>
<path opacity="0.2" d="M149.328 129.894H146.53V132.692H149.328V129.894Z" fill="white"/>
<path opacity="0.2" d="M152.606 120.539H155.04V118.619C155.04 118.34 154.929 118.072 154.732 117.875C154.535 117.678 154.268 117.567 153.989 117.567H152.592L152.606 120.539Z" fill="white"/>
<path opacity="0.2" d="M152.366 120.779H149.568V123.577H152.366V120.779Z" fill="white"/>
<path opacity="0.2" d="M137.174 132.932H134.726V135.731H137.174V132.932Z" fill="white"/>
<path opacity="0.2" d="M152.366 123.817H149.568V126.615H152.366V123.817Z" fill="white"/>
<path opacity="0.2" d="M152.366 126.855H149.568V129.654H152.366V126.855Z" fill="white"/>
<path opacity="0.2" d="M152.366 129.894H149.568V132.692H152.366V129.894Z" fill="white"/>
<path opacity="0.2" d="M152.366 132.932H149.568V135.731H152.366V132.932Z" fill="white"/>
<path opacity="0.2" d="M155.054 132.932H152.606V135.731H155.054V132.932Z" fill="white"/>
<path opacity="0.2" d="M152.366 117.582H149.568V120.539H152.366V117.582Z" fill="white"/>
<path opacity="0.2" d="M146.29 135.975H143.491V138.932H146.29V135.975Z" fill="white"/>
<path opacity="0.2" d="M149.328 135.975H146.53V138.932H149.328V135.975Z" fill="white"/>
<path opacity="0.2" d="M155.054 126.855H152.606V129.654H155.054V126.855Z" fill="white"/>
<path opacity="0.2" d="M152.366 135.975H149.568V138.932H152.366V135.975Z" fill="white"/>
<path opacity="0.2" d="M155.054 129.894H152.606V132.692H155.054V129.894Z" fill="white"/>
<path opacity="0.2" d="M137.17 135.975H134.726V137.895C134.728 138.173 134.839 138.439 135.036 138.636C135.233 138.832 135.5 138.942 135.778 138.942H137.17V135.975Z" fill="white"/>
<path opacity="0.2" d="M152.606 135.975V138.927H154.003C154.281 138.927 154.548 138.817 154.745 138.621C154.942 138.425 155.053 138.159 155.054 137.881V135.961L152.606 135.975Z" fill="white"/>
<path opacity="0.2" d="M137.17 120.539V117.582H135.778C135.499 117.582 135.231 117.693 135.034 117.89C134.837 118.087 134.726 118.354 134.726 118.633V120.553L137.17 120.539Z" fill="white"/>
<path opacity="0.2" d="M155.054 123.817H152.606V126.615H155.054V123.817Z" fill="white"/>
<path opacity="0.2" d="M155.054 120.779H152.606V123.577H155.054V120.779Z" fill="white"/>
<path opacity="0.2" d="M140.208 126.855H137.409V129.654H140.208V126.855Z" fill="white"/>
<path opacity="0.2" d="M140.208 132.932H137.409V135.731H140.208V132.932Z" fill="white"/>
<path opacity="0.2" d="M143.251 117.582H140.453V120.539H143.251V117.582Z" fill="white"/>
<path opacity="0.2" d="M140.208 129.894H137.409V132.692H140.208V129.894Z" fill="white"/>
<path opacity="0.2" d="M143.251 123.817H140.453V126.615H143.251V123.817Z" fill="white"/>
<path opacity="0.2" d="M143.251 120.779H140.453V123.577H143.251V120.779Z" fill="white"/>
<path opacity="0.2" d="M143.251 135.975H140.453V138.932H143.251V135.975Z" fill="white"/>
<path opacity="0.2" d="M140.208 135.975H137.409V138.932H140.208V135.975Z" fill="white"/>
<path opacity="0.2" d="M140.208 117.582H137.409V120.539H140.208V117.582Z" fill="white"/>
<path opacity="0.2" d="M143.251 126.855H140.453V129.654H143.251V126.855Z" fill="white"/>
<path opacity="0.2" d="M140.208 123.817H137.409V126.615H140.208V123.817Z" fill="white"/>
<path opacity="0.2" d="M140.208 120.779H137.409V123.577H140.208V120.779Z" fill="white"/>
<path d="M149.861 125.036C149.819 124.817 149.76 124.602 149.683 124.393C149.383 123.538 148.86 122.779 148.167 122.194C147.475 121.61 146.638 121.221 145.745 121.069C144.852 120.917 143.934 121.006 143.087 121.328C142.24 121.65 141.495 122.193 140.928 122.9C140.659 123.233 140.435 123.599 140.261 123.99C139.964 124.646 139.81 125.358 139.81 126.078V130.436C139.809 130.852 139.86 131.267 139.963 131.67C140.038 131.978 140.146 132.277 140.285 132.563C140.406 132.829 140.551 133.085 140.717 133.326C140.846 133.499 140.976 133.662 141.115 133.806C141.286 133.995 141.47 134.172 141.667 134.334C141.828 134.465 141.996 134.587 142.171 134.699C142.474 134.891 142.796 135.052 143.131 135.179C143.294 135.236 143.458 135.289 143.611 135.332C143.822 135.384 144.035 135.424 144.25 135.452C144.409 135.473 144.569 135.484 144.73 135.486H144.859C145.121 135.486 145.383 135.467 145.642 135.428C145.805 135.399 145.968 135.366 146.122 135.327C146.711 135.173 147.269 134.915 147.768 134.564C147.949 134.439 148.12 134.301 148.282 134.151C148.723 133.748 149.09 133.27 149.366 132.74C149.511 132.467 149.628 132.181 149.717 131.886C149.85 131.455 149.923 131.007 149.933 130.556C149.933 130.556 149.933 130.455 149.933 130.407V126.049C149.943 125.71 149.919 125.37 149.861 125.036ZM148.723 132.98C148.451 133.392 148.114 133.757 147.725 134.06C147.583 134.173 147.434 134.276 147.278 134.367C146.867 134.62 146.418 134.807 145.949 134.919C145.795 134.953 145.637 134.982 145.469 135.001C145.276 135.026 145.082 135.039 144.888 135.039H144.672C144.504 135.039 144.346 135.039 144.192 134.991C143.991 134.959 143.792 134.914 143.597 134.857C143.429 134.809 143.266 134.747 143.117 134.684C142.777 134.539 142.455 134.355 142.157 134.137C141.996 134.016 141.844 133.885 141.701 133.743C141.526 133.578 141.365 133.398 141.221 133.206C141.082 133.022 140.956 132.828 140.846 132.625C140.681 132.321 140.552 131.999 140.462 131.665C140.35 131.263 140.294 130.848 140.294 130.431V126.073C140.296 125.061 140.633 124.078 141.254 123.279C141.668 122.739 142.196 122.297 142.8 121.983C143.45 121.644 144.174 121.468 144.907 121.47C145.952 121.47 146.966 121.826 147.782 122.478C148.599 123.13 149.169 124.041 149.4 125.06C149.474 125.39 149.511 125.726 149.51 126.063V130.46C149.506 130.744 149.477 131.026 149.424 131.305C149.349 131.679 149.228 132.041 149.064 132.385C148.967 132.592 148.853 132.791 148.723 132.98Z" fill="white"/>
<path d="M145.469 128.775C144.955 130.402 144.288 132.543 144.672 135.015C144.696 135.174 144.725 135.332 144.758 135.495C144.598 135.493 144.438 135.482 144.278 135.462C144.245 135.294 144.216 135.13 144.197 134.982C143.832 132.438 144.509 130.273 145.022 128.626C145.57 126.879 145.795 126.025 144.97 125.674C144.84 125.62 144.698 125.602 144.559 125.62C144.42 125.639 144.288 125.694 144.178 125.78C142.867 126.649 141.696 130.398 141.23 133.196C141.192 133.417 141.158 133.628 141.13 133.83C140.99 133.671 140.861 133.508 140.731 133.35C140.765 133.119 140.808 132.87 140.856 132.634C141.384 129.86 142.512 126.332 143.914 125.406C144.09 125.276 144.298 125.194 144.516 125.168C144.733 125.142 144.954 125.172 145.157 125.257C146.4 125.78 145.992 127.1 145.469 128.775Z" fill="white"/>
<path d="M144.633 128.66C144.153 130.201 143.448 132.457 143.587 134.857C143.587 135.025 143.587 135.193 143.625 135.366C143.457 135.322 143.294 135.27 143.145 135.212C143.145 135.034 143.121 134.862 143.117 134.684C143.021 132.284 143.717 130.047 144.197 128.516C144.383 128.011 144.518 127.488 144.6 126.956C144.019 127.474 142.2 131.698 142.166 134.156C142.157 134.355 142.165 134.554 142.19 134.751C142.015 134.639 141.847 134.518 141.686 134.386C141.686 134.19 141.686 133.978 141.71 133.762C141.912 131.218 143.443 127.383 144.278 126.625C144.339 126.552 144.421 126.499 144.512 126.472C144.604 126.446 144.701 126.447 144.792 126.476C145.267 126.644 145.041 127.359 144.633 128.66Z" fill="white"/>
<path d="M145.949 134.9C146.008 135.051 146.075 135.198 146.15 135.342C145.997 135.38 145.834 135.414 145.67 135.443C145.593 135.287 145.526 135.127 145.469 134.963C145.075 133.935 144.869 132.375 145.584 130.244C146.981 126.087 146.736 125.099 145.699 124.551C145.434 124.396 145.135 124.31 144.828 124.3C144.521 124.29 144.217 124.356 143.942 124.494C142.502 125.204 141.259 127.772 140.458 131.631C140.395 131.924 140.338 132.222 140.285 132.529C140.146 132.244 140.038 131.944 139.963 131.636C140.064 131.156 140.174 130.676 140.29 130.196C141.125 126.894 142.32 124.748 143.731 124.052C144.072 123.877 144.452 123.79 144.835 123.8C145.219 123.81 145.593 123.917 145.925 124.11C147.365 124.878 147.398 126.342 146.04 130.379C145.344 132.452 145.56 133.931 145.944 134.867L145.949 134.9Z" fill="white"/>
<path d="M148.32 134.185C148.158 134.334 147.987 134.472 147.806 134.598L147.609 134.535C147.494 134.494 147.384 134.437 147.283 134.367C146.741 134.009 146.36 133.452 146.222 132.817C145.973 131.919 146.381 130.623 146.817 129.255C147.254 127.887 147.705 126.457 147.489 125.415C147.431 125.041 147.287 124.685 147.068 124.376C146.849 124.067 146.561 123.813 146.227 123.635C145.387 123.217 144.269 123.289 143.083 123.841C141.897 124.393 140.88 126.159 140.294 127.527C140.088 128.007 139.925 128.449 139.814 128.771V127.422C139.953 127.095 140.112 126.74 140.294 126.385C140.913 125.171 141.782 123.918 142.877 123.409C144.201 122.79 145.469 122.718 146.443 123.207C146.842 123.418 147.187 123.718 147.451 124.084C147.714 124.451 147.888 124.874 147.96 125.319C148.2 126.471 147.729 127.955 147.273 129.39C146.861 130.691 146.472 131.915 146.683 132.678C146.741 132.971 146.865 133.248 147.047 133.486C147.228 133.724 147.462 133.917 147.729 134.051L147.782 134.075C147.953 134.145 148.135 134.183 148.32 134.185Z" fill="white"/>
<path d="M149.76 131.919C149.671 132.215 149.554 132.501 149.41 132.774C149.199 132.884 148.969 132.954 148.733 132.98H148.598H148.478C148.214 132.959 147.964 132.854 147.763 132.682C147.562 132.51 147.421 132.278 147.36 132.02C147.149 131.305 147.494 129.961 147.84 128.54C148.113 127.641 148.293 126.716 148.378 125.78C148.378 124.302 147.994 122.718 145.157 122.214C143.717 121.955 141.643 122.876 140.429 124.844C140.189 125.228 140.501 123.755 140.237 123.971C140.41 123.577 140.678 123.596 140.942 123.265C141.475 122.919 142.958 121.455 145.238 121.739C148.507 122.142 148.858 124.321 148.858 125.78C148.778 126.758 148.591 127.723 148.301 128.66C147.984 129.894 147.629 131.295 147.821 131.886C147.856 132.048 147.942 132.195 148.066 132.306C148.19 132.416 148.346 132.484 148.512 132.5C148.695 132.512 148.878 132.479 149.045 132.404C149.314 132.293 149.557 132.128 149.76 131.919Z" fill="white"/>
<path d="M149.971 129.308V130.436C149.971 130.484 149.971 130.537 149.971 130.585C149.842 130.868 149.65 131.117 149.41 131.314C149.244 131.435 149.043 131.499 148.838 131.497H148.699C148.626 131.488 148.557 131.461 148.497 131.418C148.438 131.375 148.39 131.318 148.358 131.252C148.142 130.854 148.411 130.047 148.589 129.601C149.213 128.176 149.486 126.622 149.386 125.07C149.386 124.796 149.414 124.628 149.414 124.618C149.42 124.556 149.45 124.498 149.497 124.456C149.544 124.414 149.606 124.391 149.669 124.393C149.745 124.602 149.805 124.817 149.846 125.036C149.846 125.391 149.789 125.747 149.755 126.102C149.688 126.783 149.606 127.465 149.477 128.142C149.443 128.324 149.597 128.252 149.558 128.434C149.441 128.795 149.3 129.148 149.136 129.491C149.021 129.755 148.891 130.014 148.8 130.287C148.742 130.451 148.531 131.219 148.963 131.051C149.125 130.967 149.26 130.839 149.352 130.681C149.395 130.614 149.438 130.546 149.477 130.474C149.617 130.214 149.735 129.943 149.832 129.663C149.89 129.548 149.933 129.428 149.971 129.308Z" fill="white"/>
<path d="M114.581 47.8904V60.1304C114.581 60.3086 114.51 60.4795 114.384 60.6056C114.258 60.7316 114.087 60.8024 113.909 60.8024H101.462C101.42 60.7097 101.352 60.6305 101.268 60.5738C101.183 60.517 101.084 60.4848 100.982 60.4808C100.881 60.4758 100.78 60.4985 100.69 60.5464C100.6 60.5944 100.526 60.6657 100.473 60.7529C100.421 60.8401 100.393 60.9399 100.393 61.0416C100.393 61.1432 100.421 61.243 100.473 61.3302C100.525 61.4175 100.6 61.4889 100.69 61.5368C100.78 61.5848 100.88 61.6076 100.982 61.6027C101.084 61.5977 101.182 61.5654 101.266 61.509C101.351 61.4525 101.419 61.3742 101.462 61.2824H113.909C114.214 61.2811 114.506 61.1593 114.722 60.9436C114.938 60.7278 115.059 60.4355 115.061 60.1304V47.8904H114.581Z" fill="#004693"/>
<path opacity="0.4" d="M114.581 47.8904V60.1304C114.581 60.3086 114.51 60.4795 114.384 60.6056C114.258 60.7316 114.087 60.8024 113.909 60.8024H101.462C101.42 60.7097 101.352 60.6305 101.268 60.5738C101.183 60.517 101.084 60.4848 100.982 60.4808C100.881 60.4758 100.78 60.4985 100.69 60.5464C100.6 60.5944 100.526 60.6657 100.473 60.7529C100.421 60.8401 100.393 60.9399 100.393 61.0416C100.393 61.1432 100.421 61.243 100.473 61.3302C100.525 61.4175 100.6 61.4889 100.69 61.5368C100.78 61.5848 100.88 61.6076 100.982 61.6027C101.084 61.5977 101.182 61.5654 101.266 61.509C101.351 61.4525 101.419 61.3742 101.462 61.2824H113.909C114.214 61.2811 114.506 61.1593 114.722 60.9436C114.938 60.7278 115.059 60.4355 115.061 60.1304V47.8904H114.581Z" fill="white"/>
<path d="M125.731 50.4104V32.1848C125.731 31.4716 125.153 30.8936 124.44 30.8936H105.197C104.484 30.8936 103.906 31.4716 103.906 32.1848V50.4104C103.906 51.1235 104.484 51.7016 105.197 51.7016H124.44C125.153 51.7016 125.731 51.1235 125.731 50.4104Z" fill="#004693"/>
<path opacity="0.4" d="M125.731 50.4104V32.1848C125.731 31.4716 125.153 30.8936 124.44 30.8936H105.197C104.484 30.8936 103.906 31.4716 103.906 32.1848V50.4104C103.906 51.1235 104.484 51.7016 105.197 51.7016H124.44C125.153 51.7016 125.731 51.1235 125.731 50.4104Z" fill="white"/>
<path opacity="0.2" d="M113.179 39.8984H110.381V42.6968H113.179V39.8984Z" fill="white"/>
<path opacity="0.2" d="M122.294 42.9368H119.496V45.7352H122.294V42.9368Z" fill="white"/>
<path opacity="0.2" d="M110.141 36.8552H107.342V39.6536H110.141V36.8552Z" fill="white"/>
<path opacity="0.2" d="M119.256 42.9368H116.458V45.7352H119.256V42.9368Z" fill="white"/>
<path opacity="0.2" d="M116.218 42.9368H113.419V45.7352H116.218V42.9368Z" fill="white"/>
<path opacity="0.2" d="M119.256 39.8984H116.458V42.6968H119.256V39.8984Z" fill="white"/>
<path opacity="0.2" d="M125.496 39.8984H122.539V42.6968H125.496V39.8984Z" fill="white"/>
<path opacity="0.2" d="M113.179 36.8552H110.381V39.6536H113.179V36.8552Z" fill="white"/>
<path opacity="0.2" d="M122.294 39.8984H119.496V42.6968H122.294V39.8984Z" fill="white"/>
<path opacity="0.2" d="M110.141 39.8984H107.342V42.6968H110.141V39.8984Z" fill="white"/>
<path opacity="0.2" d="M110.141 42.9368H107.342V45.7352H110.141V42.9368Z" fill="white"/>
<path opacity="0.2" d="M116.218 39.8984H113.419V42.6968H116.218V39.8984Z" fill="white"/>
<path opacity="0.2" d="M125.496 42.9368H122.539V45.7352H125.496V42.9368Z" fill="white"/>
<path opacity="0.2" d="M113.179 31.1335H110.381V33.5815H113.179V31.1335Z" fill="white"/>
<path opacity="0.2" d="M122.294 31.1335H119.496V33.5815H122.294V31.1335Z" fill="white"/>
<path opacity="0.2" d="M116.218 31.1335H113.419V33.5815H116.218V31.1335Z" fill="white"/>
<path opacity="0.2" d="M119.256 31.1335H116.458V33.5815H119.256V31.1335Z" fill="white"/>
<path opacity="0.2" d="M113.179 42.9368H110.381V45.7352H113.179V42.9368Z" fill="white"/>
<path opacity="0.2" d="M122.539 49.0137V51.4617H124.459C124.737 51.4604 125.003 51.3491 125.199 51.1521C125.395 50.9551 125.505 50.6884 125.505 50.4105V49.0137H122.539Z" fill="white"/>
<path opacity="0.2" d="M122.294 45.9751H119.496V48.7735H122.294V45.9751Z" fill="white"/>
<path opacity="0.2" d="M110.141 31.1335H107.342V33.5815H110.141V31.1335Z" fill="white"/>
<path opacity="0.2" d="M119.256 45.9751H116.458V48.7735H119.256V45.9751Z" fill="white"/>
<path opacity="0.2" d="M116.218 45.9751H113.419V48.7735H116.218V45.9751Z" fill="white"/>
<path opacity="0.2" d="M113.179 45.9751H110.381V48.7735H113.179V45.9751Z" fill="white"/>
<path opacity="0.2" d="M110.141 45.9751H107.342V48.7735H110.141V45.9751Z" fill="white"/>
<path opacity="0.2" d="M110.141 49.0137H107.342V51.4617H110.141V49.0137Z" fill="white"/>
<path opacity="0.2" d="M125.496 45.9751H122.539V48.7735H125.496V45.9751Z" fill="white"/>
<path opacity="0.2" d="M107.102 39.8984H104.146V42.6968H107.102V39.8984Z" fill="white"/>
<path opacity="0.2" d="M107.102 42.9368H104.146V45.7352H107.102V42.9368Z" fill="white"/>
<path opacity="0.2" d="M116.218 49.0137H113.419V51.4617H116.218V49.0137Z" fill="white"/>
<path opacity="0.2" d="M107.102 45.9751H104.146V48.7735H107.102V45.9751Z" fill="white"/>
<path opacity="0.2" d="M113.179 49.0137H110.381V51.4617H113.179V49.0137Z" fill="white"/>
<path opacity="0.2" d="M107.102 33.5767V31.1335H105.182C104.909 31.141 104.65 31.2544 104.459 31.4497C104.268 31.645 104.161 31.9069 104.16 32.1799V33.5767H107.102Z" fill="white"/>
<path opacity="0.2" d="M107.102 49.0137H104.16V50.4201C104.16 50.6989 104.271 50.9662 104.468 51.1634C104.665 51.3605 104.932 51.4713 105.211 51.4713H107.131L107.102 49.0137Z" fill="white"/>
<path opacity="0.2" d="M122.539 33.5767H125.491V32.1799C125.49 31.9028 125.379 31.6374 125.183 31.4414C124.987 31.2455 124.722 31.1348 124.445 31.1335H122.525L122.539 33.5767Z" fill="white"/>
<path opacity="0.2" d="M119.256 49.0137H116.458V51.4617H119.256V49.0137Z" fill="white"/>
<path opacity="0.2" d="M122.294 49.0137H119.496V51.4617H122.294V49.0137Z" fill="white"/>
<path opacity="0.2" d="M116.218 33.8167H113.419V36.615H116.218V33.8167Z" fill="white"/>
<path opacity="0.2" d="M110.141 33.8167H107.342V36.615H110.141V33.8167Z" fill="white"/>
<path opacity="0.2" d="M125.496 36.8552H122.539V39.6536H125.496V36.8552Z" fill="white"/>
<path opacity="0.2" d="M113.179 33.8167H110.381V36.615H113.179V33.8167Z" fill="white"/>
<path opacity="0.2" d="M119.256 36.8552H116.458V39.6536H119.256V36.8552Z" fill="white"/>
<path opacity="0.2" d="M122.294 36.8552H119.496V39.6536H122.294V36.8552Z" fill="white"/>
<path opacity="0.2" d="M107.102 36.8552H104.146V39.6536H107.102V36.8552Z" fill="white"/>
<path opacity="0.2" d="M107.102 33.8167H104.146V36.615H107.102V33.8167Z" fill="white"/>
<path opacity="0.2" d="M125.496 33.8167H122.539V36.615H125.496V33.8167Z" fill="white"/>
<path opacity="0.2" d="M116.218 36.8552H113.419V39.6536H116.218V36.8552Z" fill="white"/>
<path opacity="0.2" d="M119.256 33.8167H116.458V36.615H119.256V33.8167Z" fill="white"/>
<path opacity="0.2" d="M122.294 33.8167H119.496V36.615H122.294V33.8167Z" fill="white"/>
<path d="M108.48 41.2089C108.48 41.2089 111.312 44.5689 114.811 44.5689C118.31 44.5689 121.138 41.2089 121.138 41.2089C121.138 41.2089 118.306 37.8489 114.811 37.8489C111.317 37.8489 108.48 41.2089 108.48 41.2089Z" stroke="white" stroke-linecap="round" stroke-linejoin="round"/>
<path d="M117.024 40.7288C117.025 41.1659 116.896 41.5935 116.654 41.9573C116.412 42.3212 116.067 42.6049 115.663 42.7726C115.259 42.9404 114.815 42.9845 114.386 42.8994C113.958 42.8144 113.564 42.604 113.255 42.2949C112.946 41.9858 112.735 41.592 112.65 41.1632C112.565 40.7345 112.609 40.2901 112.777 39.8865C112.945 39.4828 113.228 39.138 113.592 38.8958C113.956 38.6535 114.384 38.5247 114.821 38.5256C115.405 38.5256 115.965 38.7578 116.379 39.1709C116.792 39.5841 117.024 40.1445 117.024 40.7288Z" stroke="white" stroke-miterlimit="10"/>
<path d="M115.065 39.7591C115.064 39.6174 115.106 39.4787 115.184 39.3604C115.262 39.2422 115.373 39.1498 115.504 39.0949C115.634 39.04 115.778 39.0252 115.917 39.0522C116.056 39.0793 116.184 39.147 116.285 39.2468C116.385 39.3467 116.454 39.4741 116.482 39.613C116.51 39.7518 116.496 39.8959 116.442 40.0268C116.388 40.1578 116.296 40.2698 116.178 40.3486C116.061 40.4274 115.922 40.4695 115.781 40.4695C115.592 40.4695 115.411 40.3948 115.277 40.2617C115.143 40.1286 115.067 39.9479 115.065 39.7591Z" stroke="white" stroke-miterlimit="10"/>
<path d="M114.821 37.8439V35.5879" stroke="white" stroke-linecap="round" stroke-linejoin="round"/>
<path d="M116.784 38.0072L117.59 36.1736" stroke="white" stroke-linecap="round" stroke-linejoin="round"/>
<path d="M118.67 38.8424L119.798 37.5032" stroke="white" stroke-linecap="round" stroke-linejoin="round"/>
<path d="M120.182 39.8745L121.272 39.1497" stroke="white" stroke-linecap="round" stroke-linejoin="round"/>
<path d="M112.853 38.0072L112.046 36.1736" stroke="white" stroke-linecap="round" stroke-linejoin="round"/>
<path d="M110.966 38.8424L109.838 37.5032" stroke="white" stroke-linecap="round" stroke-linejoin="round"/>
<path d="M109.454 39.8745L108.365 39.1497" stroke="white" stroke-linecap="round" stroke-linejoin="round"/>
<path d="M82.1953 61.5608C82.0944 61.564 81.9963 61.5947 81.9117 61.6497C81.8271 61.7047 81.7591 61.7819 81.7153 61.8728H68.9521C68.647 61.8741 68.3547 61.9958 68.1389 62.2116C67.9232 62.4274 67.8014 62.7197 67.8001 63.0248V76.124C67.8001 76.3022 67.7293 76.4732 67.6033 76.5992C67.4773 76.7252 67.3063 76.796 67.1281 76.796H62.0017V77.276H67.1281C67.4333 77.2747 67.7255 77.153 67.9413 76.9372C68.1571 76.7214 68.2788 76.4291 68.2801 76.124V63.0248C68.2801 62.8466 68.3509 62.6757 68.4769 62.5496C68.603 62.4236 68.7739 62.3528 68.9521 62.3528H81.6865C81.728 62.445 81.7936 62.5243 81.8764 62.5824C81.9593 62.6404 82.0562 62.675 82.1571 62.6825C82.2579 62.6899 82.3589 62.6701 82.4494 62.6249C82.5399 62.5798 82.6165 62.511 82.6712 62.4259C82.7258 62.3409 82.7565 62.2426 82.7599 62.1415C82.7634 62.0405 82.7395 61.9403 82.6907 61.8517C82.642 61.7631 82.5702 61.6893 82.483 61.6381C82.3958 61.5869 82.2964 61.5602 82.1953 61.5608Z" fill="#004693"/>
<path opacity="0.4" d="M82.1953 61.5608C82.0944 61.564 81.9963 61.5947 81.9117 61.6497C81.8271 61.7047 81.7591 61.7819 81.7153 61.8728H68.9521C68.647 61.8741 68.3547 61.9958 68.1389 62.2116C67.9232 62.4274 67.8014 62.7197 67.8001 63.0248V76.124C67.8001 76.3022 67.7293 76.4732 67.6033 76.5992C67.4773 76.7252 67.3063 76.796 67.1281 76.796H62.0017V77.276H67.1281C67.4333 77.2747 67.7255 77.153 67.9413 76.9372C68.1571 76.7214 68.2788 76.4291 68.2801 76.124V63.0248C68.2801 62.8466 68.3509 62.6757 68.4769 62.5496C68.603 62.4236 68.7739 62.3528 68.9521 62.3528H81.6865C81.728 62.445 81.7936 62.5243 81.8764 62.5824C81.9593 62.6404 82.0562 62.675 82.1571 62.6825C82.2579 62.6899 82.3589 62.6701 82.4494 62.6249C82.5399 62.5798 82.6165 62.511 82.6712 62.4259C82.7258 62.3409 82.7565 62.2426 82.7599 62.1415C82.7634 62.0405 82.7395 61.9403 82.6907 61.8517C82.642 61.7631 82.5702 61.6893 82.483 61.6381C82.3958 61.5869 82.2964 61.5602 82.1953 61.5608Z" fill="white"/>
<path d="M60.7104 66.1208H42.4848C41.7717 66.1208 41.1936 66.6989 41.1936 67.412V86.6553C41.1936 87.3684 41.7717 87.9464 42.4848 87.9464H60.7104C61.4235 87.9464 62.0016 87.3684 62.0016 86.6553V67.412C62.0016 66.6989 61.4235 66.1208 60.7104 66.1208Z" fill="#004693"/>
<path opacity="0.4" d="M60.7104 66.1208H42.4848C41.7717 66.1208 41.1936 66.6989 41.1936 67.412V86.6553C41.1936 87.3684 41.7717 87.9464 42.4848 87.9464H60.7104C61.4235 87.9464 62.0016 87.3684 62.0016 86.6553V67.412C62.0016 66.6989 61.4235 66.1208 60.7104 66.1208Z" fill="white"/>
<path opacity="0.2" d="M52.9969 78.6729H50.1985V81.4713H52.9969V78.6729Z" fill="white"/>
<path opacity="0.2" d="M56.0352 69.5576H53.2368V72.356H56.0352V69.5576Z" fill="white"/>
<path opacity="0.2" d="M49.9537 81.7161H47.1553V84.5145H49.9537V81.7161Z" fill="white"/>
<path opacity="0.2" d="M56.0352 72.5959H53.2368V75.3943H56.0352V72.5959Z" fill="white"/>
<path opacity="0.2" d="M56.0352 75.6345H53.2368V78.4329H56.0352V75.6345Z" fill="white"/>
<path opacity="0.2" d="M52.9969 72.5959H50.1985V75.3943H52.9969V72.5959Z" fill="white"/>
<path opacity="0.2" d="M52.9969 66.3608H50.1985V69.3176H52.9969V66.3608Z" fill="white"/>
<path opacity="0.2" d="M49.9537 78.6729H47.1553V81.4713H49.9537V78.6729Z" fill="white"/>
<path opacity="0.2" d="M52.9969 69.5576H50.1985V72.356H52.9969V69.5576Z" fill="white"/>
<path opacity="0.2" d="M52.9969 81.7161H50.1985V84.5145H52.9969V81.7161Z" fill="white"/>
<path opacity="0.2" d="M56.0352 81.7161H53.2368V84.5145H56.0352V81.7161Z" fill="white"/>
<path opacity="0.2" d="M52.9969 75.6345H50.1985V78.4329H52.9969V75.6345Z" fill="white"/>
<path opacity="0.2" d="M56.0352 66.3608H53.2368V69.3176H56.0352V66.3608Z" fill="white"/>
<path opacity="0.2" d="M43.8816 78.6729H41.4336V81.4713H43.8816V78.6729Z" fill="white"/>
<path opacity="0.2" d="M43.8816 69.5576H41.4336V72.356H43.8816V69.5576Z" fill="white"/>
<path opacity="0.2" d="M43.8816 75.6345H41.4336V78.4329H43.8816V75.6345Z" fill="white"/>
<path opacity="0.2" d="M43.8816 72.5959H41.4336V75.3943H43.8816V72.5959Z" fill="white"/>
<path opacity="0.2" d="M56.0352 78.6729H53.2368V81.4713H56.0352V78.6729Z" fill="white"/>
<path opacity="0.2" d="M59.3137 69.3176H61.7617V67.3976C61.7617 67.1188 61.651 66.8515 61.4538 66.6543C61.2567 66.4572 60.9893 66.3464 60.7105 66.3464H59.3137V69.3176Z" fill="white"/>
<path opacity="0.2" d="M59.0735 69.5576H56.2751V72.356H59.0735V69.5576Z" fill="white"/>
<path opacity="0.2" d="M43.8816 81.7161H41.4336V84.5145H43.8816V81.7161Z" fill="white"/>
<path opacity="0.2" d="M59.0735 72.5959H56.2751V75.3943H59.0735V72.5959Z" fill="white"/>
<path opacity="0.2" d="M59.0735 75.6345H56.2751V78.4329H59.0735V75.6345Z" fill="white"/>
<path opacity="0.2" d="M59.0735 78.6729H56.2751V81.4713H59.0735V78.6729Z" fill="white"/>
<path opacity="0.2" d="M59.0735 81.7161H56.2751V84.5145H59.0735V81.7161Z" fill="white"/>
<path opacity="0.2" d="M61.7617 81.7161H59.3137V84.5145H61.7617V81.7161Z" fill="white"/>
<path opacity="0.2" d="M59.0735 66.3608H56.2751V69.3176H59.0735V66.3608Z" fill="white"/>
<path opacity="0.2" d="M52.9969 84.7544H50.1985V87.7112H52.9969V84.7544Z" fill="white"/>
<path opacity="0.2" d="M56.0352 84.7544H53.2368V87.7112H56.0352V84.7544Z" fill="white"/>
<path opacity="0.2" d="M61.7617 75.6345H59.3137V78.4329H61.7617V75.6345Z" fill="white"/>
<path opacity="0.2" d="M59.0735 84.7544H56.2751V87.7112H59.0735V84.7544Z" fill="white"/>
<path opacity="0.2" d="M61.7617 78.6729H59.3137V81.4713H61.7617V78.6729Z" fill="white"/>
<path opacity="0.2" d="M43.8768 84.7544H41.4336V86.6744C41.4349 86.9515 41.5455 87.217 41.7415 87.4129C41.9374 87.6089 42.2029 87.7195 42.48 87.7208H43.8768V84.7544Z" fill="white"/>
<path opacity="0.2" d="M59.3137 84.7544V87.7064H60.7105C60.9885 87.7064 61.2551 87.5963 61.4521 87.4002C61.6491 87.2041 61.7605 86.938 61.7617 86.66V84.74L59.3137 84.7544Z" fill="white"/>
<path opacity="0.2" d="M43.8768 69.3176V66.3608H42.48C42.202 66.3621 41.9359 66.4734 41.7398 66.6704C41.5437 66.8674 41.4336 67.1341 41.4336 67.412V69.332L43.8768 69.3176Z" fill="white"/>
<path opacity="0.2" d="M61.7617 72.5959H59.3137V75.3943H61.7617V72.5959Z" fill="white"/>
<path opacity="0.2" d="M61.7617 69.5576H59.3137V72.356H61.7617V69.5576Z" fill="white"/>
<path opacity="0.2" d="M46.9151 75.6345H44.1167V78.4329H46.9151V75.6345Z" fill="white"/>
<path opacity="0.2" d="M46.9151 81.7161H44.1167V84.5145H46.9151V81.7161Z" fill="white"/>
<path opacity="0.2" d="M49.9537 66.3608H47.1553V69.3176H49.9537V66.3608Z" fill="white"/>
<path opacity="0.2" d="M46.9151 78.6729H44.1167V81.4713H46.9151V78.6729Z" fill="white"/>
<path opacity="0.2" d="M49.9537 72.5959H47.1553V75.3943H49.9537V72.5959Z" fill="white"/>
<path opacity="0.2" d="M49.9537 69.5576H47.1553V72.356H49.9537V69.5576Z" fill="white"/>
<path opacity="0.2" d="M49.9537 84.7544H47.1553V87.7112H49.9537V84.7544Z" fill="white"/>
<path opacity="0.2" d="M46.9151 84.7544H44.1167V87.7112H46.9151V84.7544Z" fill="white"/>
<path opacity="0.2" d="M46.9151 66.3608H44.1167V69.3176H46.9151V66.3608Z" fill="white"/>
<path opacity="0.2" d="M49.9537 75.6345H47.1553V78.4329H49.9537V75.6345Z" fill="white"/>
<path opacity="0.2" d="M46.9151 72.5959H44.1167V75.3943H46.9151V72.5959Z" fill="white"/>
<path opacity="0.2" d="M46.9151 69.5576H44.1167V72.356H46.9151V69.5576Z" fill="white"/>
<path d="M51.5952 84.2984C50.2482 84.2971 48.9568 83.7618 48.0039 82.8099C47.051 81.8579 46.5145 80.5669 46.512 79.22V74.852C46.512 73.5038 47.0475 72.2109 48.0008 71.2576C48.9541 70.3044 50.247 69.7688 51.5952 69.7688C52.9433 69.7688 54.2362 70.3044 55.1895 71.2576C56.1428 72.2109 56.6784 73.5038 56.6784 74.852V79.22C56.6758 80.5669 56.1393 81.8579 55.1864 82.8099C54.2336 83.7618 52.9421 84.2971 51.5952 84.2984ZM51.5952 70.2536C50.3755 70.2549 49.2062 70.7396 48.3433 71.6016C47.4804 72.4635 46.9945 73.6324 46.992 74.852V79.22C46.992 80.4408 47.4769 81.6117 48.3402 82.475C49.2035 83.3382 50.3743 83.8232 51.5952 83.8232C52.816 83.8232 53.9868 83.3382 54.8501 82.475C55.7134 81.6117 56.1984 80.4408 56.1984 79.22V74.852C56.1958 73.6324 55.7099 72.4635 54.847 71.6016C53.9842 70.7396 52.8148 70.2549 51.5952 70.2536Z" fill="white"/>
<path d="M53.8896 76.4409C54.1866 76.4409 54.4272 76.1142 54.4272 75.7113C54.4272 75.3083 54.1866 74.9817 53.8896 74.9817C53.5927 74.9817 53.3521 75.3083 53.3521 75.7113C53.3521 76.1142 53.5927 76.4409 53.8896 76.4409Z" fill="white"/>
<path d="M49.8384 75.7113C49.8384 76.1097 49.5984 76.4361 49.3008 76.4361C49.0032 76.4361 48.7632 76.1097 48.7632 75.7113C48.7632 75.3129 49.0032 74.9817 49.3008 74.9817C49.5984 74.9817 49.8384 75.3081 49.8384 75.7113Z" fill="white"/>
<path d="M51.6239 76.436L50.6111 79.0328H51.6239V76.436Z" fill="white"/>
<path d="M51.4128 80.8329C50.955 80.857 50.4972 80.785 50.0688 80.6217L50.2752 80.1897C50.2752 80.1897 51.1344 80.5689 52.968 80.1897L53.0688 80.6697C52.5242 80.7824 51.9691 80.8371 51.4128 80.8329Z" fill="white"/>
<path d="M191.03 34.2393H138.734C137.374 34.2393 136.272 35.3417 136.272 36.7017V88.9977C136.272 90.3576 137.374 91.4601 138.734 91.4601H191.03C192.39 91.4601 193.493 90.3576 193.493 88.9977V36.7017C193.493 35.3417 192.39 34.2393 191.03 34.2393Z" fill="#004693"/>
<path opacity="0.5" d="M185.112 69.5095H144.653C143.425 69.5095 142.43 70.5045 142.43 71.7319V79.1335C142.43 80.3609 143.425 81.3559 144.653 81.3559H185.112C186.339 81.3559 187.334 80.3609 187.334 79.1335V71.7319C187.334 70.5045 186.339 69.5095 185.112 69.5095Z" fill="white"/>
<path d="M150.456 75.4377L151.766 76.1481L151.2 77.1321L149.851 76.3401L149.875 77.7801H148.747V76.3113L147.422 77.1033L146.88 76.1481L148.19 75.4377L146.88 74.7177L147.456 73.7289L148.781 74.5257V73.0569H149.909L149.885 74.5257L151.209 73.7289L151.8 74.7177L150.456 75.4377Z" fill="white"/>
<path d="M158.237 75.4377L159.547 76.1481L158.962 77.1321L157.637 76.3401V77.7801H156.509V76.3113L155.189 77.1033L154.608 76.1193L155.918 75.4089L154.608 74.6889L155.189 73.7001L156.509 74.4969V73.0281H157.637V74.4969L158.962 73.7001L159.547 74.6889L158.237 75.4377Z" fill="white"/>
<path d="M166.022 75.4377L167.333 76.1481L166.742 77.1321L165.422 76.3401L165.446 77.7801H164.314V76.3113L162.989 77.1033L162.413 76.1193L163.723 75.4089L162.413 74.6889L162.989 73.7001L164.314 74.4969V73.0281H165.446L165.422 74.4969L166.742 73.7001L167.333 74.6889L166.022 75.4377Z" fill="white"/>
<path d="M173.808 75.4377L175.118 76.1481L174.528 77.1321L173.203 76.3401L173.227 77.7801H172.099V76.3113L170.779 77.1033L170.203 76.1193L171.514 75.4089L170.203 74.6889L170.779 73.7001L172.099 74.4969V73.0281H173.227L173.203 74.4969L174.528 73.7001L175.118 74.6889L173.808 75.4377Z" fill="white"/>
<path d="M181.589 75.4377L182.88 76.1481L182.294 77.1321L180.989 76.3401L181.013 77.7801H179.885V76.3113L178.56 77.1321L177.979 76.1481L179.29 75.4377L177.979 74.7177L178.56 73.7289L179.88 74.5257V73.0569H181.008L180.984 74.5257L182.309 73.7289L182.894 74.7177L181.589 75.4377Z" fill="white"/>
<path opacity="0.5" d="M173.952 61.0173C178.963 56.0067 178.963 47.8829 173.952 42.8724C168.941 37.8618 160.818 37.8618 155.807 42.8724C150.797 47.8829 150.797 56.0067 155.807 61.0173C160.818 66.0279 168.941 66.0279 173.952 61.0173Z" fill="white"/>
<path d="M169.92 51.2263H159.888C159.707 51.2257 159.527 51.2609 159.36 51.3299C159.192 51.3989 159.04 51.5004 158.912 51.6284C158.784 51.7564 158.683 51.9086 158.614 52.076C158.545 52.2434 158.51 52.4228 158.51 52.6039V58.7143C158.51 59.0797 158.655 59.4301 158.914 59.6884C159.172 59.9468 159.522 60.0919 159.888 60.0919H169.92C170.285 60.0919 170.636 59.9468 170.894 59.6884C171.152 59.4301 171.297 59.0797 171.297 58.7143V52.6039C171.298 52.4228 171.263 52.2434 171.194 52.076C171.125 51.9086 171.023 51.7564 170.895 51.6284C170.767 51.5004 170.615 51.3989 170.448 51.3299C170.28 51.2609 170.101 51.2257 169.92 51.2263ZM165.825 58.0279H163.982L164.366 55.5271C164.119 55.4057 163.92 55.2042 163.802 54.9554C163.684 54.7066 163.654 54.4251 163.716 54.1569C163.779 53.8887 163.93 53.6494 164.146 53.4782C164.361 53.3069 164.628 53.2137 164.904 53.2137C165.179 53.2137 165.447 53.3069 165.662 53.4782C165.878 53.6494 166.029 53.8887 166.091 54.1569C166.154 54.4251 166.123 54.7066 166.005 54.9554C165.887 55.2042 165.689 55.4057 165.441 55.5271L165.825 58.0279Z" fill="#004693"/>
<path d="M161.99 50.2473L161.803 49.2873C161.642 48.4834 161.807 47.6484 162.262 46.9661C162.716 46.2837 163.423 45.8099 164.227 45.6489C165.031 45.4879 165.866 45.6528 166.548 46.1074C167.231 46.562 167.705 47.269 167.866 48.0729L168.053 49.0089L169.824 48.6537L169.632 47.6937C169.517 47.0529 169.275 46.4416 168.921 45.8954C168.567 45.3492 168.107 44.8791 167.569 44.5127C167.031 44.1463 166.425 43.8908 165.787 43.7614C165.149 43.6319 164.491 43.631 163.853 43.7587C163.215 43.8863 162.608 44.14 162.069 44.5049C161.53 44.8699 161.069 45.3386 160.713 45.8838C160.357 46.429 160.114 47.0397 159.997 47.6802C159.88 48.3206 159.892 48.9779 160.032 49.6137L160.219 50.5737L161.99 50.2473Z" fill="#004693"/>
<path opacity="0.2" d="M172.032 85.6232H157.728C157.56 85.6232 157.399 85.5565 157.28 85.4377C157.161 85.3188 157.094 85.1577 157.094 84.9896C157.096 84.8224 157.163 84.6625 157.282 84.5447C157.4 84.4269 157.561 84.3608 157.728 84.3608H172.032C172.199 84.3608 172.36 84.4269 172.478 84.5447C172.597 84.6625 172.664 84.8224 172.666 84.9896C172.666 85.1577 172.599 85.3188 172.48 85.4377C172.361 85.5565 172.2 85.6232 172.032 85.6232Z" fill="black"/>
</svg>
