<svg width="182" height="182" viewBox="0 0 182 182" fill="none" xmlns="http://www.w3.org/2000/svg">
<path d="M29.6405 109.087C31.5506 110.237 33.7757 110.752 35.9967 110.559C38.2177 110.367 40.3207 109.476 42.0042 108.014C43.6877 106.553 44.8652 104.595 45.368 102.424C45.8708 100.252 45.673 97.9762 44.803 95.9236C43.933 93.871 42.4355 92.1465 40.5251 90.9973C38.6147 89.8481 36.3895 89.3333 34.1686 89.5267C31.9476 89.72 29.8448 90.6115 28.1617 92.0735C26.4786 93.5354 25.3015 95.4927 24.7993 97.6648C24.2938 99.836 24.4902 102.112 25.3601 104.164C26.23 106.217 27.7287 107.94 29.6405 109.087Z" fill="#EBEBEB"/>
<path d="M31.8572 98.8769C31.8644 99.5127 32.0601 100.132 32.4194 100.657C32.7787 101.181 33.2856 101.587 33.8758 101.824C34.466 102.06 35.1131 102.116 35.7352 101.985C36.3573 101.854 36.9265 101.541 37.3707 101.086C37.8149 100.631 38.1142 100.054 38.2308 99.4293C38.3473 98.8043 38.2758 98.1587 38.0254 97.5743C37.775 96.9898 37.3568 96.4928 36.8238 96.1461C36.2909 95.7993 35.667 95.6185 35.0313 95.6263C34.6093 95.6311 34.1925 95.719 33.8046 95.8849C33.4166 96.0509 33.0652 96.2917 32.7704 96.5936C32.4756 96.8955 32.2432 97.2526 32.0865 97.6444C31.9298 98.0361 31.8519 98.455 31.8572 98.8769Z" fill="white"/>
<path d="M29.6264 107.762V109.087C31.3067 110.097 33.235 110.619 35.1952 110.594C37.1554 110.57 39.0701 110 40.7247 108.949V107.627C40.7324 106.888 40.5923 106.154 40.3126 105.47C40.0329 104.785 39.6192 104.163 39.0958 103.641C38.5725 103.119 37.95 102.706 37.265 102.427C36.5799 102.149 35.8461 102.01 35.1067 102.019C34.3672 102.028 33.637 102.185 32.959 102.48C32.2809 102.775 31.6686 103.202 31.1581 103.737C30.6476 104.272 30.2491 104.904 29.9861 105.595C29.723 106.286 29.6007 107.023 29.6264 107.762Z" fill="white"/>
<path d="M146.998 66.3062C148.249 67.0599 149.707 67.398 151.163 67.2721C152.618 67.1461 153.996 66.5625 155.1 65.605C156.203 64.6475 156.975 63.3652 157.304 61.9421C157.634 60.5189 157.504 59.0279 156.934 57.6829C156.364 56.3379 155.383 55.208 154.131 54.4551C152.879 53.7022 151.421 53.3651 149.965 53.492C148.51 53.6189 147.132 54.2034 146.03 55.1616C144.927 56.1199 144.156 57.4026 143.828 58.826C143.488 60.248 143.612 61.7414 144.183 63.0875C144.753 64.4336 145.74 65.5616 146.998 66.3062Z" fill="#EBEBEB"/>
<path d="M148.45 59.6194C148.455 60.0355 148.584 60.4407 148.819 60.7839C149.054 61.127 149.386 61.3926 149.773 61.5472C150.159 61.7017 150.582 61.7383 150.99 61.6521C151.397 61.566 151.769 61.3611 152.06 61.0634C152.35 60.7656 152.546 60.3883 152.622 59.9793C152.699 59.5702 152.652 59.1477 152.488 58.7652C152.324 58.3828 152.051 58.0575 151.702 57.8305C151.353 57.6035 150.945 57.485 150.529 57.49C150.253 57.4933 149.98 57.5511 149.726 57.6599C149.472 57.7687 149.242 57.9265 149.049 58.1242C148.856 58.322 148.703 58.5558 148.601 58.8123C148.498 59.0689 148.447 59.3431 148.45 59.6194Z" fill="white"/>
<path d="M146.987 65.4398V66.3061C148.089 66.9694 149.354 67.3122 150.64 67.2961C151.926 67.28 153.182 66.9057 154.267 66.2151V65.3524C154.255 64.3871 153.861 63.4658 153.17 62.7914C152.479 62.1169 151.549 61.7445 150.583 61.7561C149.618 61.7677 148.697 62.1623 148.022 62.8531C147.348 63.544 146.975 64.4744 146.987 65.4398Z" fill="white"/>
<path d="M78.2273 48.8305H32.1304V17.2936H78.2273V48.8305ZM32.4944 48.4665H77.8633V17.6576H32.4944V48.4665Z" fill="#EBEBEB"/>
<path d="M35.734 19.3283C35.7332 19.5096 35.6788 19.6866 35.5776 19.8369C35.4764 19.9873 35.3329 20.1043 35.1652 20.1732C34.9975 20.2421 34.8132 20.2597 34.6355 20.2239C34.4578 20.1881 34.2947 20.1004 34.1668 19.972C34.0389 19.8436 33.9519 19.6801 33.9168 19.5023C33.8817 19.3245 33.9001 19.1402 33.9696 18.9728C34.0391 18.8054 34.1567 18.6624 34.3075 18.5617C34.4582 18.4611 34.6354 18.4074 34.8167 18.4074C34.9375 18.4074 35.057 18.4313 35.1686 18.4776C35.2801 18.5239 35.3814 18.5918 35.4666 18.6774C35.5518 18.7629 35.6193 18.8645 35.6652 18.9762C35.7111 19.0879 35.7344 19.2076 35.734 19.3283Z" fill="#A6A6A6"/>
<path d="M39.4796 19.3283C39.4789 19.5096 39.4244 19.6866 39.3232 19.8369C39.222 19.9873 39.0785 20.1043 38.9108 20.1732C38.7431 20.2421 38.5588 20.2597 38.3811 20.2239C38.2034 20.1881 38.0403 20.1004 37.9124 19.972C37.7845 19.8436 37.6975 19.6801 37.6624 19.5023C37.6273 19.3245 37.6457 19.1402 37.7152 18.9728C37.7847 18.8054 37.9023 18.6624 38.0531 18.5617C38.2038 18.4611 38.381 18.4074 38.5623 18.4074C38.6831 18.4074 38.8026 18.4313 38.9142 18.4776C39.0257 18.5239 39.127 18.5918 39.2122 18.6774C39.2974 18.7629 39.3649 18.8645 39.4108 18.9762C39.4567 19.0879 39.4801 19.2076 39.4796 19.3283Z" fill="#EBEBEB"/>
<path d="M43.2252 19.3283C43.2245 19.5096 43.1701 19.6866 43.0688 19.8369C42.9676 19.9873 42.8241 20.1043 42.6564 20.1732C42.4887 20.2421 42.3044 20.2597 42.1267 20.2239C41.949 20.1881 41.7859 20.1004 41.658 19.972C41.5301 19.8436 41.4431 19.6801 41.408 19.5023C41.3729 19.3245 41.3913 19.1402 41.4608 18.9728C41.5303 18.8054 41.6479 18.6624 41.7987 18.5617C41.9494 18.4611 42.1266 18.4074 42.3079 18.4074C42.4287 18.4074 42.5482 18.4313 42.6598 18.4776C42.7713 18.5239 42.8726 18.5918 42.9578 18.6774C43.043 18.7629 43.1105 18.8645 43.1564 18.9762C43.2023 19.0879 43.2257 19.2076 43.2252 19.3283Z" fill="#004693"/>
<path d="M78.0455 20.9409H32.3125V21.3049H78.0455V20.9409Z" fill="#EBEBEB"/>
<path d="M46.2169 55.0296L22.2007 58.3066L24.2789 73.5372L48.2951 70.2602L46.2169 55.0296Z" fill="#EBEBEB"/>
<path d="M46.2281 55.0367C45.3836 56.0959 44.5173 57.1188 43.6801 58.1671C42.8429 59.2154 41.9511 60.22 41.0775 61.2392C40.2039 62.2584 39.2575 63.3577 38.3402 64.4097L38.2565 64.508C37.4484 65.4374 36.6354 66.3632 35.8177 67.2853L35.6975 67.42L35.5483 67.3253L32.4579 65.2942C32.4199 65.2738 32.3834 65.2507 32.3487 65.225C31.167 64.4509 29.9937 63.6768 28.8289 62.9027C27.7223 62.1553 26.6145 61.4006 25.5055 60.6386C24.4135 59.8597 23.2924 59.1062 22.1968 58.3127C23.3361 58.9642 24.4645 59.6631 25.5965 60.3365C26.7286 61.0099 27.857 61.7197 28.9817 62.4259C30.2339 63.2048 31.4861 63.9972 32.7382 64.8028L35.5519 66.6228C36.2799 65.7929 37.0298 64.9557 37.776 64.133C38.7697 63.041 39.7634 61.9272 40.7644 60.8388C41.6599 59.8682 42.5589 58.8975 43.4617 57.9268C44.4081 56.944 45.2889 55.9722 46.2281 55.0367Z" fill="white"/>
<path d="M32.8222 65.1559C32.8148 65.1665 32.8063 65.1763 32.7968 65.1851C32.6876 65.3088 32.5747 65.4362 32.4619 65.5491C31.9304 66.1424 31.3699 66.7139 30.8166 67.2708C30.1323 67.9587 29.4261 68.6249 28.7163 69.2873C28.0065 69.9498 27.2603 70.5905 26.5323 71.2202C25.8043 71.8499 25.0399 72.4687 24.2573 73.0402C24.898 72.3122 25.575 71.5842 26.2593 70.9181C26.9436 70.2519 27.6571 69.564 28.3632 68.9015C29.0694 68.239 29.8192 67.5947 30.5472 66.965C31.1369 66.4627 31.7375 65.964 32.3672 65.4908L32.8004 65.1632L32.8222 65.1559Z" fill="white"/>
<path d="M48.1645 69.786C47.2545 69.422 46.3627 69.0398 45.4854 68.6322C44.6082 68.2245 43.7346 67.7913 42.8683 67.3545C42.002 66.9177 41.1466 66.4518 40.3203 65.9713C39.6323 65.5855 38.948 65.1851 38.2819 64.7592L37.856 64.4862C37.856 64.4862 37.8342 64.4862 37.8232 64.4644H37.8596L38.3656 64.6682C39.0936 64.9594 39.7961 65.2761 40.5023 65.6037C41.3868 66.0114 42.2531 66.4445 43.1158 66.885C43.9785 67.3254 44.8375 67.784 45.6638 68.2645C46.4901 68.745 47.3491 69.2473 48.1645 69.786Z" fill="white"/>
<path d="M122.444 90.5939L116.833 114.29L154.199 123.137L159.809 99.4405L122.444 90.5939Z" fill="#EBEBEB"/>
<path d="M159.796 99.4338C157.947 100.526 156.08 101.538 154.223 102.597C152.367 103.656 150.496 104.65 148.629 105.658C146.687 106.714 144.736 107.755 142.776 108.781L142.597 108.887L137.41 111.602L137.155 111.726L136.988 111.5C135.845 109.918 134.708 108.332 133.577 106.743C133.533 106.689 133.492 106.633 133.453 106.575C132.17 104.78 130.891 102.972 129.617 101.152C128.405 99.4228 127.196 97.6684 125.977 95.9139C124.758 94.1594 123.585 92.3904 122.417 90.5886C123.727 92.2047 124.998 93.8646 126.286 95.5208C127.575 97.177 128.834 98.8514 130.101 100.537C131.506 102.4 132.906 104.286 134.302 106.193C135.347 107.613 136.391 109.035 137.432 110.459C138.997 109.655 140.57 108.84 142.139 108.05C144.235 106.979 146.333 105.921 148.432 104.876C150.31 103.944 152.193 103.022 154.081 102.109C156.021 101.214 157.907 100.289 159.796 99.4338Z" fill="white"/>
<path d="M134.251 106.743C134.233 106.743 134.218 106.765 134.196 106.772C133.963 106.896 133.727 107.016 133.49 107.136C132.365 107.708 131.226 108.228 130.076 108.741C128.671 109.367 127.247 109.95 125.821 110.525C124.394 111.1 122.956 111.617 121.504 112.141C120.051 112.665 118.592 113.138 117.099 113.55C118.468 112.822 119.866 112.177 121.267 111.555C122.668 110.933 124.102 110.35 125.526 109.771C126.949 109.193 128.394 108.661 129.85 108.152C131.004 107.748 132.176 107.354 133.363 107.005C133.636 106.921 133.909 106.845 134.189 106.768L134.251 106.743Z" fill="white"/>
<path d="M154.285 122.348C153.138 121.314 152.046 120.218 150.98 119.112C149.913 118.005 148.872 116.873 147.839 115.734C146.805 114.594 145.807 113.422 144.836 112.232C144.038 111.264 143.256 110.285 142.513 109.276C142.349 109.058 142.193 108.843 142.036 108.628C142.023 108.612 142.011 108.595 142 108.578C142.015 108.594 142.032 108.609 142.051 108.621L142.688 109.2C143.591 110.044 144.457 110.918 145.316 111.803C146.386 112.895 147.42 114.041 148.446 115.188C149.473 116.334 150.478 117.499 151.453 118.689C152.429 119.88 153.386 121.088 154.285 122.348Z" fill="white"/>
<path d="M151.635 14.1813H129.573V28.1735H151.635V14.1813Z" fill="#EBEBEB"/>
<path d="M151.635 14.1959C150.744 15.0477 149.837 15.863 148.938 16.7039C148.039 17.5447 147.118 18.3455 146.215 19.1536C145.313 19.9617 144.308 20.8426 143.354 21.6761L143.271 21.7562L140.723 23.962L140.595 24.064L140.472 23.962L137.924 21.7526L137.836 21.6761C136.878 20.8438 135.923 20.0017 134.971 19.15C134.065 18.3455 133.151 17.5229 132.252 16.7039C131.353 15.8849 130.432 15.0477 129.555 14.1959C130.502 14.9239 131.433 15.692 132.373 16.4418C133.312 17.1916 134.24 17.9633 135.168 18.7423C136.202 19.5965 137.234 20.464 138.266 21.3449C139.037 21.9964 139.809 22.6553 140.581 23.3141C141.349 22.6553 142.12 21.9928 142.892 21.3449C143.923 20.4713 144.956 19.6025 145.99 18.7386C146.917 17.967 147.847 17.2026 148.782 16.4454C149.757 15.6774 150.696 14.9239 151.635 14.1959Z" fill="white"/>
<path d="M138.32 21.6506L138.295 21.6725C138.178 21.7744 138.057 21.8727 137.931 21.9673C137.377 22.4369 136.813 22.8846 136.234 23.3178C135.532 23.8528 134.815 24.3661 134.09 24.8793C133.366 25.3926 132.634 25.873 131.906 26.3535C131.178 26.834 130.41 27.2963 129.631 27.7222C130.301 27.1361 130.996 26.5901 131.699 26.0587C132.401 25.5272 133.122 25.0067 133.839 24.4971C134.556 23.9875 135.295 23.4961 136.045 23.0193C136.638 22.6371 137.239 22.2622 137.865 21.9273L138.295 21.6834L138.32 21.6506Z" fill="white"/>
<path d="M151.58 27.7222C150.801 27.2963 150.048 26.8304 149.305 26.3535C148.563 25.8767 147.831 25.378 147.103 24.8793C146.375 24.3806 145.647 23.8528 144.959 23.3178C144.384 22.8846 143.82 22.4405 143.27 21.971L142.906 21.6725C142.906 21.6725 142.906 21.6725 142.881 21.6506L142.914 21.6688L143.343 21.9127C143.962 22.2767 144.559 22.6407 145.163 23.0047C145.909 23.4816 146.637 23.9802 147.365 24.4826C148.093 24.9849 148.803 25.5054 149.506 26.0441C150.208 26.5828 150.911 27.1361 151.58 27.7222Z" fill="white"/>
<path d="M90.9236 172.583C130.794 172.583 163.116 165.761 163.116 157.346C163.116 148.931 130.794 142.109 90.9236 142.109C51.053 142.109 18.7314 148.931 18.7314 157.346C18.7314 165.761 51.053 172.583 90.9236 172.583Z" fill="#EBEBEB"/>
<path d="M14.5493 135.008L33.663 134.917L52.7766 134.887L91.0002 134.826L129.224 134.884L148.338 134.917L167.451 135.008L148.338 135.095L129.224 135.128L91.0002 135.19L52.7766 135.128L33.663 135.095L14.5493 135.008Z" fill="#263238"/>
<path d="M141.49 112.818C141.49 112.818 135.452 111.45 132.132 108.399C128.812 105.349 126.974 99.8854 126.974 99.8854C129.268 100.326 131.53 100.92 133.745 101.665C134.577 102.522 135.269 103.505 135.794 104.577C135.851 103.888 135.857 103.196 135.812 102.506C136.586 102.841 137.31 103.281 137.963 103.813C140.715 106.197 141.49 112.818 141.49 112.818Z" fill="#004693"/>
<path d="M130.752 102.542C129.926 101.971 129.089 101.421 128.27 100.846C128.259 100.839 128.251 100.829 128.249 100.816C128.246 100.804 128.248 100.791 128.255 100.781C128.262 100.77 128.272 100.763 128.285 100.76C128.297 100.757 128.31 100.759 128.32 100.766C129.875 101.698 131.411 102.692 132.896 103.729C133.413 104.093 133.919 104.457 134.421 104.858C134.388 104.796 134.352 104.737 134.316 104.676C134.137 104.373 133.952 104.075 133.755 103.78C133.375 103.175 132.945 102.603 132.47 102.069C132.47 102.047 132.47 102.018 132.503 102.04C132.972 102.583 133.442 103.132 133.871 103.693C134.075 103.966 134.265 104.25 134.443 104.541C134.538 104.69 134.629 104.843 134.716 104.996C134.745 105.047 134.778 105.098 134.807 105.152C135.586 105.764 136.347 106.405 137.075 107.082C137.522 107.497 137.952 107.93 138.371 108.377C138.138 107.649 137.934 106.921 137.661 106.193C137.661 106.172 137.693 106.161 137.701 106.193C137.966 106.951 138.254 107.708 138.458 108.483C138.92 108.985 139.361 109.502 139.779 110.041L139.776 109.928C139.705 109.644 139.632 109.36 139.557 109.076C139.412 108.53 139.251 107.984 139.066 107.453C138.72 106.34 138.171 105.301 137.446 104.388C137.444 104.384 137.443 104.379 137.444 104.375C137.445 104.37 137.447 104.366 137.45 104.363C137.453 104.36 137.458 104.358 137.462 104.357C137.466 104.356 137.471 104.357 137.475 104.359C138.604 105.774 139.391 107.431 139.776 109.2C139.841 109.46 139.903 109.718 139.961 109.975C139.99 110.11 140.027 110.252 140.052 110.39C140.234 110.638 140.416 110.889 140.584 111.144C141.612 112.718 142.466 114.398 143.132 116.156C143.886 118.13 144.533 120.143 145.068 122.188C145.068 122.228 145.017 122.242 145.006 122.188C143.823 118.657 142.618 115.071 140.598 111.912C140.169 111.246 139.706 110.601 139.219 109.983C138.218 109.918 137.23 109.721 136.281 109.397C135.244 109.049 134.254 108.572 133.336 107.977C132.805 107.631 132.321 107.231 131.829 106.838C131.826 106.837 131.823 106.835 131.821 106.832C131.819 106.83 131.817 106.827 131.816 106.823C131.815 106.82 131.815 106.816 131.815 106.813C131.816 106.81 131.817 106.806 131.82 106.804C131.822 106.801 131.824 106.799 131.828 106.797C131.831 106.796 131.834 106.795 131.838 106.795C131.841 106.795 131.844 106.796 131.847 106.798C131.85 106.8 131.853 106.802 131.855 106.805C132.698 107.485 133.628 108.048 134.621 108.479C135.598 108.926 136.619 109.269 137.668 109.502C138.116 109.6 138.567 109.67 139.018 109.731C138.457 109.038 137.859 108.375 137.228 107.744C137.024 107.54 136.813 107.347 136.605 107.151C135.9 106.657 135.152 106.228 134.37 105.869C133.38 105.393 132.408 104.887 131.429 104.388C130.876 104.108 130.337 103.82 129.769 103.547C129.744 103.547 129.769 103.5 129.791 103.511C130.785 103.991 131.793 104.439 132.794 104.898C133.737 105.331 134.69 105.764 135.597 106.273L135.71 106.339C134.892 105.628 134.049 104.946 133.18 104.293C132.39 103.704 131.575 103.114 130.752 102.542Z" fill="#263238"/>
<path d="M131.095 105.655C131.586 105.869 132.085 106.062 132.573 106.288C133.06 106.514 133.544 106.798 134.029 107.078C134.05 107.078 134.029 107.118 134.007 107.107C133.526 106.878 133.038 106.663 132.551 106.423C132.063 106.182 131.579 105.913 131.095 105.695C131.058 105.684 131.069 105.644 131.095 105.655Z" fill="#263238"/>
<path d="M161.11 82.3842C159.988 83.8216 159.35 85.5777 159.29 87.4001C159.268 87.9425 159.355 88.696 159.417 89.5841C157.909 90.457 156.573 91.5981 155.475 92.9511C156.681 92.2526 158.065 91.9211 159.457 91.9975C159.43 92.6093 159.353 93.218 159.228 93.8175C158.354 93.822 157.489 93.9937 156.68 94.3234C157.474 94.3152 158.261 94.4714 158.991 94.7821C157.899 98.2073 154.714 101.727 145.887 103.22C144.952 99.0187 145.505 94.6233 147.452 90.7853C150.091 85.5619 161.11 82.3842 161.11 82.3842Z" fill="#004693"/>
<path d="M142.819 117.863C142.972 116.407 143.162 114.951 143.391 113.495C143.839 110.584 144.435 107.698 145.174 104.847C145.521 103.509 145.946 102.192 146.448 100.904C146.425 100.67 146.414 100.434 146.415 100.198C146.415 99.9144 146.415 99.6305 146.415 99.3502C146.415 98.7824 146.448 98.2182 146.495 97.654C146.586 96.5367 146.769 95.4288 147.041 94.3416C147.202 93.7118 147.405 93.0931 147.573 92.467C147.573 92.4415 147.62 92.467 147.613 92.467C147.32 93.5523 147.102 94.6567 146.961 95.7721C146.802 96.8712 146.702 97.9782 146.663 99.0881C146.663 99.3939 146.663 99.696 146.663 100.002C146.663 100.129 146.663 100.26 146.663 100.391C147.099 99.3354 147.596 98.3059 148.152 97.3082C149.05 95.729 150.06 94.2169 151.177 92.7836C151.181 92.6163 151.205 92.4501 151.249 92.2886L151.38 91.6989C151.471 91.2949 151.57 90.8945 151.679 90.4941C151.901 89.6933 152.188 88.918 152.44 88.1281C152.44 88.1026 152.487 88.1281 152.48 88.1281C152.247 88.9107 152.09 89.7188 151.912 90.5159L151.65 91.6989C151.606 91.8955 151.566 92.0957 151.526 92.2923V92.3359C151.89 91.8846 152.254 91.4405 152.618 91.0037C154.307 89.0235 156.156 87.1999 158.016 85.3872C158.245 85.1651 158.482 84.9467 158.715 84.7283C158.715 84.7283 158.759 84.7283 158.74 84.7575C156.96 86.6139 155.21 88.4921 153.55 90.4577C153.157 90.9236 152.768 91.3968 152.385 91.8773L152.989 91.4769C153.502 91.1384 154.023 90.8108 154.562 90.5123C155.1 90.2138 155.636 89.919 156.189 89.646C156.742 89.373 157.361 89.1364 157.907 88.8161C157.929 88.8161 157.951 88.8452 157.925 88.8525C157.368 89.1136 156.829 89.4128 156.313 89.7479C155.777 90.0646 155.239 90.3885 154.711 90.7234C154.183 91.0583 153.67 91.375 153.153 91.7099C152.724 91.9901 152.301 92.2959 151.854 92.5543C150.828 93.8688 149.883 95.2449 149.025 96.6748C148.491 97.5731 148.005 98.4989 147.569 99.4485L147.886 99.3102L148.694 98.9462C149.215 98.7132 149.735 98.4912 150.259 98.2619C151.249 97.8323 152.254 97.4356 153.226 96.9624C153.774 96.704 154.304 96.4097 154.813 96.0815C154.835 96.0815 154.857 96.1033 154.835 96.1179C153.015 97.3664 150.991 98.2473 148.985 99.1355L148.115 99.5176C147.875 99.6232 147.638 99.7433 147.387 99.8343C146.794 101.162 146.295 102.531 145.895 103.929C145.102 106.743 144.46 109.598 143.969 112.48C143.442 115.388 143.099 118.3 142.834 121.212C142.801 121.576 142.768 121.94 142.728 122.304C142.728 122.335 142.716 122.365 142.694 122.386C142.672 122.408 142.642 122.421 142.612 122.421C142.581 122.421 142.551 122.408 142.529 122.386C142.507 122.365 142.495 122.335 142.495 122.304C142.513 120.819 142.666 119.334 142.819 117.863Z" fill="#263238"/>
<path d="M148.195 93.4607C148.356 92.5616 148.596 91.6807 148.84 90.8035C148.84 90.778 148.883 90.8035 148.88 90.8035C148.654 91.6662 148.494 92.5471 148.334 93.4243C148.174 94.3015 148.021 95.2152 147.893 96.1143C147.893 96.1143 147.868 96.1143 147.871 96.1143C147.929 95.2243 148.037 94.3383 148.195 93.4607Z" fill="#263238"/>
<path d="M152.003 95.8959C152.617 95.4868 153.259 95.1218 153.925 94.8039C154.249 94.6364 154.572 94.4799 154.9 94.3197C155.228 94.1596 155.584 94.0213 155.919 93.8538C155.941 93.8538 155.963 93.8793 155.919 93.8902C155.599 94.0504 155.29 94.2542 154.973 94.4217C154.656 94.5891 154.321 94.7857 153.994 94.9567C153.346 95.3207 152.712 95.6847 152.032 95.9723C152.024 95.9701 152.017 95.9662 152.011 95.9609C152.005 95.9555 152.001 95.9488 151.998 95.9414C151.995 95.934 151.994 95.926 151.995 95.9181C151.996 95.9102 151.998 95.9026 152.003 95.8959Z" fill="#263238"/>
<path opacity="0.1" d="M141.381 102.357C141.381 102.357 135.79 101.025 133.224 97.2609C130.774 93.6792 129.98 87.5749 129.918 87.0398C130.02 87.5312 131.174 92.8638 134.978 95.3499C137.89 97.2682 140.704 98.8334 141.381 102.357Z" fill="#263238"/>
<path d="M136.223 92.7036C137.216 93.6178 137.93 94.7938 138.283 96.0961C138.283 96.0961 138.283 96.1143 138.283 96.0961C137.872 94.8232 137.162 93.6674 136.212 92.7255C136.212 92.7211 136.212 92.7168 136.214 92.7129C136.216 92.709 136.219 92.7058 136.223 92.7036Z" fill="#263238"/>
<path d="M141.381 102.357C141.381 102.357 135.79 101.025 133.224 97.2609C130.774 93.6791 129.98 87.5748 129.918 87.0398C129.919 87.0276 129.919 87.0155 129.918 87.0034C129.918 87.0034 132.601 90.8108 135.418 91.7827C138.236 92.7546 142.185 96.1288 141.381 102.357Z" fill="#004693"/>
<path d="M130.905 89.1182C131.405 90.1444 131.982 91.1312 132.631 92.0702C133.282 92.9635 134.057 93.7601 134.931 94.4362C135.688 95.0404 136.493 95.5864 137.261 96.1761V96.1506C137.115 95.9359 136.962 95.7284 136.802 95.5246C136.482 95.1169 136.132 94.7311 135.783 94.3488C135.088 93.5954 134.378 92.8564 133.756 92.0411C133.409 91.5869 133.109 91.0991 132.86 90.5851C132.86 90.5632 132.889 90.5487 132.9 90.5851C133.807 92.4742 135.616 93.6827 136.904 95.2807C137.089 95.5069 137.261 95.7426 137.421 95.9868C137.55 96.163 137.657 96.3535 137.741 96.5547C138.45 97.1201 139.09 97.7664 139.649 98.4802C139.6 98.1113 139.524 97.7463 139.423 97.3882C139.293 96.8912 139.094 96.4147 138.833 95.9723C138.83 95.9679 138.829 95.9626 138.83 95.9575C138.831 95.9524 138.834 95.9479 138.839 95.945C138.843 95.9421 138.848 95.941 138.854 95.9421C138.859 95.9431 138.863 95.9461 138.866 95.9504C139.137 96.3922 139.355 96.8637 139.518 97.3555C139.636 97.7482 139.704 98.1542 139.722 98.564C139.996 98.9393 140.247 99.3307 140.475 99.736C140.453 99.6196 140.431 99.4994 140.406 99.372C140.297 98.8151 140.173 98.2618 140.042 97.7122C139.78 96.5926 139.326 95.5272 138.699 94.5636C138.699 94.5418 138.699 94.5163 138.731 94.5381C139.374 95.4888 139.877 96.5272 140.224 97.6212C140.399 98.1672 140.544 98.7132 140.668 99.2883C140.73 99.565 140.784 99.838 140.839 100.115C140.864 100.26 140.897 100.406 140.919 100.551C141.473 101.769 141.905 103.038 142.208 104.341C142.756 106.668 143.155 109.028 143.402 111.406C143.687 113.897 143.815 116.404 143.784 118.912C143.784 119.225 143.762 119.538 143.744 119.851C143.746 119.86 143.746 119.87 143.744 119.88C143.742 119.89 143.738 119.899 143.731 119.907C143.725 119.914 143.718 119.921 143.709 119.925C143.7 119.929 143.69 119.932 143.68 119.932C143.67 119.932 143.66 119.929 143.651 119.925C143.642 119.921 143.635 119.914 143.629 119.907C143.622 119.899 143.618 119.89 143.616 119.88C143.614 119.87 143.614 119.86 143.616 119.851C143.562 118.613 143.529 117.372 143.453 116.134C143.376 114.897 143.274 113.655 143.139 112.421C142.886 109.993 142.497 107.581 141.975 105.196C141.523 103.15 140.934 101.094 139.82 99.3065C139.265 98.4154 138.586 97.6078 137.803 96.9078C137.017 96.2052 136.162 95.5864 135.335 94.9349C134.499 94.2968 133.739 93.5639 133.071 92.7509C132.389 91.847 131.794 90.8805 131.295 89.8644L130.895 89.1072C130.858 89.1182 130.891 89.0927 130.905 89.1182Z" fill="#263238"/>
<path d="M161.889 99.8854C161.889 99.8854 161.976 107.828 157.226 110.121C152.476 112.414 149.946 110.503 146.707 111.271C146.834 111.082 149.138 107.773 152.8 106.86C156.571 105.924 160.746 103.194 161.889 99.8854Z" fill="#004693"/>
<path opacity="0.1" d="M161.889 99.8854C161.889 99.8854 161.976 107.828 157.226 110.121C152.476 112.414 149.946 110.503 146.707 111.271C148.412 110.459 150.235 109.921 152.108 109.677C155.104 109.313 160.826 107.38 161.889 99.8854Z" fill="black"/>
<path d="M146.393 111.413C146.959 110.899 147.595 110.469 148.283 110.136C148.384 110.085 148.49 110.045 148.592 110.001C148.694 109.957 148.694 109.877 148.752 109.819C148.893 109.67 149.043 109.529 149.2 109.397C149.496 109.138 149.815 108.907 150.153 108.705C150.94 108.243 151.802 107.919 152.607 107.489C152.629 107.489 152.651 107.515 152.629 107.526C152.228 107.733 151.846 107.959 151.457 108.185C151.067 108.41 150.696 108.614 150.332 108.836C150.001 109.049 149.686 109.285 149.389 109.542C149.305 109.615 149.225 109.695 149.145 109.775C149.671 109.599 150.207 109.457 150.75 109.349C151.62 109.171 152.501 109.047 153.368 108.862C153.793 108.771 154.213 108.658 154.627 108.523C155.02 108.206 155.413 107.89 155.788 107.548C156.24 107.135 156.651 106.679 157.015 106.186C157.015 106.164 157.066 106.186 157.051 106.208C156.475 106.987 155.823 107.707 155.104 108.356C155.308 108.279 155.512 108.196 155.712 108.105C157.341 107.372 158.74 106.207 159.756 104.738C159.756 104.716 159.807 104.738 159.792 104.759C158.929 106.021 157.813 107.091 156.516 107.901C155.866 108.305 155.171 108.634 154.445 108.88C153.603 109.141 152.745 109.344 151.875 109.488C151.024 109.628 150.183 109.828 149.36 110.088C148.603 110.338 147.89 110.707 147.249 111.18C146.039 112.119 145.065 113.327 144.402 114.707C143.554 116.54 143.025 118.503 142.837 120.513C142.837 120.601 142.695 120.601 142.702 120.513C142.928 117.208 143.82 113.732 146.393 111.413Z" fill="#263238"/>
<path d="M151.904 108.836C152.152 108.465 152.487 108.16 152.88 107.948C153.331 107.714 153.727 107.386 154.041 106.987C154.041 106.969 154.092 106.987 154.077 107.009C153.792 107.374 153.445 107.686 153.051 107.93C152.62 108.152 152.239 108.46 151.933 108.836C151.922 108.862 151.893 108.836 151.904 108.836Z" fill="#263238"/>
<path d="M149.385 117.274L149.167 121.642L148.508 134.986H138.545L137.883 121.642L137.665 117.274H149.385Z" fill="#37474F"/>
<path d="M149.385 117.274L149.167 121.642H137.883L137.665 117.274H149.385Z" fill="#263238"/>
<path d="M150.084 115.45H136.969V119.618H150.084V115.45Z" fill="#37474F"/>
<path d="M120.619 19.8562H61.2248C60.4282 19.8629 59.6409 20.0265 58.9076 20.3377C58.1744 20.6489 57.5097 21.1016 56.9515 21.6699C56.3934 22.2381 55.9527 22.9109 55.6548 23.6496C55.3568 24.3883 55.2074 25.1785 55.2151 25.975V148.239C55.2015 149.847 55.8269 151.395 56.9537 152.542C58.0805 153.689 59.6167 154.342 61.2248 154.358H120.619C122.227 154.342 123.764 153.69 124.891 152.542C126.018 151.395 126.645 149.847 126.632 148.239V25.975C126.646 24.3663 126.02 22.8181 124.892 21.6707C123.764 20.5233 122.227 19.8706 120.619 19.8562ZM122.872 144.457C122.872 147.675 120.462 150.281 117.492 150.281H64.3479C61.3704 150.281 58.9607 147.675 58.9607 144.457V30.6088C58.9607 24.0568 61.3704 23.7328 64.3479 23.7328H74.9949C75.6137 23.7328 76.1196 24.4353 76.1196 25.3053V25.6693C76.1196 27.7113 77.2371 27.715 78.6058 27.715H103.219C104.603 27.715 105.713 27.715 105.713 25.6693V25.3053C105.713 24.4353 106.212 23.7328 106.841 23.7328H117.485C120.455 23.7328 122.865 24.6028 122.865 30.6088L122.872 144.457Z" fill="#263238"/>
<path d="M122.875 30.7069V144.559C122.875 147.777 120.466 150.383 117.496 150.383H64.3516C61.374 150.383 58.9644 147.78 58.9644 144.559V30.7069C58.9644 24.1549 61.374 23.8346 64.3516 23.8346H74.9986C75.6174 23.8346 76.1233 24.5371 76.1233 25.4071V25.7711C76.1233 27.8131 77.2408 27.8204 78.6094 27.8204H103.23C104.614 27.8204 105.724 27.8204 105.724 25.7711V25.4071C105.724 24.5371 106.222 23.8346 106.852 23.8346H117.496C120.484 23.8346 122.875 24.7046 122.875 30.7069Z" fill="white"/>
<path d="M122.876 30.7106V41.0372H58.9683V30.7106C58.9683 24.1586 61.3779 23.8346 64.3555 23.8346H75.0025C75.6213 23.8346 76.1272 24.5371 76.1272 25.4071V25.7711C76.1272 27.8095 77.2447 27.8168 78.6133 27.8168H103.231C104.614 27.8168 105.724 27.8168 105.724 25.7711V25.4071C105.724 24.5371 106.223 23.8346 106.852 23.8346H117.496C120.484 23.8346 122.876 24.7046 122.876 30.7106Z" fill="#004693"/>
<path d="M94.2761 25.1815H87.5639C87.5085 25.181 87.4537 25.1695 87.4028 25.1475C87.3519 25.1255 87.3059 25.0936 87.2676 25.0535C87.2293 25.0135 87.1993 24.9662 87.1796 24.9144C87.1598 24.8626 87.1507 24.8074 87.1526 24.752C87.1526 24.6425 87.1958 24.5375 87.2729 24.4598C87.3499 24.3821 87.4545 24.338 87.5639 24.337H94.2761C94.3309 24.3365 94.3852 24.3469 94.436 24.3675C94.4868 24.3882 94.5329 24.4187 94.5719 24.4572C94.6108 24.4958 94.6417 24.5417 94.6628 24.5923C94.6838 24.6429 94.6947 24.6971 94.6947 24.752C94.6966 24.808 94.6873 24.8638 94.6671 24.9161C94.6469 24.9684 94.6163 25.016 94.5772 25.0561C94.538 25.0963 94.4912 25.1281 94.4394 25.1496C94.3877 25.1712 94.3321 25.182 94.2761 25.1815Z" fill="white"/>
<path d="M73.1643 26.2916C73.1315 26.3243 73.0951 26.3571 73.0623 26.3935C73.0411 26.411 73.0216 26.4305 73.0041 26.4517C72.8739 26.3213 72.7193 26.2178 72.5491 26.1472C72.3789 26.0766 72.1965 26.0403 72.0122 26.0403C71.8279 26.0403 71.6455 26.0766 71.4753 26.1472C71.3051 26.2178 71.1505 26.3213 71.0203 26.4517L70.9657 26.3935L70.8638 26.2916L70.9948 26.1787C71.0861 26.1025 71.1863 26.0377 71.2933 25.9858C71.4243 25.9193 71.564 25.8715 71.7083 25.8438L71.9085 25.8184H72.0723H72.2069C72.3313 25.8328 72.4535 25.8621 72.5709 25.9057C72.6577 25.9349 72.7407 25.974 72.8185 26.0222C72.9023 26.0692 72.9815 26.124 73.0551 26.186L73.1643 26.2843V26.2916Z" fill="white"/>
<path d="M71.3445 26.7757L71.1807 26.6119C71.4004 26.3925 71.6982 26.2693 72.0088 26.2693C72.3193 26.2693 72.6171 26.3925 72.8369 26.6119L72.6731 26.7721C72.5858 26.6845 72.4819 26.6152 72.3675 26.5683C72.2532 26.5215 72.1306 26.4979 72.0069 26.4991C71.8836 26.498 71.7613 26.522 71.6474 26.5696C71.5335 26.6171 71.4305 26.6872 71.3445 26.7757Z" fill="white"/>
<path d="M72.5129 26.9358L72.3528 27.096C72.3078 27.0513 72.2544 27.0161 72.1956 26.9923C72.1369 26.9686 72.074 26.9568 72.0106 26.9576C71.9475 26.9569 71.8849 26.9692 71.8267 26.9936C71.7684 27.018 71.7158 27.0541 71.6721 27.0996L71.5083 26.9358C71.574 26.8693 71.6522 26.8165 71.7384 26.7805C71.8247 26.7445 71.9172 26.726 72.0106 26.726C72.1041 26.726 72.1966 26.7445 72.2828 26.7805C72.369 26.8165 72.4473 26.8693 72.5129 26.9358Z" fill="white"/>
<path d="M72.1598 27.2452C72.1605 27.2749 72.1524 27.3041 72.1364 27.3291C72.1204 27.3541 72.0974 27.3738 72.0702 27.3856C72.043 27.3975 72.0129 27.401 71.9837 27.3956C71.9545 27.3903 71.9276 27.3764 71.9064 27.3557C71.8851 27.3349 71.8705 27.3084 71.8645 27.2793C71.8584 27.2503 71.8612 27.2201 71.8723 27.1926C71.8835 27.1651 71.9026 27.1416 71.9272 27.125C71.9519 27.1085 71.9809 27.0996 72.0105 27.0996C72.03 27.0991 72.0493 27.1025 72.0674 27.1096C72.0854 27.1167 72.1019 27.1274 72.1158 27.1409C72.1297 27.1545 72.1408 27.1707 72.1483 27.1886C72.1559 27.2065 72.1598 27.2258 72.1598 27.2452Z" fill="white"/>
<path d="M63.1358 26.6011C63.135 26.5165 63.1595 26.4337 63.206 26.3631C63.2525 26.2925 63.319 26.2374 63.397 26.2047C63.4749 26.172 63.5609 26.1633 63.6438 26.1796C63.7268 26.1959 63.803 26.2365 63.8628 26.2963C63.9225 26.3561 63.9632 26.4323 63.9795 26.5153C63.9958 26.5982 63.9871 26.6841 63.9544 26.7621C63.9217 26.8401 63.8666 26.9065 63.796 26.9531C63.7254 26.9996 63.6425 27.024 63.558 27.0233C63.446 27.0233 63.3386 26.9788 63.2594 26.8996C63.1802 26.8205 63.1358 26.7131 63.1358 26.6011Z" fill="white"/>
<path d="M64.4717 26.6011C64.4717 26.5176 64.4964 26.4359 64.5428 26.3665C64.5892 26.2971 64.6552 26.2429 64.7323 26.211C64.8095 26.179 64.8944 26.1707 64.9763 26.1869C65.0582 26.2032 65.1334 26.2435 65.1925 26.3025C65.2515 26.3616 65.2918 26.4368 65.308 26.5187C65.3243 26.6006 65.316 26.6855 65.284 26.7627C65.2521 26.8398 65.1979 26.9058 65.1285 26.9522C65.0591 26.9985 64.9774 27.0233 64.8939 27.0233C64.7819 27.0233 64.6745 26.9788 64.5954 26.8996C64.5162 26.8205 64.4717 26.7131 64.4717 26.6011Z" fill="white"/>
<path d="M65.8042 26.6011C65.8035 26.5165 65.828 26.4337 65.8745 26.3631C65.921 26.2925 65.9875 26.2374 66.0654 26.2047C66.1434 26.172 66.2293 26.1633 66.3123 26.1796C66.3952 26.1959 66.4714 26.2365 66.5312 26.2963C66.591 26.3561 66.6316 26.4323 66.648 26.5153C66.6643 26.5982 66.6555 26.6841 66.6228 26.7621C66.5902 26.8401 66.535 26.9065 66.4644 26.9531C66.3938 26.9996 66.311 27.024 66.2265 27.0233C66.1145 27.0233 66.0071 26.9788 65.9279 26.8996C65.8487 26.8205 65.8042 26.7131 65.8042 26.6011Z" fill="white"/>
<path d="M67.1362 26.6011C67.1355 26.5167 67.1599 26.434 67.2062 26.3635C67.2526 26.293 67.3189 26.2378 67.3966 26.205C67.4744 26.1723 67.5601 26.1633 67.643 26.1793C67.7258 26.1953 67.802 26.2356 67.862 26.295C67.9219 26.3544 67.9628 26.4303 67.9795 26.513C67.9963 26.5957 67.988 26.6815 67.9559 26.7596C67.9238 26.8376 67.8692 26.9043 67.7991 26.9513C67.729 26.9983 67.6465 27.0233 67.5621 27.0233C67.4498 27.0233 67.342 26.979 67.2623 26.8999C67.1825 26.8208 67.1372 26.7134 67.1362 26.6011Z" fill="white"/>
<path d="M68.4722 26.6011C68.4715 26.5165 68.4959 26.4337 68.5424 26.3631C68.589 26.2925 68.6554 26.2374 68.7334 26.2047C68.8114 26.172 68.8973 26.1633 68.9802 26.1796C69.0632 26.1959 69.1394 26.2365 69.1992 26.2963C69.259 26.3561 69.2996 26.4323 69.3159 26.5153C69.3322 26.5982 69.3235 26.6841 69.2908 26.7621C69.2581 26.8401 69.203 26.9065 69.1324 26.9531C69.0618 26.9996 68.979 27.024 68.8944 27.0233C68.7824 27.0233 68.675 26.9788 68.5959 26.8996C68.5167 26.8205 68.4722 26.7131 68.4722 26.6011Z" fill="white"/>
<path d="M118.082 27.5256H114.635V25.9276H118.082V27.5256ZM114.806 27.3509H117.9V26.1023H114.806V27.3509Z" fill="white"/>
<path d="M117.143 26.2006H114.918V27.2562H117.143V26.2006Z" fill="white"/>
<path d="M118.388 26.2989H118.082V27.1543H118.388V26.2989Z" fill="white"/>
<path d="M65.0249 37.0879L63.1357 35.3188L65.0249 33.5498L65.3161 33.8628L63.7618 35.3188L65.3161 36.7748L65.0249 37.0879Z" fill="white"/>
<path d="M117.081 37.2153H115.807V36.7639C115.806 36.7458 115.801 36.7282 115.791 36.7129C115.782 36.6975 115.768 36.685 115.752 36.6766C115.703 36.6517 115.656 36.6237 115.61 36.5929C115.594 36.5829 115.575 36.5776 115.556 36.5776C115.536 36.5776 115.518 36.5829 115.501 36.5929L115.119 36.8149L114.482 35.7229L114.868 35.5009C114.883 35.4904 114.895 35.4762 114.904 35.4597C114.912 35.4431 114.916 35.4247 114.915 35.4062C114.915 35.3807 114.915 35.3516 114.915 35.3261C114.915 35.3007 114.915 35.2715 114.915 35.2461C114.916 35.2271 114.912 35.2082 114.904 35.191C114.895 35.1739 114.883 35.1591 114.868 35.1478L114.482 34.9294L115.119 33.8374L115.501 34.0594C115.517 34.0691 115.535 34.0742 115.554 34.0742C115.573 34.0742 115.591 34.0691 115.607 34.0594L115.752 33.9793C115.769 33.9703 115.782 33.9572 115.792 33.9412C115.801 33.9252 115.807 33.907 115.807 33.8883V33.4224H117.081V33.8519C117.081 33.8707 117.086 33.8891 117.095 33.9051C117.105 33.9212 117.119 33.9343 117.135 33.9429C117.184 33.9667 117.232 33.9934 117.277 34.023C117.294 34.0326 117.313 34.0377 117.332 34.0377C117.351 34.0377 117.37 34.0326 117.387 34.023L117.769 33.801L118.406 34.893L118.02 35.115C118.004 35.1243 117.99 35.1383 117.982 35.1551C117.973 35.172 117.97 35.191 117.973 35.2097V35.3698C117.97 35.3885 117.973 35.4075 117.982 35.4244C117.99 35.4412 118.004 35.4552 118.02 35.4645L118.406 35.6865L117.769 36.7785L117.383 36.5565C117.367 36.5468 117.349 36.5417 117.33 36.5417C117.312 36.5417 117.293 36.5468 117.277 36.5565C117.232 36.5873 117.184 36.6153 117.135 36.6402C117.119 36.6486 117.106 36.6611 117.096 36.6765C117.087 36.6918 117.081 36.7094 117.081 36.7275V37.2153ZM116.08 36.9423H116.808V36.7639C116.807 36.6951 116.826 36.6274 116.862 36.5688C116.898 36.5102 116.95 36.463 117.012 36.4327L117.128 36.3672C117.187 36.3296 117.255 36.3095 117.325 36.3095C117.394 36.3095 117.463 36.3296 117.521 36.3672L117.667 36.4509L118.031 35.8212L117.882 35.7375C117.819 35.7018 117.767 35.6481 117.735 35.5833C117.703 35.5184 117.69 35.4454 117.7 35.3735V35.2388C117.695 35.17 117.71 35.1014 117.743 35.0408C117.776 34.9802 117.825 34.9302 117.885 34.8966L118.031 34.8093L117.667 34.1795L117.521 34.2669C117.463 34.3045 117.394 34.3245 117.325 34.3245C117.255 34.3245 117.187 34.3045 117.128 34.2669C117.092 34.2408 117.053 34.2188 117.012 34.2014C116.949 34.1708 116.897 34.1231 116.861 34.0637C116.825 34.0044 116.806 33.936 116.808 33.8665V33.6991H116.08V33.8519C116.081 33.9218 116.062 33.9905 116.025 34.0499C115.989 34.1093 115.935 34.1568 115.872 34.1868C115.832 34.2059 115.793 34.2278 115.756 34.2523C115.698 34.2892 115.63 34.3088 115.561 34.3088C115.492 34.3088 115.425 34.2892 115.366 34.2523L115.217 34.165L114.853 34.7947L114.999 34.8821C115.06 34.9159 115.109 34.9665 115.142 35.0278C115.175 35.0891 115.19 35.1585 115.184 35.2279V35.3625C115.189 35.4313 115.174 35.5 115.141 35.5605C115.108 35.6211 115.059 35.6711 114.999 35.7047L114.853 35.7884L115.217 36.4181L115.366 36.3344C115.425 36.2968 115.493 36.2768 115.563 36.2768C115.633 36.2768 115.701 36.2968 115.76 36.3344C115.797 36.3596 115.836 36.3827 115.876 36.4036C115.938 36.4339 115.99 36.4811 116.026 36.5397C116.062 36.5983 116.081 36.666 116.08 36.7348V36.9423ZM116.444 36.2725C116.255 36.2733 116.07 36.2179 115.912 36.1135C115.754 36.009 115.631 35.8602 115.558 35.6858C115.484 35.5113 115.464 35.3191 115.5 35.1334C115.536 34.9476 115.627 34.7767 115.76 34.6422C115.893 34.5076 116.062 34.4155 116.248 34.3775C116.433 34.3394 116.625 34.3571 116.801 34.4284C116.976 34.4996 117.126 34.6212 117.232 34.7777C117.339 34.9343 117.396 35.1188 117.398 35.3079C117.399 35.4341 117.375 35.5593 117.328 35.6763C117.281 35.7932 117.211 35.8997 117.122 35.9894C117.033 36.0791 116.928 36.1503 116.811 36.1989C116.695 36.2475 116.57 36.2726 116.444 36.2725ZM116.444 34.6345C116.308 34.6338 116.175 34.6736 116.062 34.7489C115.948 34.8241 115.86 34.9314 115.808 35.057C115.756 35.1827 115.743 35.3209 115.77 35.4542C115.796 35.5875 115.862 35.7097 115.959 35.8053C116.056 35.901 116.179 35.9656 116.312 35.9911C116.446 36.0165 116.584 36.0016 116.709 35.9483C116.834 35.8949 116.94 35.8055 117.014 35.6914C117.088 35.5774 117.127 35.4439 117.125 35.3079C117.122 35.129 117.049 34.9583 116.922 34.8324C116.794 34.7065 116.623 34.6355 116.444 34.6345Z" fill="white"/>
<path d="M113.724 109.811H68.1226V71.2347L90.9199 56.7548L113.724 71.2347V109.811Z" fill="#004693"/>
<path opacity="0.2" d="M113.724 109.811H68.1226V71.2347L90.9199 56.7548L113.724 71.2347V109.811Z" fill="black"/>
<path d="M111.155 106.859H70.6929V54.9203H100.737L111.155 64.8174V106.859Z" fill="#EBEBEB"/>
<path d="M100.737 54.9203L111.154 64.8174H100.737V54.9203Z" fill="#DBDBDB"/>
<path d="M74.642 64.9703H97.1372V63.638H74.642V64.9703Z" fill="#DBDBDB"/>
<path d="M74.642 68.3373H97.1372V67.005H74.642V68.3373Z" fill="#DBDBDB"/>
<path d="M74.642 71.7006H97.1372V70.3684H74.642V71.7006Z" fill="#DBDBDB"/>
<path d="M74.6384 75.0676H107.599V73.7354H74.6384V75.0676Z" fill="#DBDBDB"/>
<path d="M74.6384 78.4346H107.599V77.1024H74.6384V78.4346Z" fill="#DBDBDB"/>
<path d="M74.6384 81.8016H107.599V80.4694H74.6384V81.8016Z" fill="#DBDBDB"/>
<path d="M74.6384 85.1686H107.599V83.8363H74.6384V85.1686Z" fill="#DBDBDB"/>
<path d="M74.6384 88.532H107.599V87.1997H74.6384V88.532Z" fill="#DBDBDB"/>
<path d="M74.6384 91.899H107.599V90.5667H74.6384V91.899Z" fill="#DBDBDB"/>
<path d="M74.6384 95.2623H107.599V93.9301H74.6384V95.2623Z" fill="#DBDBDB"/>
<path d="M74.6384 98.6329H107.599V97.3007H74.6384V98.6329Z" fill="#DBDBDB"/>
<path d="M74.6384 102H107.599V100.668H74.6384V102Z" fill="#DBDBDB"/>
<path d="M113.724 80.8916V109.811H68.1226V80.8916C70.0809 81.9836 72.0064 83.163 73.9466 84.2986C75.8867 85.4343 77.8086 86.6137 79.7269 87.793C81.8636 89.0925 84.0002 90.4175 86.1296 91.7497L86.1988 91.7097C86.177 91.7097 86.166 91.7461 86.1442 91.757C87.7385 92.7495 89.3341 93.7481 90.9308 94.7527C92.5215 93.7517 94.1158 92.7434 95.7101 91.757C95.6919 91.757 95.6774 91.7242 95.6555 91.7097C95.677 91.7246 95.7002 91.7369 95.7247 91.7461C97.8529 90.4163 99.9871 89.0962 102.127 87.7858C104.045 86.6137 105.969 85.4513 107.9 84.2986C109.844 83.163 111.766 81.9982 113.724 80.8916Z" fill="#004693"/>
<g opacity="0.2">
<path d="M113.724 80.8916C111.883 82.1838 110.008 83.4396 108.152 84.699C106.295 85.9585 104.406 87.1888 102.521 88.4228C100.555 89.7113 98.5857 90.9878 96.6128 92.252L96.4345 92.3758L91.182 95.7319L90.9199 95.8884L90.6687 95.7319C88.9142 94.6132 87.1646 93.4945 85.4198 92.3758L85.2378 92.2593C83.2577 90.9926 81.2848 89.7137 79.3192 88.4228C77.441 87.1961 75.5664 85.9512 73.6954 84.7063C71.8244 83.4614 69.9644 82.1911 68.1226 80.8989C70.0809 81.9909 72.0064 83.1702 73.9466 84.3059C75.8867 85.4416 77.8086 86.621 79.7269 87.8003C81.8636 89.0998 84.0002 90.4248 86.1296 91.757C87.724 92.7495 89.3195 93.7481 90.9162 94.7527C92.5069 93.7517 94.1012 92.7434 95.6956 91.757C97.8237 90.4272 99.958 89.1071 102.098 87.7967C104.015 86.6246 105.94 85.4622 107.871 84.3096C109.844 83.163 111.766 81.9982 113.724 80.8916Z" fill="black"/>
<path d="M86.1953 91.7279C86.1735 91.7279 86.1625 91.7643 86.1407 91.7752C85.898 91.9815 85.6554 92.1853 85.4127 92.3867C84.2697 93.3513 83.0977 94.2759 81.9074 95.175C80.4514 96.267 78.9699 97.359 77.4775 98.4C75.9851 99.4411 74.4709 100.46 72.9311 101.447C71.3914 102.433 69.8335 103.398 68.2246 104.282C69.6078 103.07 71.0456 101.938 72.498 100.839C73.9503 99.7395 75.4427 98.6548 76.9279 97.6101C78.413 96.5655 79.9418 95.5426 81.4815 94.5562C82.7082 93.7699 83.9567 92.9946 85.2307 92.2703C85.5219 92.0992 85.8167 91.9354 86.1189 91.7679L86.1953 91.7279Z" fill="black"/>
<path d="M113.615 104.264C112.006 103.379 110.445 102.415 108.912 101.428C107.38 100.442 105.862 99.4155 104.359 98.3818C102.855 97.348 101.378 96.2633 99.9252 95.1567C98.7422 94.2577 97.5701 93.3367 96.4345 92.3758L95.7065 91.757C95.6883 91.757 95.6737 91.7242 95.6519 91.7097C95.6733 91.7246 95.6965 91.7368 95.721 91.7461C96.0231 91.9171 96.318 92.0809 96.6128 92.252C97.8868 92.98 99.1244 93.7517 100.358 94.5379C101.898 95.5244 103.405 96.5509 104.905 97.5919C106.404 98.6329 107.882 99.7104 109.335 100.821C110.787 101.931 112.232 103.052 113.615 104.264Z" fill="black"/>
</g>
<path d="M74.7692 120.353H68.1226V127H74.7692V120.353Z" fill="#EBEBEB"/>
<path d="M84.4806 120.353H77.834V127H84.4806V120.353Z" fill="#EBEBEB"/>
<path d="M94.1925 120.353H87.5459V127H94.1925V120.353Z" fill="#EBEBEB"/>
<path d="M103.904 120.353H97.2573V127H103.904V120.353Z" fill="#EBEBEB"/>
<path d="M113.619 120.353H106.973V127H113.619V120.353Z" fill="#EBEBEB"/>
<path d="M113.412 130.501H67.9189V131.218H113.412V130.501Z" fill="#EBEBEB"/>
<path d="M113.412 132.394H67.9189V133.111H113.412V132.394Z" fill="#EBEBEB"/>
<path d="M113.412 134.29H67.9189V135.008H113.412V134.29Z" fill="#EBEBEB"/>
<path d="M89.0382 136.183H67.9189V136.9H89.0382V136.183Z" fill="#EBEBEB"/>
<path d="M68.2937 64.4278H67.7768V64.1548H69.2328V64.4278H68.2937ZM65.9568 64.4024L64.5008 64.3623V64.0893L65.9568 64.1294V64.4024ZM71.0528 64.4024V64.1294C71.5333 64.1294 72.0174 64.1075 72.5088 64.0893V64.3623C72.021 64.3696 71.5369 64.3805 71.0564 64.3914L71.0528 64.4024ZM74.3288 64.2895V64.0165L75.7848 63.9437V64.2167L74.3288 64.2895ZM62.6808 64.2895C62.1894 64.2604 61.7016 64.2276 61.2248 64.1912L61.243 63.9182C61.7198 63.9546 62.2003 63.9874 62.699 64.0165L62.6808 64.2895ZM77.6048 64.1112L77.5866 63.8382L79.0426 63.7362L79.0644 64.0092L77.6048 64.1112ZM59.4048 64.0311C58.9097 63.9801 58.4293 63.9255 57.9488 63.8636L57.9815 63.5943C58.4511 63.6525 58.9352 63.7071 59.4375 63.7581L59.4048 64.0311ZM80.8808 63.8636L80.8553 63.5906L82.3113 63.4632L82.3368 63.7362L80.8808 63.8636ZM56.1579 63.6125C55.6665 63.536 55.186 63.4523 54.7019 63.365L54.7529 63.0992C55.2188 63.183 55.6956 63.2667 56.1834 63.3431L56.1579 63.6125ZM84.1422 63.5615L84.1167 63.2885L85.5727 63.1393L85.6019 63.4123L84.1422 63.5615ZM87.4182 63.1975L87.3855 62.9245L87.7495 62.8808C88.1135 62.8408 88.4593 62.7971 88.8123 62.7498L88.8487 63.0192L87.7786 63.1538L87.4182 63.1975ZM52.9256 62.9718C52.4451 62.8626 51.9683 62.7462 51.5096 62.6078L51.5788 62.3421C52.0338 62.4659 52.507 62.5787 52.9875 62.6879L52.9256 62.9718ZM90.636 62.7498L90.5923 62.4804C91.0728 62.4004 91.5496 62.3203 92.0265 62.2293L92.0774 62.4986C91.6018 62.586 91.1213 62.6697 90.636 62.7498ZM93.8683 62.1456L93.8137 61.8798C94.2869 61.7779 94.7601 61.676 95.2333 61.5668L95.2915 61.8325C94.8329 61.9417 94.3597 62.0436 93.8829 62.1456H93.8683ZM49.7406 62.1237C49.271 61.9745 48.8051 61.8143 48.3574 61.6505L48.452 61.3957C48.8961 61.5559 49.3584 61.716 49.8243 61.8653L49.7406 62.1237ZM97.0606 61.3957L96.9914 61.1336C97.461 61.0135 97.9305 60.8898 98.3965 60.7696L98.4693 61.0317L97.0606 61.3957ZM46.6611 60.9626C46.2098 60.7624 45.7657 60.5512 45.3398 60.3328L45.4636 60.089C45.8858 60.3074 46.3263 60.5148 46.7703 60.7114L46.6611 60.9626ZM100.22 60.5258L100.144 60.2637L101.53 59.8414L101.611 60.0999C101.166 60.2491 100.704 60.3911 100.238 60.5294L100.22 60.5258ZM103.347 59.5393L103.259 59.2809C103.722 59.1244 104.18 58.9678 104.635 58.8077L104.726 59.0661L103.347 59.5393ZM43.7455 59.4374C43.3269 59.179 42.9156 58.906 42.5261 58.6257L42.6863 58.4036C43.0721 58.6803 43.4761 58.9496 43.8911 59.2044L43.7455 59.4374ZM106.441 58.4473L106.346 58.1889C106.801 58.0214 107.256 57.8504 107.708 57.6756L107.806 57.9304C107.38 58.1088 106.918 58.2799 106.459 58.451L106.441 58.4473ZM41.1101 57.5118C40.7389 57.1915 40.3821 56.8566 40.04 56.5072L40.2365 56.3179C40.5714 56.6564 40.9245 56.9913 41.2885 57.3043L41.1101 57.5118ZM109.52 57.2789L109.415 57.0277C109.87 56.8421 110.317 56.6637 110.762 56.4708L110.867 56.722C110.423 56.893 109.972 57.0787 109.52 57.2607V57.2789ZM112.541 56.0049L112.432 55.7537L113.765 55.164L113.874 55.4116C113.437 55.5936 112.993 55.7901 112.541 55.9867V56.0049ZM38.8206 55.1422C38.5113 54.7569 38.2384 54.3438 38.0052 53.9082L38.2455 53.7808C38.4702 54.2018 38.7347 54.6004 39.0353 54.9711L38.8206 55.1422ZM115.53 54.6472L115.417 54.3996C115.858 54.1922 116.298 53.9847 116.731 53.7736L116.848 54.0211C116.414 54.214 115.978 54.4215 115.53 54.629V54.6472ZM118.486 53.2166L118.362 52.9728L119.661 52.3139L119.785 52.5578L118.486 53.2166ZM37.3864 52.161C37.3251 51.8321 37.2947 51.4982 37.2954 51.1637C37.2954 50.9999 37.2954 50.8397 37.3173 50.6759L37.5866 50.6978C37.5866 50.8543 37.5684 51.0072 37.5684 51.1637C37.5689 51.481 37.5969 51.7976 37.6521 52.1101L37.3864 52.161ZM121.401 51.6878L121.274 51.4476C121.711 51.2146 122.14 50.9853 122.559 50.756L122.69 50.9962L121.401 51.6878ZM124.284 50.1154L124.153 49.8788L125.42 49.1508L125.554 49.3874C125.143 49.6385 124.721 49.8678 124.284 50.1226V50.1154ZM38.0161 48.9542L37.7613 48.8523C37.9434 48.3941 38.1638 47.9521 38.4202 47.531L38.6531 47.6729C38.4005 48.083 38.1837 48.5141 38.0052 48.9615L38.0161 48.9542ZM127.142 48.4774L127.003 48.2408C127.436 47.986 127.855 47.7348 128.252 47.4946L128.394 47.7275L127.142 48.4774ZM129.948 46.7702L129.802 46.5372C130.246 46.2606 130.658 45.9985 131.036 45.7583L131.182 45.9876C130.796 46.2278 130.385 46.4972 129.948 46.7775V46.7702ZM39.6978 46.2278L39.4903 46.0495C39.7925 45.6855 40.1273 45.3215 40.4877 44.9575L40.6806 45.154C40.3239 45.518 39.9963 45.8638 39.6978 46.2278ZM132.7 44.9939L132.547 44.7646C133.333 44.2404 133.752 43.9419 133.755 43.9419L133.912 44.164C133.912 44.164 133.49 44.4661 132.7 44.9939ZM42.0238 43.9565L41.8491 43.7454C42.2131 43.4469 42.5989 43.1411 43.0029 42.8426L43.1631 43.061C42.7627 43.3595 42.3805 43.658 42.0238 43.9565ZM44.6519 42.0273L44.5026 41.798C44.903 41.5395 45.3216 41.2774 45.7439 41.0226L45.8858 41.2592C45.4636 41.4958 45.0486 41.7688 44.6519 42.0273ZM47.4656 40.3602L47.3345 40.1199C47.7568 39.8942 48.1936 39.6686 48.634 39.4502L48.7541 39.694C48.3173 39.9124 47.8842 40.1381 47.4656 40.3602ZM50.3994 38.926L50.2902 38.6748C50.7416 38.4746 51.1966 38.2854 51.637 38.107L51.7389 38.3618C51.2985 38.5365 50.8471 38.7258 50.3994 38.926Z" fill="#263238"/>
<path d="M135.95 37.7249L133.832 44.0512L138.523 40.1819L156.669 33.0547L135.95 37.7249Z" fill="#004693"/>
<path opacity="0.1" d="M135.95 37.7249L133.832 44.0512L138.523 40.1819L156.669 33.0547L135.95 37.7249Z" fill="black"/>
<path d="M139.179 41.6269L133.832 44.0511L138.523 40.1818L139.179 41.6269Z" fill="#263238"/>
<path d="M138.523 40.1819L156.669 33.0547L142.032 48.1171L138.523 40.1819Z" fill="#004693"/>
<path d="M135.95 37.7248L128.204 33.011L156.669 33.0547L135.95 37.7248Z" fill="#004693"/>
<path d="M128.714 113.764C128.543 113.597 128.35 113.43 128.189 113.266L128.375 113.066C128.553 113.233 128.739 113.4 128.903 113.568L128.714 113.764Z" fill="#263238"/>
<path d="M126.308 142.615V142.342C126.795 142.342 127.283 142.298 127.764 142.251L127.789 142.524C127.309 142.571 126.814 142.601 126.308 142.615ZM124.488 142.582C124.007 142.557 123.516 142.513 123.032 142.455L123.061 142.186C123.548 142.24 124.036 142.284 124.517 142.313L124.488 142.582ZM129.609 142.244L129.551 141.978C130.035 141.876 130.505 141.756 130.952 141.614L131.032 141.876C130.574 142.018 130.093 142.142 129.605 142.244H129.609ZM121.212 142.182C120.746 142.095 120.262 141.993 119.777 141.88L119.839 141.614C120.32 141.727 120.797 141.825 121.263 141.913L121.212 142.182ZM118.005 141.41C117.542 141.272 117.073 141.123 116.607 140.966L116.694 140.708C117.157 140.864 117.623 141.013 118.081 141.148L118.005 141.41ZM132.754 141.21L132.638 140.963C133.074 140.757 133.497 140.525 133.904 140.267L134.05 140.5C133.629 140.761 133.194 140.998 132.747 141.21H132.754ZM114.889 140.34C114.438 140.162 113.979 139.976 113.531 139.78L113.64 139.532C114.084 139.721 114.539 139.896 114.987 140.085L114.889 140.34ZM135.52 139.383L135.335 139.179C135.691 138.857 136.021 138.509 136.325 138.138L136.536 138.309C136.223 138.692 135.881 139.051 135.513 139.383H135.52ZM111.86 139.019C111.426 138.812 110.989 138.594 110.55 138.364L110.674 138.123C111.114 138.349 111.547 138.564 111.981 138.771L111.86 139.019ZM108.948 137.497C108.519 137.257 108.1 137.009 107.685 136.769L107.824 136.536C108.239 136.784 108.657 137.028 109.083 137.264L108.948 137.497ZM137.566 136.769L137.326 136.638C137.554 136.216 137.75 135.776 137.912 135.324L138.167 135.419C137.998 135.885 137.793 136.338 137.555 136.773L137.566 136.769ZM106.131 135.794C105.72 135.528 105.316 135.255 104.915 134.982L105.072 134.756C105.469 135.029 105.873 135.299 106.28 135.564L106.131 135.794ZM103.427 133.923C103.033 133.632 102.644 133.337 102.262 133.038L102.429 132.823C102.811 133.122 103.197 133.413 103.59 133.701L103.427 133.923ZM138.633 133.632L138.367 133.584C138.445 133.11 138.495 132.631 138.516 132.15H138.789C138.766 132.648 138.71 133.144 138.622 133.635L138.633 133.632ZM100.828 131.903C100.464 131.59 100.078 131.276 99.7101 130.96L99.8848 130.752C100.249 131.069 100.613 131.382 101.002 131.691L100.828 131.903ZM138.465 130.352C138.418 129.882 138.349 129.398 138.254 128.918L138.523 128.867C138.618 129.358 138.691 129.846 138.735 130.323L138.465 130.352ZM98.3378 129.751C97.9738 129.424 97.6098 129.096 97.2458 128.765L97.4351 128.565C97.7894 128.897 98.1461 129.225 98.5053 129.547L98.3378 129.751ZM95.9391 127.509C95.5751 127.171 95.2438 126.828 94.898 126.486L95.0909 126.29C95.4367 126.635 95.7825 126.974 96.132 127.313L95.9391 127.509ZM137.799 127.163C137.664 126.716 137.504 126.253 137.326 125.791L137.581 125.693C137.763 126.162 137.923 126.628 138.061 127.083L137.799 127.163ZM93.5949 125.19C93.2527 124.845 92.9142 124.495 92.5757 124.146L92.7686 123.956L93.7878 124.997L93.5949 125.19ZM136.609 124.124C136.405 123.698 136.179 123.261 135.943 122.835L136.179 122.704C136.42 123.134 136.645 123.574 136.856 124.007L136.609 124.124ZM91.3126 122.828L90.3043 121.769L90.5045 121.583L91.5128 122.639L91.3126 122.828ZM135.014 121.274C134.76 120.873 134.487 120.469 134.203 120.065L134.428 119.909C134.712 120.313 134.985 120.724 135.244 121.128L135.014 121.274ZM89.0485 120.447L88.0403 119.392L88.2405 119.203L89.2451 120.258L89.0485 120.447ZM133.122 118.606C132.83 118.242 132.521 117.852 132.204 117.474L132.412 117.299C132.732 117.663 133.045 118.063 133.336 118.438L133.122 118.606ZM86.7808 118.074C86.4423 117.71 86.1074 117.375 85.7653 117.026L85.9618 116.833L86.9774 117.885L86.7808 118.074ZM131.003 116.116C130.683 115.752 130.352 115.41 130.006 115.057L130.202 114.864C130.548 115.228 130.883 115.592 131.207 115.93L131.003 116.116ZM84.4876 115.734L83.4575 114.7L83.6504 114.507L84.6842 115.541L84.4876 115.734ZM82.158 113.422L81.1061 112.414L81.2917 112.214L82.3473 113.226L82.158 113.422ZM79.7738 111.169C79.4098 110.842 79.0458 110.514 78.6818 110.186L78.8638 109.982C79.2278 110.31 79.5918 110.641 79.9558 110.969L79.7738 111.169ZM77.3314 108.985C76.9674 108.668 76.6034 108.352 76.2394 108.039L76.4141 107.828C76.7781 108.144 77.1603 108.465 77.5243 108.781L77.3314 108.985ZM74.8234 106.874C74.4594 106.568 74.0699 106.266 73.6841 105.96L73.8552 105.746C74.241 106.051 74.6196 106.357 74.9945 106.663L74.8234 106.874ZM72.2463 104.832C71.8823 104.537 71.4746 104.246 71.0779 103.955L71.2417 103.736C71.6384 104.027 72.0279 104.319 72.4101 104.613L72.2463 104.832ZM69.6037 102.888L68.4061 102.055L68.5626 101.829C68.9667 102.109 69.3671 102.386 69.7602 102.666L69.6037 102.888ZM66.8955 101.039C66.4915 100.773 66.0838 100.508 65.6725 100.245L65.8181 100.016C66.233 100.278 66.6407 100.544 67.0447 100.81L66.8955 101.039ZM64.1255 99.2809C63.7141 99.0297 63.2992 98.7785 62.8769 98.5274L63.0153 98.2944C63.4411 98.5456 63.8561 98.7967 64.2674 99.0479L64.1255 99.2809ZM61.3008 97.6138C60.8822 97.3735 60.46 97.1369 60.0305 96.8858L60.1615 96.6455C60.591 96.8858 61.0169 97.1224 61.4355 97.3735L61.3008 97.6138ZM58.4252 96.034C57.9993 95.8083 57.5698 95.5863 57.133 95.3606L57.2568 95.1204C57.6936 95.3424 58.1267 95.5681 58.5526 95.7938L58.4252 96.034ZM55.5132 94.5452C55.0837 94.3305 54.6433 94.1193 54.2028 93.9082L54.3193 93.6607C54.7634 93.8718 55.2002 94.0866 55.6333 94.2977L55.5132 94.5452ZM52.5503 93.1366L51.2217 92.536L51.3309 92.2884C51.7822 92.485 52.2263 92.6852 52.6631 92.889L52.5503 93.1366ZM49.5509 91.808C49.1068 91.6187 48.6591 91.444 48.2041 91.2438L48.3097 90.989L49.6565 91.5568L49.5509 91.808Z" fill="#263238"/>
<path d="M46.4168 90.5231L45.7397 90.2537L45.838 89.9989L46.5187 90.2683L46.4168 90.5231Z" fill="#263238"/>
<path d="M47.2834 85.9621L49.6858 92.5687L44.6371 88.6229L25.3306 81.6232L47.2834 85.9621Z" fill="#004693"/>
<path opacity="0.1" d="M47.2834 85.9621L49.6858 92.5687L44.6371 88.6229L25.3306 81.6232L47.2834 85.9621Z" fill="black"/>
<path d="M43.9888 90.1626L49.6854 92.5687L44.6367 88.6229L43.9888 90.1626Z" fill="#263238"/>
<path d="M44.6371 88.6229L25.3306 81.6232L41.1646 97.075L44.6371 88.6229Z" fill="#004693"/>
<path d="M47.2834 85.9621L55.306 80.7823L25.3306 81.6232L47.2834 85.9621Z" fill="#004693"/>
<path d="M129.815 43.4993C131.426 36.5674 127.112 29.6424 120.18 28.0319C113.248 26.4213 106.323 30.7351 104.713 37.667C103.102 44.5989 107.416 51.5239 114.348 53.1344C121.28 54.745 128.205 50.4312 129.815 43.4993Z" fill="#A6A6A6"/>
<path d="M126.057 35.006H108.468V46.1626H126.057V35.006Z" fill="white"/>
<path d="M126.057 35.006C125.347 35.6867 124.623 36.3382 123.906 37.008C123.189 37.6777 122.45 38.3147 121.722 38.9627C120.994 39.6106 120.204 40.3058 119.443 40.9719L119.374 41.0375L117.347 42.7956L117.248 42.8757L117.15 42.7956L115.126 41.0338L115.053 40.9719C114.289 40.3046 113.528 39.6336 112.771 38.959C112.043 38.3147 111.315 37.6595 110.587 37.008C109.859 36.3564 109.149 35.6867 108.439 35.006C109.193 35.5884 109.935 36.1999 110.685 36.7969C111.435 37.3938 112.174 38.0126 112.913 38.6169C113.736 39.3012 114.56 39.994 115.385 40.6953L117.23 42.2641C117.845 41.74 118.46 41.2122 119.076 40.6953C119.898 39.9964 120.722 39.3036 121.547 38.6169C122.275 38.0029 123.018 37.3962 123.775 36.7969C124.561 36.1999 125.304 35.5884 126.057 35.006Z" fill="#DBDBDB"/>
<path d="M115.439 40.9646H115.417L115.141 41.1976C114.7 41.5616 114.249 41.9256 113.787 42.2896C113.226 42.7154 112.654 43.1268 112.079 43.5308C111.504 43.9348 110.918 44.328 110.325 44.7065C109.732 45.0851 109.131 45.46 108.505 45.7985C109.04 45.329 109.597 44.8958 110.154 44.4699C110.711 44.044 111.289 43.6327 111.865 43.225C112.44 42.8174 113.026 42.4279 113.619 42.0457C114.092 41.7436 114.573 41.4451 115.075 41.1648L115.421 40.9719L115.439 40.9646Z" fill="#DBDBDB"/>
<path d="M126.013 45.8058C125.394 45.4637 124.79 45.0778 124.193 44.7138C123.596 44.3498 123.018 43.9385 122.435 43.5381C121.853 43.1377 121.289 42.7227 120.728 42.2969C120.269 41.9329 119.818 41.5943 119.381 41.2049L119.101 40.9683H119.079H119.105L119.45 41.1648C119.942 41.4451 120.419 41.7436 120.906 42.0457C121.5 42.4097 122.078 42.8247 122.657 43.2251C123.236 43.6255 123.807 44.0404 124.368 44.4699C124.929 44.8995 125.482 45.3363 126.013 45.8058Z" fill="#DBDBDB"/>
<path d="M125.488 37.5003C126.863 36.7509 127.37 35.0287 126.621 33.6536C125.871 32.2785 124.149 31.7713 122.774 32.5207C121.399 33.2701 120.892 34.9924 121.641 36.3674C122.391 37.7425 124.113 38.2497 125.488 37.5003Z" fill="#004693"/>
<path d="M123.822 35.632V33.3206C123.817 33.2769 123.822 33.2327 123.835 33.1909C123.849 33.1491 123.871 33.1105 123.9 33.0778C123.93 33.0451 123.966 33.0189 124.006 33.001C124.046 32.9831 124.089 32.9739 124.133 32.9739C124.177 32.9739 124.221 32.9831 124.261 33.001C124.301 33.0189 124.337 33.0451 124.366 33.0778C124.396 33.1105 124.418 33.1491 124.431 33.1909C124.445 33.2327 124.449 33.2769 124.445 33.3206V35.632C124.449 35.6757 124.445 35.7199 124.431 35.7618C124.418 35.8036 124.396 35.8421 124.366 35.8748C124.337 35.9075 124.301 35.9337 124.261 35.9516C124.221 35.9695 124.177 35.9788 124.133 35.9788C124.089 35.9788 124.046 35.9695 124.006 35.9516C123.966 35.9337 123.93 35.9075 123.9 35.8748C123.871 35.8421 123.849 35.8036 123.835 35.7618C123.822 35.7199 123.817 35.6757 123.822 35.632ZM124.135 37.0079C124.094 37.0079 124.053 36.9997 124.015 36.9838C123.976 36.9678 123.942 36.9444 123.913 36.915C123.883 36.8855 123.86 36.8506 123.845 36.8122C123.829 36.7738 123.822 36.7327 123.822 36.6913V36.5784C123.817 36.5347 123.822 36.4905 123.835 36.4487C123.849 36.4069 123.871 36.3683 123.9 36.3356C123.93 36.3029 123.966 36.2768 124.006 36.2588C124.046 36.2409 124.089 36.2317 124.133 36.2317C124.177 36.2317 124.221 36.2409 124.261 36.2588C124.301 36.2768 124.337 36.3029 124.366 36.3356C124.396 36.3683 124.418 36.4069 124.431 36.4487C124.445 36.4905 124.449 36.5347 124.445 36.5784V36.6913C124.446 36.7334 124.438 36.7754 124.422 36.8145C124.406 36.8536 124.383 36.8891 124.353 36.9188C124.323 36.9484 124.287 36.9716 124.248 36.987C124.208 37.0023 124.166 37.0094 124.124 37.0079H124.135Z" fill="white"/>
</svg>
