<svg width="35" height="24" viewBox="0 0 35 24" fill="none" xmlns="http://www.w3.org/2000/svg">
<path d="M0 8.18188H34.9091V15.8182H0V8.18188Z" fill="#E6E7E8"/>
<path d="M29.4545 0H5.45455C1.83982 0 0 2.68636 0 6V8.18182H34.9091V6C34.9091 2.68636 33.0693 0 29.4545 0Z" fill="#EC1C24"/>
<path d="M0 17.9999C0 21.3136 1.83982 23.9999 5.45455 23.9999H29.4545C33.0693 23.9999 34.9091 21.3136 34.9091 17.9999V15.8181H0V17.9999Z" fill="#25333A"/>
<path fill-rule="evenodd" clip-rule="evenodd" d="M19.9876 10.0407C20.041 10.5294 20.04 11.0192 20.0634 11.5101C20.1081 12.4483 20.143 13.3909 20.1812 14.3318V14.502C19.8938 14.2314 19.6303 13.986 19.3696 13.7378C19.3625 13.7132 19.3745 13.6963 19.3919 13.6794C19.4394 13.626 19.4225 13.5627 19.4187 13.5049C19.392 13.0985 19.3843 12.6905 19.363 12.2825C19.3347 11.6934 19.3172 11.1054 19.2823 10.5163C19.273 10.3358 19.3314 10.206 19.4869 10.1154C19.5845 10.0576 19.6499 10.081 19.6532 10.1945C19.6619 10.4154 19.6696 10.6358 19.6816 10.8567C19.716 11.4921 19.7356 12.1287 19.7661 12.7636C19.7803 13.0587 19.8087 13.3527 19.7994 13.6467C19.7961 13.735 19.8016 13.8212 19.8152 13.8736C19.7699 13.6892 19.8065 13.4683 19.789 13.248C19.7569 12.8732 19.7498 12.4969 19.734 12.1205C19.7105 11.4785 19.6734 10.8392 19.6549 10.1972C19.6505 9.99214 19.6936 9.96486 19.8943 10.0369C19.9249 10.0423 19.957 10.0227 19.9876 10.0407ZM15.7167 13.8469C15.4903 14.0574 15.2629 14.2674 15.0207 14.49C15.0207 14.2881 15.0141 14.1141 15.0218 13.9369C15.0698 12.7603 15.1216 11.5827 15.1712 10.404C15.1767 10.2823 15.1903 10.1618 15.2012 10.0401C15.2334 10.027 15.2558 10.075 15.2896 10.0505C15.3209 10.0267 15.3573 10.0105 15.3959 10.003C15.4854 9.98777 15.5361 10.0303 15.5361 10.1214C15.5361 10.4012 15.5176 10.6778 15.5039 10.9538C15.4947 11.1698 15.4789 11.3858 15.4734 11.6018C15.4598 12.0883 15.432 12.5738 15.414 13.0576C15.4025 13.3281 15.397 13.5998 15.3812 13.8681C15.4019 13.6156 15.402 13.3581 15.4123 13.104C15.4472 12.2858 15.4832 11.4676 15.5198 10.6494C15.5252 10.5032 15.541 10.3554 15.5356 10.2076C15.5334 10.158 15.541 10.1083 15.5934 10.0881C15.6392 10.068 15.6747 10.1001 15.7129 10.1214C15.8579 10.2076 15.913 10.3314 15.9059 10.5016C15.8739 11.1946 15.8437 11.8877 15.8154 12.5809C15.8023 12.8923 15.8045 13.206 15.768 13.518C15.7576 13.6265 15.7287 13.7356 15.7167 13.8469Z" fill="#BF9200"/>
<path fill-rule="evenodd" clip-rule="evenodd" d="M15.7165 13.8468C15.6794 13.7456 15.6779 13.6348 15.7122 13.5326C15.7307 13.5294 15.7602 13.579 15.7678 13.5244C15.7722 13.4754 15.7864 13.4295 15.7864 13.3826C15.7864 13.0652 15.8087 12.7483 15.824 12.4335C15.8458 11.9835 15.8562 11.5324 15.8878 11.0841C15.8993 10.933 15.8976 10.7803 15.9009 10.6297C15.9031 10.5484 15.8993 10.4481 15.9975 10.4241C16.0951 10.4006 16.1529 10.4808 16.2064 10.5528C16.2385 10.5964 16.2407 10.6494 16.2375 10.7028C16.2085 11.131 16.2025 11.5586 16.1813 11.9874C16.1627 12.403 16.148 12.8181 16.1284 13.2354C16.1567 12.6212 16.1845 12.0064 16.208 11.3912C16.214 11.1975 16.2287 11.0039 16.2342 10.8075C16.2385 10.6521 16.28 10.6221 16.4376 10.6368C16.5113 10.645 16.5822 10.6592 16.6575 10.6641C16.6918 10.6772 16.7295 10.6897 16.7398 10.7312C16.7245 10.7868 16.6749 10.7808 16.6351 10.7819C16.5484 10.7879 16.5189 10.8386 16.5429 10.9128C16.5707 10.9919 16.5604 11.0732 16.5642 11.1523C16.5604 11.2243 16.5587 11.2963 16.5527 11.3683C16.5342 11.5261 16.5249 11.6849 16.5249 11.8439C16.5216 12.1319 16.4944 12.4215 16.4867 12.709C16.4594 12.8151 16.4529 12.9255 16.4676 13.0341C16.4747 13.069 16.4851 13.1039 16.4938 13.1388C16.502 13.1906 16.4807 13.2375 16.4524 13.2779C16.4385 13.2931 16.4215 13.3051 16.4026 13.3131C16.3837 13.3211 16.3633 13.3249 16.3427 13.3243C16.2898 13.3161 16.2669 13.3592 16.2369 13.3854L15.7165 13.8468ZM19.3951 13.7181C19.3858 13.7257 19.3771 13.7323 19.3689 13.7404C19.2565 13.6357 19.142 13.5321 19.0313 13.4252C19.0231 13.4017 19.0335 13.3832 19.0465 13.3646C19.0575 13.3444 19.0547 13.3232 19.0547 13.3008C19.0465 12.6583 19.0116 12.0195 18.9795 11.3792C18.968 11.1463 18.9767 10.9112 18.9511 10.6788C18.9447 10.6388 18.9539 10.5978 18.9767 10.5643C19.0291 10.4901 19.0875 10.4023 19.1916 10.4274C19.2887 10.4514 19.286 10.5523 19.2871 10.633C19.3051 11.3432 19.3487 12.0534 19.3798 12.7635C19.3907 13.0177 19.3798 13.2752 19.4175 13.5288C19.4256 13.5894 19.4349 13.6581 19.3951 13.7181ZM19.0504 14.1086C19.0613 14.2112 19.1033 14.2357 19.2107 14.2052C19.3771 14.1572 19.6105 14.2712 19.5767 14.4828C19.5691 14.5406 19.5838 14.5788 19.6422 14.6061C19.7278 14.6459 19.7584 14.7572 19.8631 14.7763C19.8784 14.7801 19.8865 14.8112 19.8729 14.8215C19.7747 14.8788 19.8036 15.0168 19.7109 15.0784C19.6984 15.0883 19.6804 15.1046 19.6787 15.1188C19.6722 15.3075 19.5325 15.3414 19.3875 15.3724C18.6991 15.5224 18.0015 15.5366 17.3016 15.5224C16.7856 15.5137 16.2707 15.4854 15.7656 15.3615C15.6325 15.331 15.548 15.2808 15.5022 15.1324C15.4658 15.0293 15.4117 14.9334 15.3424 14.8488C15.302 14.7992 15.3129 14.7943 15.3582 14.7572C15.4722 14.6644 15.6287 14.6083 15.6195 14.4048C15.6124 14.2592 15.818 14.1506 15.9789 14.2041C16.0836 14.2384 16.1278 14.2128 16.1393 14.1086C16.1742 14.1015 16.1878 14.1261 16.2004 14.1506C16.2189 14.1899 16.2145 14.2297 16.2096 14.2712C16.2031 14.2895 16.1903 14.3049 16.1736 14.3148C16.1229 14.3388 16.0727 14.3246 16.0242 14.3104C15.9893 14.299 15.9462 14.2826 15.9151 14.3197C15.8764 14.3683 15.9353 14.3824 15.9516 14.413C15.9603 14.4276 15.9641 14.4446 15.9625 14.4615C15.9544 14.4899 15.9309 14.5046 15.908 14.5183C15.8289 14.5363 15.7635 14.5717 15.7285 14.6524C15.7127 14.6917 15.6713 14.713 15.6331 14.7386C15.5262 14.8134 15.5158 14.8723 15.5955 14.9726C15.6102 14.9928 15.6342 15.0124 15.6391 15.0364C15.6713 15.1968 15.7956 15.2241 15.9282 15.2503C16.3749 15.3364 16.8287 15.3746 17.2847 15.3774C17.6933 15.3812 18.1002 15.3888 18.5076 15.3512C18.7962 15.3244 19.0853 15.2955 19.3667 15.2241C19.4496 15.2034 19.5113 15.1712 19.5315 15.0801C19.5407 15.0381 19.5713 15.0032 19.598 14.9688C19.6695 14.8804 19.6651 14.8134 19.5762 14.7495C19.5154 14.7146 19.4649 14.6642 19.43 14.6034C19.3945 14.533 19.3269 14.5428 19.2593 14.5521C19.0755 14.5832 18.8982 14.6361 18.7155 14.6715C18.6915 14.6683 18.6756 14.6552 18.662 14.6339C18.6494 14.6145 18.6419 14.5922 18.6404 14.569C18.6389 14.5459 18.6433 14.5228 18.6533 14.5019C18.663 14.4828 18.679 14.4676 18.6985 14.4588C18.896 14.5395 19.0645 14.4108 19.2495 14.3884C19.2751 14.3846 19.2893 14.365 19.2865 14.3415C19.2773 14.3061 19.2489 14.2963 19.214 14.3012C19.1513 14.3083 19.0896 14.3459 19.0231 14.3192C19.0056 14.3093 18.9918 14.294 18.9838 14.2755C18.9736 14.2347 18.9761 14.1917 18.9909 14.1523C19.0024 14.1272 19.0155 14.1021 19.0525 14.1086" fill="#BF9200"/>
<path fill-rule="evenodd" clip-rule="evenodd" d="M19.0575 13.4017L19.0313 13.4219C18.9516 13.3881 18.9129 13.2943 18.8235 13.273C18.8146 13.2801 18.8041 13.2847 18.7929 13.2865C18.7817 13.2883 18.7703 13.2873 18.7596 13.2834C18.7089 13.2501 18.6909 13.2043 18.6936 13.1465C18.6985 13.1105 18.7138 13.0772 18.7193 13.0395C18.7361 12.9345 18.7307 12.8271 18.7035 12.7243C18.6926 12.4101 18.6631 12.0986 18.662 11.7834C18.662 11.6792 18.6773 11.5685 18.6151 11.473C18.5933 11.4579 18.5763 11.4369 18.566 11.4125C18.5889 11.2559 18.6205 11.101 18.6396 10.9428C18.6549 10.8125 18.6593 10.8059 18.5311 10.7825C18.4978 10.7765 18.4618 10.7765 18.4487 10.7339C18.4585 10.6903 18.4984 10.6794 18.5338 10.6646C18.6151 10.6575 18.6964 10.6412 18.7776 10.6335C18.9009 10.6215 18.9467 10.657 18.9538 10.7814C18.9658 11.0295 18.974 11.2761 18.9844 11.5232C19.0165 12.1357 19.0307 12.7521 19.0678 13.3657C19.0678 13.3788 19.0613 13.3908 19.0575 13.4017Z" fill="#BF9200"/>
<path fill-rule="evenodd" clip-rule="evenodd" d="M18.773 13.2709C18.7904 13.2709 18.8068 13.2725 18.8237 13.2725L18.9263 13.686C18.941 13.7105 18.9393 13.7318 18.9121 13.7476C18.8919 13.758 18.8646 13.7198 18.8461 13.758C18.7577 13.9298 18.7915 14.0896 18.9497 14.2113C18.971 14.226 18.9933 14.238 19.0032 14.2658C19.0129 14.2746 19.0231 14.2828 19.0337 14.2903C19.0326 14.3509 18.9819 14.3553 18.9453 14.3651C18.8499 14.3847 18.7577 14.4153 18.6595 14.4087C18.6251 14.4087 18.5911 14.4159 18.5597 14.43C18.3644 14.4682 18.167 14.466 17.9706 14.4589C17.9363 14.4567 17.8959 14.4534 17.885 14.4993C17.8757 14.5429 17.9112 14.5571 17.9455 14.5669C18.0328 14.5963 18.1239 14.5854 18.2123 14.5903C18.2613 14.5931 18.3159 14.5762 18.3541 14.6258C18.3601 14.694 18.3061 14.6973 18.2608 14.7049C18.2052 14.7131 18.1487 14.7142 18.0928 14.7082C17.9804 14.7016 17.8779 14.7223 17.7944 14.8063C17.7837 14.8193 17.7698 14.8293 17.7541 14.8353C17.6657 14.8653 17.5915 14.766 17.4786 14.8325C17.4115 14.8734 17.3063 14.7502 17.255 14.658C17.2499 14.6393 17.2491 14.6197 17.2528 14.6007C17.261 14.5582 17.3313 14.5418 17.3046 14.4905C17.2757 14.4376 17.2179 14.4638 17.1743 14.4589C17.0777 14.4491 16.9746 14.5025 16.8879 14.4273C16.883 14.3405 16.9713 14.352 17.0112 14.3094C17.0353 14.289 17.0653 14.277 17.0968 14.2751C17.1164 14.2751 17.1333 14.2822 17.1492 14.2942C17.1639 14.3083 17.1797 14.3274 17.2021 14.3253C17.3373 14.3116 17.4481 14.3585 17.5495 14.4403C17.5746 14.4605 17.6046 14.4693 17.6319 14.4458C17.7404 14.3623 17.861 14.3127 18.0044 14.3231C18.0192 14.3231 18.0312 14.304 18.0443 14.2931C18.059 14.2816 18.0765 14.2742 18.095 14.2718C18.1904 14.3094 18.2581 14.3062 18.3072 14.1911C18.3503 14.088 18.4075 14.0973 18.5319 14.2085C18.6192 14.0874 18.6186 14.0618 18.5133 13.9074C18.4533 13.9571 18.4539 14.0738 18.3535 14.0727C18.2603 14.0727 18.2401 13.9762 18.1855 13.9243C18.1348 13.9822 18.1746 14.0994 18.0606 14.1147C18.0072 14.0798 18.0028 14.028 18.0121 13.9729C18.053 13.8556 18.0464 13.7362 18.0344 13.6173C18.0384 13.5977 18.0466 13.5793 18.0584 13.5633C18.1157 13.4956 18.1021 13.4083 18.1228 13.3303C18.1413 13.2633 18.1392 13.1689 18.2335 13.1607C18.3175 13.1553 18.3546 13.236 18.3955 13.296C18.4067 13.3116 18.4137 13.3298 18.4157 13.3489C18.4097 13.296 18.4332 13.2289 18.4703 13.1689C18.5188 13.0914 18.6093 13.0985 18.6759 13.1809C18.7032 13.2153 18.7152 13.2687 18.773 13.2709Z" fill="#BF9200"/>
<path fill-rule="evenodd" clip-rule="evenodd" d="M17.0728 14.3673C17.0193 14.4153 16.9446 14.3733 16.889 14.4147C16.8131 14.5053 16.7242 14.424 16.6424 14.4322C16.6053 14.4251 16.5726 14.406 16.535 14.4087C16.4357 14.4153 16.3413 14.3847 16.2459 14.3651C16.2082 14.3553 16.157 14.3514 16.1548 14.2903C16.1655 14.2829 16.1758 14.2747 16.1853 14.2658C16.1946 14.238 16.2175 14.2265 16.2388 14.2113C16.3953 14.0896 16.4319 13.9298 16.3441 13.7596C16.3239 13.7225 16.2977 13.758 16.2764 13.7482C16.2481 13.7323 16.2481 13.7111 16.2622 13.6865C16.2742 13.5622 16.3424 13.4509 16.3424 13.3249C16.349 13.3104 16.3591 13.2979 16.372 13.2886C16.3848 13.2792 16.3998 13.2733 16.4155 13.2714C16.4548 13.2714 16.4777 13.2469 16.4951 13.2136C16.5279 13.1542 16.5742 13.1067 16.649 13.116C16.7221 13.1253 16.7335 13.1934 16.7559 13.2502C16.7619 13.2643 16.7619 13.2834 16.7761 13.2954C16.7853 13.2976 16.7902 13.2927 16.7968 13.2845C16.8442 13.2322 16.8781 13.1427 16.9648 13.1629C17.063 13.1853 17.0531 13.2878 17.0706 13.3653C17.0848 13.4269 17.0815 13.4951 17.1404 13.5387C17.1545 13.5517 17.1644 13.5686 17.1688 13.5873C17.1448 13.722 17.1273 13.854 17.1906 13.9849C17.1944 14.0351 17.1824 14.0776 17.1404 14.1082C17.0101 14.1131 17.0591 13.98 17.003 13.926C16.847 14.1289 16.8224 14.1289 16.6822 13.9145C16.5764 14.0313 16.5731 14.0585 16.6462 14.2058C16.6861 14.2074 16.6986 14.1654 16.7253 14.1474C16.781 14.1087 16.8421 14.106 16.8699 14.1654C16.9097 14.2647 16.9921 14.3127 17.0728 14.3673ZM17.225 9.53289C17.249 9.37798 17.291 9.22634 17.2817 9.06871C17.2801 9.01651 17.2658 8.96549 17.2399 8.92013C17.2141 8.87476 17.1775 8.83644 17.1333 8.80853C17.1068 8.79454 17.0772 8.78742 17.0471 8.7878C17.0013 8.78289 16.9424 8.88653 16.913 8.78289C16.9007 8.74303 16.8999 8.7005 16.9108 8.66023C16.9217 8.61997 16.9439 8.58363 16.9746 8.55543C16.9904 8.54071 17.0139 8.52707 17.0319 8.52816C17.2915 8.54616 17.5533 8.44471 17.8124 8.55762C17.9482 8.61871 18.0317 8.70653 18.041 8.85762C18.0524 8.8838 18.0562 8.90834 18.0273 8.92471C17.9859 8.92471 17.9635 8.89525 17.9504 8.86416C17.9046 8.75016 17.8086 8.74144 17.7262 8.78998C17.5582 8.89253 17.4295 8.82544 17.3062 8.71798C17.2554 8.6766 17.197 8.64531 17.1344 8.6258C17.2479 8.65307 17.3411 8.73216 17.4246 8.81725C17.4846 8.87616 17.5048 8.94107 17.4322 9.02016C17.3461 9.11234 17.3968 9.24325 17.3613 9.35289C17.3341 9.43416 17.3548 9.53944 17.2441 9.57816C17.2228 9.56944 17.2146 9.55525 17.225 9.53289ZM18.2166 10.0407C18.2422 10.104 18.2979 10.0925 18.3486 10.0898C18.5848 10.0811 18.7921 9.98725 18.9961 9.88089C19.019 9.86671 19.031 9.87816 19.0397 9.89834C19.0375 9.97034 18.9797 10.0009 18.9284 10.0314C18.842 10.0807 18.7493 10.1181 18.653 10.1427C18.5379 10.176 18.4266 10.224 18.317 10.2562C18.167 10.302 17.9941 10.392 17.8239 10.2823C17.7786 10.254 17.7339 10.2469 17.6793 10.2802C17.5544 10.3598 17.4802 10.3205 17.4459 10.1667C17.4484 10.1578 17.4528 10.1495 17.4587 10.1424C17.4646 10.1352 17.472 10.1294 17.4802 10.1253C17.6411 10.122 17.6455 10.1193 17.6433 9.94798C17.6433 9.90325 17.6357 9.86071 17.6406 9.81762C17.657 9.73471 17.6613 9.65071 17.6602 9.56725C17.6597 9.5198 17.651 9.4718 17.6957 9.43853C17.7824 9.43525 17.7731 9.50234 17.777 9.55525C17.7862 9.70198 17.7731 9.84816 17.8048 9.99434C17.8168 10.0538 17.8364 10.1007 17.9155 10.1323C17.8506 9.95809 17.8072 9.77657 17.7862 9.5918C17.7824 9.55253 17.7759 9.51489 17.7781 9.47562C17.7797 9.42271 17.7824 9.35889 17.8517 9.35889C17.9051 9.3578 17.9297 9.41125 17.933 9.46198C17.9379 9.53016 17.9564 9.59671 17.9635 9.66598C17.975 9.78271 18.0011 9.89616 18.0497 10.0036C18.071 10.0478 18.0944 10.11 18.1642 10.0538C18.1801 10.0407 18.1964 10.0331 18.2166 10.0407Z" fill="#BF9200"/>
<path fill-rule="evenodd" clip-rule="evenodd" d="M17.2251 9.53277C17.2332 9.54532 17.2409 9.55732 17.2507 9.56932C17.3058 9.62496 17.2698 9.68387 17.2529 9.73787C17.2136 9.86387 17.134 9.96968 17.0696 10.0853C17.1569 10.064 17.1912 9.99532 17.2174 9.92332C17.2671 9.78968 17.3151 9.65496 17.3336 9.50987C17.3363 9.4995 17.3336 9.48423 17.3385 9.47387C17.3658 9.41768 17.3521 9.31896 17.4389 9.32714C17.5371 9.33641 17.4934 9.4275 17.4901 9.48532C17.4752 9.71495 17.4078 9.93811 17.2932 10.1377C17.2774 10.1639 17.2611 10.1873 17.2589 10.2195C17.23 10.2462 17.23 10.2795 17.2376 10.315C17.1901 10.3739 17.1394 10.394 17.0996 10.3139C17.0734 10.2604 17.0418 10.2751 17.0025 10.2855C16.9256 10.3057 16.8574 10.2953 16.8056 10.2288C16.769 10.184 16.7167 10.178 16.6638 10.171C16.5264 10.1508 16.394 10.1047 16.2738 10.0351C16.217 10.0068 16.1543 9.97623 16.1494 9.89823C16.1581 9.87805 16.1701 9.86605 16.1936 9.88077C16.3921 9.98496 16.5945 10.0739 16.8252 10.0924C16.9021 10.0968 16.9507 10.0766 16.9938 10.0084C17.0876 9.85732 17.1596 9.69696 17.2251 9.53277Z" fill="#BF9200"/>
<path fill-rule="evenodd" clip-rule="evenodd" d="M16.1938 9.87807C16.1824 9.88516 16.172 9.89334 16.16 9.90261C16.1044 9.94625 16.0542 9.91407 16.0029 9.89116C15.8889 9.83933 15.7677 9.80477 15.6435 9.78861C15.4957 9.76843 15.386 9.83825 15.3266 9.97734C15.3048 10.033 15.2775 10.0897 15.2475 10.141C15.1875 10.1262 15.2393 10.0619 15.2017 10.0379C15.2573 9.76516 15.4177 9.65061 15.6904 9.68825C15.8726 9.71334 16.0395 9.77552 16.1938 9.87807ZM19.0297 9.90534C19.0196 9.89587 19.0084 9.88763 18.9964 9.88079C19.1655 9.76843 19.3504 9.70352 19.55 9.68389C19.784 9.66043 19.9373 9.78861 19.988 10.0406L19.9624 10.1246C19.8964 10.1006 19.886 10.0335 19.8637 9.98007C19.8009 9.83825 19.688 9.76843 19.5337 9.79243C19.4136 9.81002 19.2967 9.84435 19.1862 9.89443C19.1355 9.91679 19.0848 9.94843 19.0297 9.90534ZM18.2169 10.0406C18.2077 10.0506 18.1991 10.0611 18.1913 10.0722C18.1275 10.0712 18.1018 10.027 18.0844 9.9768C18.0265 9.83783 17.9951 9.68929 17.9917 9.5388C18.0031 9.48752 18.0184 9.4357 18.0697 9.40625C18.1018 9.62116 18.1291 9.83716 18.2169 10.0406Z" fill="#BF9200"/>
<path fill-rule="evenodd" clip-rule="evenodd" d="M18.0708 9.40883C18.0593 9.45247 18.0751 9.50429 18.043 9.54574C17.965 9.45465 17.9464 9.01556 18.0184 8.92011C18.0255 8.89938 18.0337 8.88083 18.0419 8.86011C18.0953 9.04174 18.073 9.22447 18.0708 9.41102M16.2621 13.6852C16.2708 13.7021 16.2784 13.7212 16.2844 13.7392C16.3581 13.839 16.3106 13.9127 16.2342 13.9803C16.1906 13.9847 16.2053 13.941 16.189 13.9236C16.2091 13.8428 16.2228 13.7588 16.2621 13.6852ZM18.9037 13.7397C18.9108 13.7223 18.9179 13.7032 18.9261 13.6857C18.9653 13.7594 18.9795 13.8434 18.9991 13.9247C18.9839 13.9416 18.9991 13.9852 18.9539 13.9814C18.8775 13.9137 18.8301 13.8396 18.9037 13.7397Z" fill="#BF9200"/>
<path fill-rule="evenodd" clip-rule="evenodd" d="M16.1897 13.9249C16.1996 13.9429 16.2072 13.9619 16.217 13.9821C16.2677 14.0618 16.2628 14.1261 16.1625 14.161C16.1537 14.1436 16.1477 14.1261 16.139 14.1081C16.1565 14.0476 16.1728 13.9859 16.1897 13.9249ZM18.9737 13.9827C18.9819 13.9625 18.9896 13.9434 18.9994 13.9254C19.0157 13.9859 19.0326 14.0481 19.0506 14.1092C19.0414 14.1267 19.0354 14.1441 19.0266 14.1621C18.9263 14.1261 18.9214 14.0623 18.9737 13.9827ZM16.5743 11.5309C16.5421 11.4741 16.5361 11.4114 16.5236 11.3498C16.4837 11.2843 16.5197 11.221 16.5274 11.1561C16.5519 11.2701 16.577 11.3852 16.6005 11.5003C16.5923 11.5107 16.5923 11.5298 16.5743 11.5309ZM16.4674 12.9299C16.4788 12.9032 16.4881 12.877 16.4985 12.8519C16.5203 12.8629 16.5077 12.8901 16.5203 12.9043C16.505 12.985 16.4897 13.0696 16.4494 13.1438C16.4412 13.1154 16.4352 13.0859 16.4259 13.0554C16.4466 13.0161 16.4188 12.9599 16.4674 12.9299ZM16.8901 10.7121C16.8366 10.7192 16.7848 10.729 16.733 10.7383C16.7052 10.729 16.6768 10.7219 16.6501 10.7138C16.7068 10.6909 16.7674 10.6903 16.8285 10.6876C16.8541 10.6821 16.8846 10.6609 16.8901 10.7121ZM15.9492 14.4496C16.0501 14.4709 16.1537 14.4818 16.2492 14.5183C16.4063 14.5756 16.4843 14.5003 16.5399 14.371C16.5726 14.3667 16.6016 14.3694 16.6277 14.3912C16.6632 14.419 16.7156 14.4261 16.7276 14.4823C16.7412 14.5543 16.7952 14.5701 16.8596 14.5625C16.9883 14.5799 17.1159 14.5979 17.2474 14.5838C17.254 14.5849 17.2603 14.5874 17.2659 14.591C17.2715 14.5947 17.2764 14.5995 17.2801 14.605V14.6498C17.1338 14.6687 16.9857 14.669 16.8394 14.6509C16.703 14.6334 16.6119 14.6732 16.5563 14.8232C16.5143 14.5892 16.3408 14.5729 16.1679 14.5439C16.0741 14.5303 15.9797 14.5172 15.8936 14.4719C15.9126 14.4654 15.9306 14.4567 15.9492 14.4496ZM18.6492 14.3727C18.6399 14.4267 18.7119 14.4278 18.7157 14.4725L18.6906 14.5008C18.6634 14.5243 18.6061 14.5221 18.6083 14.5734C18.6132 14.6138 18.6639 14.6056 18.689 14.6269L18.7146 14.6547C18.6885 14.7059 18.6606 14.7567 18.6257 14.8259C18.5788 14.6803 18.4856 14.629 18.3525 14.6525C18.2565 14.6099 18.1572 14.6416 18.0596 14.6323C18.0083 14.6279 17.9554 14.6399 17.9096 14.6078C17.9941 14.5227 18.1037 14.5663 18.2008 14.5641C18.3181 14.5592 18.4316 14.5854 18.4856 14.4414C18.4954 14.4163 18.5374 14.4125 18.5614 14.3945C18.5854 14.371 18.6165 14.3672 18.6492 14.3727ZM18.671 12.9043C18.6592 12.8659 18.6478 12.8273 18.6366 12.7887C18.6143 12.7712 18.5892 12.7598 18.5756 12.7336C18.4875 12.5303 18.4294 12.3154 18.4032 12.0954C18.4005 12.0698 18.4059 12.0452 18.3988 12.0185C18.4703 11.8216 18.5706 11.6334 18.5957 11.4212C18.6083 11.4305 18.6225 11.4376 18.6356 11.4469C18.6792 11.5603 18.659 11.6809 18.6639 11.7987C18.677 12.1461 18.6792 12.4952 18.7266 12.8388C18.7206 12.8727 18.7152 12.9054 18.671 12.9043ZM18.4577 10.7389C18.3568 10.7399 18.2641 10.7094 18.1686 10.687C18.1725 10.6352 18.2052 10.6565 18.2308 10.6609C18.3334 10.6783 18.4381 10.6963 18.539 10.7116C18.5122 10.7216 18.4851 10.7307 18.4577 10.7389Z" fill="#BF9200"/>
<path fill-rule="evenodd" clip-rule="evenodd" d="M18.6932 12.8525C18.703 12.8776 18.7134 12.9048 18.7243 12.9305C18.7728 12.9605 18.745 13.0166 18.7652 13.057C18.7565 13.0865 18.7505 13.1159 18.7428 13.1454C18.7019 13.0696 18.6888 12.9872 18.6708 12.9048C18.6774 12.8874 18.6861 12.8705 18.6932 12.8525ZM18.0659 12.9326C17.9912 13.0794 17.9055 13.2228 17.9612 13.3985C17.9748 13.4214 17.9601 13.4465 17.965 13.4699C18.0081 13.6341 18.0545 13.7994 18.0632 13.9717C18.0518 14.0185 18.0533 14.0675 18.0675 14.1136C18.1335 14.1616 18.1548 14.2194 18.0905 14.2859C18.0825 14.2953 18.0749 14.305 18.0675 14.3148C18.0239 14.3197 17.9863 14.3448 17.9415 14.3399C17.8543 14.329 17.7763 14.2963 17.7686 14.1992C17.7572 14.0645 17.7375 13.9292 17.725 13.7945C17.7261 13.7121 17.7092 13.6319 17.707 13.5501C17.6972 13.5206 17.7021 13.4874 17.6906 13.4606C17.6942 13.4692 17.6966 13.4782 17.6977 13.4874C17.6977 13.5212 17.7092 13.5512 17.7119 13.5861C17.7272 13.7006 17.7092 13.8212 17.7485 13.9341C17.7474 14.0203 17.767 14.1054 17.7632 14.1932C17.7615 14.3088 17.6825 14.3972 17.5886 14.3923C17.5003 14.389 17.4272 14.3028 17.4261 14.1932C17.4245 14.0994 17.4386 14.0039 17.4463 13.9106C17.4763 13.8043 17.467 13.6946 17.4785 13.5861C17.4828 13.5283 17.5085 13.4726 17.5025 13.4143C17.5063 13.4683 17.4905 13.5185 17.479 13.5697C17.485 13.6445 17.4615 13.7181 17.4648 13.7923C17.4479 13.9237 17.4332 14.0541 17.4239 14.1872C17.4168 14.2821 17.3345 14.3421 17.2352 14.3405C17.1954 14.3394 17.1615 14.3181 17.1228 14.3154L17.0994 14.2865C17.0366 14.2199 17.0557 14.1626 17.1217 14.1141C17.1321 14.0694 17.1414 14.0214 17.1523 13.9766C17.1425 13.8599 17.1375 13.7443 17.1839 13.6325C17.1954 13.6003 17.1839 13.5834 17.1485 13.5845C17.1403 13.5756 17.1329 13.5661 17.1261 13.5561C17.1703 13.4874 17.2145 13.4181 17.2592 13.351C17.2805 13.3007 17.2925 13.2469 17.2946 13.1923C17.2963 13.0996 17.3066 13.0074 17.3426 12.919C17.3575 12.887 17.3832 12.8613 17.4152 12.8465C17.5952 12.9774 17.5952 12.9774 17.7757 12.8437C17.8053 12.8597 17.8296 12.884 17.8455 12.9136C17.8715 12.9793 17.8875 13.0487 17.893 13.1192C17.8939 13.0205 17.9245 12.9243 17.9808 12.8432C17.9939 12.8277 18.0125 12.8179 18.0326 12.8159C18.0795 12.8236 18.1046 12.8508 18.1068 12.8983C18.1008 12.9196 18.091 12.9365 18.0659 12.9326Z" fill="#BF9200"/>
<path fill-rule="evenodd" clip-rule="evenodd" d="M18.0602 13.6139C18.0177 13.5594 17.9757 13.5043 17.932 13.4498C17.9413 13.4318 17.9506 13.4154 17.9604 13.3985C18.0122 13.4552 18.0509 13.5179 18.0853 13.5856L18.0602 13.6139ZM17.3844 10.1378C17.4897 10.021 17.4897 9.86885 17.5131 9.72594C17.5366 9.59012 17.5453 9.45321 17.56 9.3103C17.6151 9.32939 17.6004 9.36212 17.5987 9.38721C17.5835 9.60812 17.5622 9.82903 17.4984 10.0423C17.4891 10.0756 17.4755 10.1078 17.4891 10.1432C17.4793 10.1525 17.4722 10.1623 17.4635 10.1699H17.4133C17.3844 10.1781 17.3773 10.165 17.3844 10.1378ZM17.6969 9.87267C17.6598 9.69594 17.6795 9.51921 17.6713 9.32721C17.7427 9.36594 17.7182 9.40848 17.7193 9.44285C17.6746 9.58412 17.7117 9.7303 17.6969 9.87267Z" fill="#BF9200"/>
<path fill-rule="evenodd" clip-rule="evenodd" d="M17.3844 10.1377C17.3939 10.1489 17.4039 10.1597 17.4144 10.1699C17.3599 10.2244 17.2993 10.267 17.2284 10.2959C17.1946 10.2724 17.1968 10.2479 17.2284 10.2244C17.2939 10.2201 17.3337 10.1688 17.3844 10.1377ZM16.8903 10.7121C16.8701 10.7039 16.8488 10.6968 16.8286 10.6875C16.9857 10.6428 17.1412 10.6002 17.2988 10.5566C17.3255 10.5457 17.3337 10.5555 17.3337 10.5817C17.1915 10.6424 17.0427 10.6861 16.8903 10.7121ZM17.9501 10.6171C17.8472 10.5958 17.7511 10.5495 17.6703 10.4824C17.673 10.4661 17.6866 10.465 17.6986 10.4601L17.985 10.5882C17.9877 10.615 17.9806 10.6291 17.9501 10.6171Z" fill="#BF9200"/>
<path fill-rule="evenodd" clip-rule="evenodd" d="M17.3337 10.5813C17.3224 10.5726 17.3107 10.5643 17.2988 10.5562L17.5437 10.4319C17.5496 10.4339 17.5549 10.4372 17.5594 10.4414C17.5639 10.4456 17.5675 10.4508 17.5699 10.4564C17.5023 10.5219 17.4177 10.553 17.3337 10.5813ZM17.9501 10.6173L17.985 10.589C18.0663 10.613 18.1497 10.6381 18.2305 10.661C18.2103 10.6708 18.189 10.6779 18.1683 10.6872C18.0941 10.6708 18.0172 10.6566 17.9501 10.6173Z" fill="#BF9200"/>
<path fill-rule="evenodd" clip-rule="evenodd" d="M17.5691 10.4563C17.5593 10.4481 17.5527 10.4399 17.5429 10.4318C17.6144 10.3325 17.6487 10.4285 17.6978 10.4601L17.6695 10.4825C17.6373 10.4732 17.6127 10.429 17.5691 10.4563ZM17.9335 12.5836C17.9585 12.5012 17.964 12.4189 17.964 12.3327C17.9618 11.8407 17.964 11.3503 17.9618 10.8583C17.9618 10.8098 17.9853 10.7547 17.9335 10.7127C17.9264 10.7094 17.9236 10.7061 17.9264 10.7012C17.9285 10.6963 17.9307 10.6941 17.9335 10.6941C18.1407 10.7356 18.3425 10.8054 18.558 10.8054C18.6147 10.8065 18.6175 10.843 18.6158 10.885C18.5885 11.5325 18.3769 12.1047 17.9335 12.5836ZM17.2527 10.7121C17.1911 10.7236 17.2009 10.7738 17.2009 10.8136C17.2009 11.3449 17.2036 11.8772 17.1987 12.4085C17.1987 12.4625 17.2364 12.5045 17.2309 12.5569C16.8824 12.1794 16.6904 11.7278 16.6053 11.2287C16.5856 11.1141 16.5829 10.9963 16.5736 10.879C16.5676 10.8256 16.5873 10.8021 16.644 10.8021C16.8447 10.7978 17.0362 10.7372 17.2282 10.6887C17.2555 10.6756 17.2582 10.6909 17.2527 10.7121ZM16.5218 12.9043C16.5153 12.8866 16.508 12.8691 16.5 12.8519C16.5873 12.4156 16.578 11.9727 16.5764 11.5303L16.6025 11.5003C16.6653 11.6727 16.7291 11.8439 16.7918 12.0152C16.806 12.0425 16.7907 12.067 16.7945 12.0932C16.7629 12.3136 16.7073 12.5279 16.6178 12.7336C16.6058 12.7598 16.5796 12.7712 16.5584 12.7876C16.5458 12.8269 16.5344 12.8672 16.5218 12.9043ZM18.0655 12.9327C18.0742 12.9234 18.0807 12.9136 18.0895 12.9043C18.1953 12.8699 18.1609 12.7838 18.1609 12.7118C18.1587 12.637 18.1025 12.6398 18.0502 12.6359C18.0409 12.6335 18.0327 12.6282 18.0267 12.6207C18.0207 12.6132 18.0173 12.6041 18.0169 12.5945C18.1538 12.4118 18.2831 12.2203 18.3949 12.0185C18.4058 12.0349 18.4167 12.0529 18.4282 12.0692C18.3912 12.2066 18.3668 12.3469 18.3551 12.4887C18.3415 12.6763 18.4271 12.7505 18.6049 12.7167C18.6147 12.739 18.624 12.7636 18.6333 12.7887C18.5367 12.9479 18.5367 12.9479 18.3933 12.8083C18.3627 12.7789 18.33 12.7499 18.282 12.7052L18.2231 13.1498L18.0655 12.9327Z" fill="#BF9200"/>
<path fill-rule="evenodd" clip-rule="evenodd" d="M16.5557 12.7869L16.5829 12.7165C16.704 12.7667 16.7766 12.7018 16.8388 12.6113C16.8677 12.5747 16.8808 12.5251 16.9255 12.5027C16.9588 12.4967 16.9948 12.4984 17.0209 12.4684C17.0281 12.463 17.0366 12.4599 17.0455 12.4593C17.0544 12.4587 17.0633 12.4607 17.0711 12.4651C17.0978 12.4984 17.1355 12.5229 17.1442 12.5698C17.1438 12.5816 17.1396 12.5928 17.1322 12.602C17.094 12.6298 17.0346 12.6309 17.0166 12.686C16.986 12.7182 16.9849 12.7793 16.9222 12.7755C16.908 12.758 16.9293 12.6849 16.8693 12.7394C16.823 12.7782 16.7796 12.8203 16.7395 12.8655C16.6724 12.944 16.6211 12.9587 16.5884 12.8393C16.5824 12.8202 16.5677 12.8044 16.5557 12.7869Z" fill="#BF9200"/>
<path fill-rule="evenodd" clip-rule="evenodd" d="M16.9365 12.5158C16.9223 12.5595 16.9076 12.6015 16.895 12.6462C16.8541 12.6304 16.8405 12.5938 16.8378 12.5535C16.8227 12.3913 16.7967 12.2304 16.7598 12.0718C16.769 12.0522 16.7799 12.0347 16.7892 12.0146C16.8492 12.1198 16.9109 12.2224 16.9709 12.3277C16.977 12.3371 16.9804 12.348 16.9807 12.3593C16.9665 12.3969 16.9681 12.4362 16.9692 12.476C16.9649 12.4946 16.9567 12.5087 16.9365 12.5158ZM17.1258 12.578C17.1312 12.5731 17.1372 12.5715 17.1432 12.5682C17.2343 12.6609 17.3249 12.7515 17.4138 12.8447C17.4161 12.8757 17.4082 12.9065 17.3914 12.9326C17.3249 12.9058 17.2829 12.8262 17.1967 12.8447C17.1798 12.8385 17.1658 12.8263 17.1574 12.8104C17.1738 12.7291 17.0761 12.6631 17.1258 12.578ZM18.0165 12.5944C18.0234 12.5985 18.0294 12.6041 18.0339 12.6107C18.0678 12.6844 18.0492 12.7564 18.0318 12.8289L18.0067 12.8578C17.9221 12.836 17.8616 12.8938 17.7967 12.9337C17.7754 12.9058 17.7743 12.8742 17.7727 12.8431C17.8534 12.7607 17.9369 12.6778 18.0165 12.5944ZM17.2556 12.5944C17.369 12.6227 17.429 12.7067 17.4787 12.8038C17.3881 12.7526 17.3221 12.6735 17.2556 12.5944ZM17.6679 10.5844C17.5894 10.5266 17.5338 10.6247 17.4618 10.6127C17.5272 10.5767 17.5758 10.4262 17.6679 10.5844ZM17.5038 12.8017C17.5719 12.8747 17.6379 12.8322 17.7034 12.7957C17.6849 12.8529 17.6456 12.8987 17.5894 12.8987C17.5479 12.8971 17.5059 12.8573 17.5038 12.8017Z" fill="#BF9200"/>
<path fill-rule="evenodd" clip-rule="evenodd" d="M16.9639 12.3708C16.965 12.3555 16.9677 12.3424 16.9699 12.3283C17.0032 12.3741 17.0348 12.4194 17.0697 12.4652C17.0604 12.4745 17.0517 12.4843 17.0435 12.4946C16.9775 12.499 16.9677 12.4461 16.9497 12.4035C16.9512 12.3915 16.9561 12.3801 16.9639 12.3708ZM17.7766 12.7254C17.8072 12.6752 17.8252 12.6081 17.9064 12.6223C17.8699 12.6664 17.8383 12.7155 17.7766 12.7254ZM17.9337 10.6919V10.711C17.8873 10.6974 17.8312 10.6995 17.8072 10.6406C17.8538 10.6435 17.8982 10.6615 17.9337 10.6919ZM17.253 10.7121C17.2453 10.705 17.2372 10.6968 17.2284 10.6897C17.2666 10.6564 17.3103 10.6406 17.3588 10.6684C17.331 10.7012 17.2901 10.7039 17.253 10.7121ZM17.1766 12.799L17.2012 12.8279C17.2732 12.9048 17.2786 13.0046 17.2955 13.0995C17.3048 13.1394 17.301 13.1814 17.331 13.2163C17.3299 13.2741 17.2901 13.3095 17.2579 13.351C17.2279 13.2064 17.2055 13.0603 17.1232 12.9326C17.0986 12.9397 17.0877 12.9234 17.0801 12.9015C17.0801 12.8366 17.1019 12.7935 17.1766 12.799Z" fill="#BF9200"/>
<path fill-rule="evenodd" clip-rule="evenodd" d="M17.0976 12.9015L17.1238 12.9325C17.0818 12.9947 17.0365 13.1087 16.9808 13.0973C16.9023 13.0782 16.9536 12.9609 16.9323 12.8905C16.9214 12.8535 16.9252 12.8131 16.9214 12.7755C16.9356 12.7318 16.9508 12.6882 16.965 12.6467C17.0288 12.6745 17.0228 12.734 17.0228 12.7891C17.0228 12.8442 17.0381 12.8851 17.0976 12.9015ZM18.5512 15.152C18.5136 15.1596 18.4683 15.1771 18.4618 15.1155C18.4579 15.0587 18.4945 15.0265 18.5359 15.0009C18.6118 14.9551 18.6019 15.0565 18.6538 15.0805C18.6619 14.9895 18.7634 14.9458 18.7334 14.8465C18.7312 14.8405 18.753 14.822 18.7678 14.8155C18.7716 14.8133 18.7928 14.8264 18.7939 14.8335C18.7999 14.9316 18.9172 14.9218 18.9461 14.996C18.9527 15.0151 18.9827 15.0222 18.9881 15.0091C19.0421 14.9071 19.1228 14.9496 19.2068 14.9742C19.1927 14.9027 19.1796 14.8455 19.1681 14.7887C19.1567 14.732 19.1376 14.6835 19.0645 14.7129C19.0334 14.7255 19.0105 14.7118 19.0072 14.684C18.999 14.648 19.0367 14.6496 19.059 14.6431C19.1648 14.6158 19.2096 14.6715 19.2303 14.7669C19.2456 14.8536 19.2287 14.9775 19.3874 14.9169C19.3956 14.9131 19.419 14.9322 19.4256 14.9453C19.4365 14.9687 19.4087 14.9796 19.3983 14.9785C19.2576 14.9698 19.1681 15.1384 19.0159 15.0871C18.9898 15.08 18.9783 15.0969 18.9696 15.1204C18.9319 15.212 18.8872 15.224 18.8059 15.1547C18.7318 15.0925 18.6625 15.1285 18.6123 15.2005C18.5627 15.2169 18.5818 15.1542 18.5512 15.152ZM16.9639 15.2889C17.0687 15.2524 17.1363 15.2082 17.0779 15.1035C17.0594 15.0696 17.0714 15.0385 17.1047 15.0287C17.1352 15.0173 17.1412 15.0511 17.1521 15.0745C17.163 15.0985 17.1707 15.128 17.2039 15.1182C17.2383 15.11 17.2263 15.0773 17.2247 15.0533C17.2219 15.0238 17.2088 14.9884 17.2454 14.972C17.2879 14.9545 17.2879 15.0031 17.3087 15.0195C17.3714 15.062 17.4439 15.0353 17.511 15.0418C17.571 15.0516 17.643 15.0353 17.6207 15.1378C17.6774 15.1302 17.6736 15.0822 17.7041 15.0653C17.739 15.0467 17.7838 15.0173 17.8099 15.0467C17.8339 15.0751 17.8318 15.128 17.8318 15.1711C17.8328 15.2191 17.7919 15.2191 17.757 15.2207C17.6943 15.2218 17.631 15.2093 17.589 15.2845C17.5688 15.3195 17.5241 15.3173 17.4865 15.2862C17.3539 15.182 17.2432 15.1782 17.1161 15.2725C17.0796 15.3009 17.0398 15.3075 16.9639 15.2889ZM16.8014 15.1935C16.8254 15.0609 16.8488 14.9595 16.8423 14.8542C16.8401 14.8176 16.8527 14.7898 16.8848 14.7898C16.9394 14.7898 16.9138 14.8335 16.9099 14.8569C16.8968 14.9644 16.8805 15.0707 16.8625 15.1782C16.8554 15.2147 16.8281 15.2393 16.7932 15.2502C16.7588 15.26 16.7365 15.2404 16.7158 15.2153C16.6339 15.104 16.5096 15.0729 16.3918 15.1427C16.3525 15.1662 16.3154 15.1842 16.257 15.164C16.3367 15.1204 16.3945 15.0707 16.3574 14.9742C16.3503 14.9562 16.3656 14.9267 16.3885 14.9229C16.4163 14.9169 16.4207 14.9453 16.4234 14.9665C16.4294 15.0053 16.4348 15.0445 16.4834 15.0538C16.5068 15.0582 16.5276 15.0582 16.5434 15.0413C16.5565 15.0249 16.5374 15.0124 16.5276 14.9987C16.455 14.8858 16.605 14.9185 16.6274 14.858C16.6454 14.8133 16.7038 14.8569 16.7048 14.8956C16.707 14.9453 16.8543 14.996 16.7092 15.0462C16.7343 15.0882 16.7605 15.128 16.8014 15.1935ZM15.8567 14.6551C15.9161 14.6164 15.9827 14.6065 16.0247 14.6289C16.0585 14.648 16.017 14.7058 16.0067 14.7473C16.0045 14.7555 16.0007 14.7636 16.0001 14.7729C15.9919 14.8264 15.9259 14.9027 15.9887 14.9316C16.0819 14.9709 16.0328 14.8542 16.0683 14.8242C16.0836 14.8133 16.1043 14.8095 16.1332 14.7975C16.1305 14.8264 16.1316 14.8427 16.1294 14.8591C16.1196 14.9049 16.0727 14.9627 16.1578 14.9818C16.2374 15.0009 16.2232 14.9496 16.2232 14.8989C16.2238 14.8607 16.2701 14.8564 16.3039 14.8547C16.3067 14.8607 16.311 14.8651 16.3099 14.8689C16.2543 15.0991 16.2903 15.0767 16.0634 15.0222C16.0007 15.0085 15.939 14.9889 15.8768 14.9698C15.8447 14.9622 15.7988 14.9665 15.795 14.9207C15.7928 14.8727 15.825 14.8422 15.8698 14.8236C15.8944 14.8178 15.9172 14.806 15.9363 14.7893C15.9903 14.7271 15.9619 14.6725 15.8567 14.6551ZM17.9807 15.2229C17.8759 15.1956 17.9179 15.1204 17.9545 15.0882C18.0259 15.0298 18.027 14.9665 17.9981 14.8935C17.9823 14.8525 17.9998 14.8313 18.0303 14.8264C18.0679 14.822 18.0614 14.8596 18.0647 14.8831C18.0734 14.9485 18.0788 15.0118 18.0876 15.0762C18.0903 15.1111 18.0914 15.1531 18.1438 15.1389C18.1819 15.1285 18.1901 15.1024 18.1738 15.0685C18.1612 15.0385 18.1459 15.0064 18.1879 14.9955C18.2447 14.9818 18.2316 15.0342 18.2414 15.0631C18.2758 15.1749 18.2223 15.212 18.1181 15.2055C18.0778 15.2551 18.0259 15.2153 17.9807 15.2229ZM18.2523 15.2889C18.3336 15.2093 18.3908 15.1504 18.3047 15.0702C18.2796 15.0495 18.3019 15.0091 18.3308 14.996C18.3614 14.9845 18.369 15.0195 18.3832 15.0407C18.4552 15.1591 18.4268 15.2376 18.2523 15.2889ZM16.9748 14.7925C17.0147 14.8138 17.0501 14.8247 17.0327 14.8695C17.0005 14.9469 17.0005 15.0293 16.9934 15.1089C16.9912 15.1367 16.9934 15.1787 16.9498 15.17C16.905 15.1618 16.9274 15.1231 16.9312 15.0969C16.9356 15.0445 16.9427 14.9944 16.9498 14.9436C16.9574 14.8967 16.9639 14.8504 16.9748 14.7925Z" fill="#BF9200"/>
<path fill-rule="evenodd" clip-rule="evenodd" d="M18.1149 15.2311C18.141 15.2409 18.1678 15.2622 18.1481 15.2873C18.1149 15.3249 18.0625 15.2944 18.0189 15.3009C17.9905 15.3069 17.9856 15.2704 18.0074 15.2453C18.0396 15.2213 18.0778 15.2278 18.1149 15.2311ZM18.5512 15.152C18.5714 15.1684 18.5894 15.1853 18.6112 15.2C18.5872 15.2551 18.5452 15.2606 18.4918 15.2513C18.5038 15.2104 18.5801 15.212 18.5512 15.152ZM17.9485 14.8853C17.9425 14.9098 17.9289 14.9153 17.9125 14.9098C17.9027 14.9071 17.8912 14.8929 17.8912 14.8875C17.8923 14.8662 17.9081 14.8575 17.9278 14.864C17.9365 14.8673 17.943 14.8776 17.9485 14.8853ZM17.9556 14.9884C17.9452 15.0009 17.9338 15.0156 17.9163 15.0058C17.901 14.996 17.8885 14.9829 17.8994 14.9649C17.9081 14.9486 17.9207 14.936 17.9387 14.9486C17.9534 14.9551 17.9643 14.9687 17.9556 14.9884ZM19.3399 15.0729C19.3323 15.0969 19.3165 15.1018 19.2985 15.1002C19.2821 15.098 19.2619 15.0904 19.2734 15.068C19.2794 15.0566 19.2969 15.0467 19.311 15.0446C19.3307 15.0424 19.3383 15.0582 19.3399 15.0729ZM15.9112 15.0413C15.9014 15.0609 15.8889 15.0729 15.8698 15.0636C15.861 15.0582 15.8518 15.0435 15.8545 15.0336C15.8583 15.0178 15.8747 15.008 15.8921 15.0178C15.9014 15.0211 15.9063 15.0342 15.9112 15.0413ZM16.1665 15.1133C16.1539 15.1215 16.1452 15.1329 16.137 15.134C16.1163 15.1384 16.1043 15.1231 16.1109 15.1062C16.1141 15.0975 16.1294 15.0898 16.1392 15.0898C16.1463 15.0904 16.1539 15.1035 16.1665 15.1133ZM16.2052 14.3944C16.2425 14.3851 16.2814 14.3853 16.3186 14.395C16.3557 14.4046 16.3899 14.4233 16.4179 14.4495C16.3394 14.462 16.2712 14.4347 16.2052 14.3944ZM15.8949 14.3016C15.9295 14.2916 15.9663 14.2918 16.0008 14.3022C16.0353 14.3125 16.0662 14.3326 16.0896 14.36C16.0214 14.3726 15.9636 14.3464 15.8949 14.3016ZM18.7721 14.4418C18.8327 14.3944 18.9063 14.3835 18.9799 14.3802C18.9821 14.3911 18.9865 14.4015 18.9892 14.4124L18.783 14.4729L18.7721 14.4418ZM19.0836 14.3671C19.1447 14.3033 19.2063 14.2891 19.2947 14.2946C19.2671 14.3216 19.2338 14.3421 19.1973 14.3547C19.1608 14.3672 19.1219 14.3715 19.0836 14.3671ZM16.8385 14.6055H17.2558C17.1192 14.6431 16.975 14.6431 16.8385 14.6055ZM17.4876 13.5582C17.4804 13.5592 17.4733 13.5605 17.4663 13.562L17.4996 13.3291C17.5176 13.4316 17.5263 13.4971 17.4876 13.5582ZM17.6774 13.4786V13.3596C17.709 13.3918 17.6959 13.4235 17.7014 13.4529C17.7139 13.4802 17.6992 13.4829 17.6774 13.4786Z" fill="#BF9200"/>
<path fill-rule="evenodd" clip-rule="evenodd" d="M17.6775 13.4785C17.6852 13.4697 17.6932 13.4612 17.7015 13.4529C17.7109 13.4644 17.7175 13.4781 17.7206 13.4927C17.7238 13.5073 17.7234 13.5225 17.7195 13.5369C17.7122 13.5449 17.7044 13.5524 17.696 13.5592C17.6747 13.5369 17.6731 13.5074 17.6775 13.4785ZM16.9586 14.5132C16.8818 14.5299 16.8025 14.5316 16.7251 14.5182C16.8069 14.4543 16.874 14.4522 16.9586 14.5132ZM17.2373 14.5263C17.1816 14.5525 17.1216 14.5487 17.0584 14.5525C17.0676 14.5018 17.0993 14.5045 17.1282 14.5045C17.1615 14.5214 17.2056 14.492 17.2373 14.5263Z" fill="#BF9200"/>
<path fill-rule="evenodd" clip-rule="evenodd" d="M17.237 14.5263C17.1994 14.5203 17.1596 14.5263 17.1279 14.5045C17.1716 14.5018 17.2136 14.499 17.2556 14.499C17.267 14.499 17.2812 14.5105 17.261 14.5214C17.255 14.5263 17.2452 14.5236 17.237 14.5263ZM18.4452 14.505C18.3769 14.5296 18.303 14.5335 18.2325 14.5165C18.3083 14.4445 18.3754 14.4728 18.4452 14.505ZM18.0656 14.5045C18.0917 14.499 18.1136 14.5099 18.1447 14.5416C18.0812 14.5564 18.0146 14.551 17.9543 14.5263C17.9865 14.4919 18.0301 14.5214 18.0656 14.5045Z" fill="#BF9200"/>
<path fill-rule="evenodd" clip-rule="evenodd" d="M18.0655 14.5048C18.0311 14.5266 17.9918 14.5206 17.9542 14.5266C17.9433 14.5206 17.8958 14.5238 17.9329 14.5048C17.9662 14.4846 18.0191 14.502 18.0655 14.5048ZM16.9636 12.3884C16.9353 12.4097 16.9473 12.4413 16.9375 12.4675C16.9189 12.4326 16.9064 12.396 16.9238 12.36C16.9309 12.3426 16.9511 12.3622 16.9636 12.3709V12.3884ZM16.6358 14.9346C16.6467 14.9466 16.6582 14.9537 16.6604 14.9635C16.6718 14.9902 16.6489 14.9902 16.6336 14.988C16.6249 14.988 16.6113 14.9733 16.6124 14.9657C16.6135 14.9558 16.6249 14.9466 16.6358 14.9346Z" fill="#BF9200"/>
</svg>
