<svg width="256" height="90" viewBox="0 0 256 90" fill="none" xmlns="http://www.w3.org/2000/svg">
<path d="M43.8814 15.6821C44.2997 15.4085 45.1817 14.915 46.3957 14.8436C48.1955 14.7386 49.477 15.6345 49.8397 15.909C48.4453 14.248 42.7645 7.87447 33.2661 6.74268C27.738 6.08461 23.2961 7.48598 20.975 8.41857C19.0196 10.0013 17.0643 11.585 15.1089 13.1677L29.0769 27.1358C29.2662 27.2775 29.8718 27.6947 30.7528 27.6947C30.9887 27.6947 31.7241 27.665 32.4287 27.1358C36.2453 23.3182 40.0638 19.4996 43.8814 15.6821Z" fill="url(#paint0_linear_208_4498)"/>
<path d="M76.8448 13.7267C72.4683 18.01 68.0917 22.2934 63.7152 26.5768C63.5675 26.7165 62.738 27.4727 61.4804 27.4152C60.3991 27.3657 59.7034 26.7462 59.525 26.5768C58.5389 25.1913 54.8283 20.1041 49.3022 15.4511C43.4777 10.5463 35.6364 6.12322 26.8407 7.02211C25.038 7.20645 23.0687 7.62765 20.9746 8.41852C23.7932 6.30458 33.686 -0.571412 47.7928 0.0380922C64.5933 0.764541 74.8716 11.5681 76.8448 13.7267Z" fill="#004693"/>
<path d="M15.9431 47.8165C15.6577 47.4062 15.1394 46.538 15.0343 45.3269C14.8777 43.5311 15.738 42.2249 16.0016 41.8542C14.3812 43.2953 8.17022 49.1544 7.30799 58.6805C6.80651 64.2255 8.33275 68.6248 9.33174 70.9191C10.97 72.8289 12.6072 74.7387 14.2454 76.6485L27.8121 62.291C27.9489 62.0977 28.3483 61.4803 28.3235 60.5992C28.3165 60.3633 28.266 59.629 27.7179 58.9392C23.7914 55.2336 19.8667 51.525 15.9431 47.8165Z" fill="url(#paint1_linear_208_4498)"/>
<path d="M13.054 14.9219C17.4593 19.1755 21.8656 23.4282 26.2708 27.6818C26.4145 27.8255 27.1935 28.6332 27.1717 29.8919C27.1529 30.9741 26.5533 31.6867 26.3898 31.87C25.033 32.8948 20.0529 36.7481 15.5574 42.4041C10.8202 48.3653 6.62004 56.3285 7.76868 65.0954C8.00356 66.8922 8.48026 68.8496 9.3306 70.9199C7.13737 68.1628 -0.0161196 58.4692 0.193986 44.3505C0.443734 27.5351 10.952 16.9555 13.054 14.9219Z" fill="#004693"/>
<path d="M49.8488 73.6561C49.4564 73.9653 48.6209 74.5352 47.4188 74.7126C45.6358 74.9762 44.2801 74.1962 43.8945 73.9554C45.4297 75.4866 51.6516 81.3349 61.2114 81.6243C66.7762 81.7927 71.0764 80.0049 73.3073 78.8711C75.116 77.1219 76.9237 75.3726 78.7324 73.6234L63.588 60.9418C63.3878 60.8169 62.7465 60.4551 61.8694 60.5334C61.6346 60.5543 60.9051 60.6484 60.2491 61.2381C56.7813 65.3768 53.3146 69.5164 49.8488 73.6561Z" fill="url(#paint2_linear_208_4498)"/>
<path d="M17.1865 78.5115C21.1686 73.8585 25.1497 69.2064 29.1318 64.5534C29.2666 64.4018 30.0267 63.5752 31.2844 63.5217C32.3666 63.4761 33.1129 64.0311 33.3062 64.1837C34.4102 65.4771 38.5548 70.2163 44.4705 74.3649C50.7043 78.7365 58.9053 82.451 67.588 80.7801C69.368 80.4372 71.2926 79.8445 73.3084 78.8713C70.6871 81.225 61.4395 88.9474 47.3347 89.5837C30.5332 90.3428 19.3421 80.4877 17.1865 78.5115Z" fill="#004693"/>
<path d="M83.4505 29.4418V59.0567C83.4505 64.3054 77.4625 67.3063 73.2574 64.1637L53.4113 49.3304C49.9961 46.7775 50.0001 41.6576 53.4203 39.1106L73.2663 24.3289C77.4714 21.1951 83.4505 24.1971 83.4505 29.4418Z" fill="#004693"/>
<path d="M48.891 21.2827L52.0247 32.2012C52.5797 34.1367 50.6898 35.8761 48.8067 35.1625L39.9199 31.7939C38.3907 31.2141 37.8505 29.3261 38.8416 28.0249L44.5947 20.4749C45.8137 18.8754 48.336 19.3491 48.891 21.2827Z" fill="#004693"/>
<path d="M49.8667 69.0577L51.9202 57.8854C52.2839 55.9053 50.2334 54.3582 48.4286 55.2522L39.9134 59.4721C38.4476 60.1986 38.0948 62.1302 39.2078 63.3284L45.6695 70.2807C47.0392 71.7544 49.503 71.0369 49.8667 69.0577Z" fill="#004693"/>
<path d="M125.184 26.7179V30.8652H120.314V26.4557C120.314 22.3085 118.668 19.8077 114.916 19.8077C111.229 19.8077 109.517 22.3085 109.517 26.4557V50.8108C109.517 54.958 111.229 57.4587 114.916 57.4587C118.668 57.4587 120.314 54.958 120.314 50.8108V44.8204H125.184V50.5467C125.184 57.5243 121.893 62.1323 114.785 62.1323C107.741 62.1323 104.45 57.5243 104.45 50.5467V26.7179C104.45 19.7403 107.741 15.1323 114.785 15.1323C121.893 15.1323 125.184 19.7403 125.184 26.7179Z" fill="black"/>
<path d="M135.056 52.3902L133.278 61.6718H128.539L137.36 15.5952H144.798L153.619 61.6718H148.485L146.707 52.3902H135.056ZM135.713 47.9789H145.982L140.782 21.3853L135.713 47.9789Z" fill="black"/>
<path d="M177.973 26.7179V30.8652H173.102V26.4557C173.102 22.3085 171.458 19.8077 167.706 19.8077C164.019 19.8077 162.309 22.3085 162.309 26.4557V50.8108C162.309 54.958 164.021 57.4587 167.706 57.4587C171.458 57.4587 173.102 54.958 173.102 50.8108V44.8204H177.973V50.5467C177.973 57.5243 174.681 62.1323 167.573 62.1323C160.529 62.1323 157.238 57.5243 157.238 50.5467V26.7179C157.238 19.7403 160.529 15.1323 167.573 15.1323C174.681 15.1323 177.973 19.7403 177.973 26.7179Z" fill="black"/>
<path d="M187.78 40.9356V61.6698H182.646V15.5933H187.78V36.3275H199.102V15.5933H204.236V61.6698H199.102V40.9356H187.78Z" fill="black"/>
<path d="M209.107 26.7179C209.107 19.6748 212.595 15.1323 219.638 15.1323C226.747 15.1323 230.237 19.6748 230.237 26.7179V50.5467C230.237 57.5243 226.749 62.1323 219.638 62.1323C212.595 62.1323 209.107 57.5243 209.107 50.5467V26.7179ZM214.174 50.809C214.174 55.0218 215.952 57.4569 219.638 57.4569C223.39 57.4569 225.103 55.0218 225.103 50.809V26.4539C225.103 22.3066 223.39 19.8059 219.638 19.8059C215.952 19.8059 214.174 22.3066 214.174 26.4539V50.809Z" fill="black"/>
<path d="M234.712 26.7179C234.712 19.6748 238.2 15.1323 245.243 15.1323C252.352 15.1323 255.841 19.6748 255.841 26.7179V50.5467C255.841 57.5243 252.354 62.1323 245.243 62.1323C238.2 62.1323 234.712 57.5243 234.712 50.5467V26.7179ZM239.781 50.809C239.781 55.0218 241.558 57.4569 245.245 57.4569C248.997 57.4569 250.709 55.0218 250.709 50.809V26.4539C250.709 22.3066 248.997 19.8059 245.245 19.8059C241.558 19.8059 239.781 22.3066 239.781 26.4539V50.809Z" fill="black"/>
<path d="M119.569 71.4865V74.4165H118.557V71.4865L116.36 67.2065H117.486L119.062 70.4596L120.638 67.2065H121.764L119.569 71.4865Z" fill="black"/>
<path d="M123.564 74.1621C123.18 73.943 122.885 73.6311 122.675 73.23C122.465 72.829 122.359 72.3629 122.359 71.8337V69.7913C122.359 69.2621 122.463 68.7979 122.675 68.395C122.885 67.9939 123.182 67.6819 123.564 67.4628C123.949 67.2437 124.391 67.1323 124.894 67.1323C125.397 67.1323 125.839 67.2419 126.223 67.4628C126.608 67.6819 126.903 67.9939 127.113 68.395C127.323 68.796 127.428 69.2621 127.428 69.7913V71.8337C127.428 72.3629 127.323 72.829 127.113 73.23C126.903 73.6311 126.606 73.943 126.223 74.1621C125.839 74.3812 125.397 74.4927 124.894 74.4927C124.393 74.4908 123.949 74.3812 123.564 74.1621ZM125.681 73.2932C125.908 73.1595 126.082 72.9701 126.207 72.7231C126.331 72.4762 126.392 72.1921 126.392 71.8671V69.7541C126.392 69.4292 126.331 69.1451 126.207 68.8981C126.082 68.6512 125.908 68.4618 125.681 68.3281C125.455 68.1944 125.193 68.1276 124.896 68.1276C124.599 68.1276 124.337 68.1944 124.11 68.3281C123.884 68.4618 123.709 68.653 123.585 68.8981C123.46 69.1451 123.399 69.4292 123.399 69.7541V71.8671C123.399 72.1921 123.46 72.4762 123.585 72.7231C123.709 72.9701 123.884 73.1595 124.11 73.2932C124.337 73.4269 124.599 73.4937 124.896 73.4937C125.193 73.4937 125.455 73.4287 125.681 73.2932Z" fill="black"/>
<path d="M130.128 74.1769C129.749 73.9671 129.462 73.6607 129.263 73.2597C129.064 72.8586 128.966 72.374 128.966 71.8095V67.2065H129.978V71.8429C129.978 72.3684 130.11 72.7751 130.375 73.0629C130.639 73.3507 131.014 73.4936 131.497 73.4936C131.983 73.4936 132.358 73.3507 132.626 73.0629C132.891 72.7751 133.025 72.3684 133.025 71.8429V67.2065H134.037V71.8095C134.037 72.374 133.938 72.8586 133.74 73.2597C133.541 73.6607 133.251 73.9671 132.873 74.1769C132.494 74.3868 132.035 74.4926 131.498 74.4926C130.962 74.4907 130.507 74.3868 130.128 74.1769Z" fill="black"/>
<path d="M135.721 67.2009H136.733V74.4164H135.721V67.2009ZM136.161 70.4058H138.621C138.812 70.4058 138.983 70.3593 139.132 70.2665C139.28 70.1737 139.395 70.0418 139.477 69.8729C139.559 69.702 139.598 69.5071 139.598 69.2861C139.598 69.0651 139.557 68.8683 139.477 68.6975C139.395 68.5267 139.282 68.3949 139.135 68.3039C138.989 68.211 138.818 68.1646 138.623 68.1646H136.163V67.2028H138.582C138.998 67.2028 139.366 67.2882 139.681 67.4609C139.997 67.6336 140.242 67.8768 140.415 68.1925C140.587 68.5081 140.675 68.872 140.675 69.2861C140.675 69.7002 140.587 70.0641 140.411 70.3798C140.235 70.6954 139.989 70.9387 139.674 71.1113C139.358 71.284 138.994 71.3694 138.58 71.3694H136.161V70.4058ZM138.125 71.1448L139.132 70.9164L140.977 74.4183H139.778L138.125 71.1448Z" fill="black"/>
<path d="M149.998 70.534V71.7929C149.998 72.3276 149.894 72.8011 149.686 73.2096C149.478 73.6181 149.183 73.9338 148.8 74.1566C148.418 74.3794 147.976 74.4908 147.474 74.4908C146.966 74.4908 146.518 74.3868 146.134 74.1751C145.75 73.9653 145.451 73.6682 145.239 73.2857C145.027 72.9032 144.921 72.4576 144.921 71.9526V69.8247C144.921 69.2899 145.025 68.8183 145.233 68.4117C145.441 68.005 145.737 67.6894 146.119 67.4666C146.502 67.2437 146.943 67.1323 147.445 67.1323C147.859 67.1323 148.239 67.2215 148.589 67.3979C148.938 67.5743 149.229 67.8249 149.463 68.1498C149.697 68.4748 149.857 68.8499 149.938 69.2751H148.843C148.784 69.0337 148.683 68.8257 148.54 68.653C148.397 68.4785 148.23 68.3467 148.039 68.2557C147.848 68.1647 147.649 68.1183 147.443 68.1183C147.146 68.1183 146.884 68.1889 146.659 68.3318C146.435 68.4748 146.26 68.6735 146.139 68.9297C146.017 69.1859 145.956 69.4849 145.956 69.8247V71.9526C145.956 72.2627 146.019 72.5356 146.143 72.7677C146.269 73.0016 146.446 73.1818 146.676 73.3099C146.906 73.438 147.172 73.503 147.473 73.503C147.77 73.503 148.032 73.4361 148.256 73.3024C148.481 73.1688 148.655 72.9738 148.776 72.7194C148.897 72.465 148.96 72.1624 148.96 71.8115V71.4995H147.497V70.5321H149.998V70.534Z" fill="black"/>
<path d="M152.698 74.1769C152.319 73.9671 152.031 73.6607 151.832 73.2597C151.634 72.8586 151.535 72.374 151.535 71.8095V67.2065H152.547V71.8429C152.547 72.3684 152.679 72.7751 152.944 73.0629C153.208 73.3507 153.583 73.4936 154.066 73.4936C154.552 73.4936 154.928 73.3507 155.195 73.0629C155.46 72.7751 155.594 72.3684 155.594 71.8429V67.2065H156.606V71.8095C156.606 72.374 156.508 72.8586 156.309 73.2597C156.11 73.6607 155.821 73.9671 155.442 74.1769C155.063 74.3868 154.604 74.4926 154.068 74.4926C153.531 74.4907 153.076 74.3868 152.698 74.1769Z" fill="black"/>
<path d="M159.3 74.4165H158.288V67.2065H159.3V74.4165Z" fill="black"/>
<path d="M161.086 67.2065H162.098V74.4165H161.086V67.2065ZM161.772 73.4547H163.404C163.937 73.4547 164.349 73.3173 164.64 73.0406C164.934 72.7639 165.079 72.3759 165.079 71.8727V69.7503C165.079 69.2471 164.932 68.8591 164.64 68.5824C164.347 68.3058 163.935 68.1684 163.404 68.1684H161.772V67.2065H163.374C163.953 67.2065 164.447 67.3068 164.858 67.5092C165.268 67.7116 165.58 68.005 165.795 68.3912C166.011 68.7774 166.118 69.2435 166.118 69.7893V71.8318C166.118 72.3777 166.011 72.8438 165.795 73.23C165.58 73.6162 165.268 73.9114 164.856 74.112C164.444 74.3125 163.95 74.4146 163.37 74.4146H161.773V73.4547H161.772Z" fill="black"/>
<path d="M167.752 67.2065H168.764V74.4165H167.752V67.2065ZM168.243 67.2065H172.383V68.1684H168.243V67.2065ZM168.243 70.3557H171.837V71.3175H168.243V70.3557ZM168.243 73.4547H172.383V74.4165H168.243V73.4547Z" fill="black"/>
<path d="M175.557 67.2065H180.644V68.1684H175.557V67.2065ZM177.595 67.797H178.607V74.4183H177.595V67.797Z" fill="black"/>
<path d="M182.496 74.1621C182.111 73.943 181.816 73.6311 181.606 73.23C181.396 72.829 181.291 72.3629 181.291 71.8337V69.7913C181.291 69.2621 181.395 68.7979 181.606 68.395C181.816 67.9939 182.113 67.6819 182.496 67.4628C182.88 67.2437 183.322 67.1323 183.825 67.1323C184.328 67.1323 184.77 67.2419 185.155 67.4628C185.539 67.6819 185.834 67.9939 186.044 68.395C186.254 68.796 186.36 69.2621 186.36 69.7913V71.8337C186.36 72.3629 186.254 72.829 186.044 73.23C185.834 73.6311 185.537 73.943 185.155 74.1621C184.77 74.3812 184.328 74.4927 183.825 74.4927C183.322 74.4908 182.878 74.3812 182.496 74.1621ZM184.61 73.2932C184.837 73.1595 185.012 72.9701 185.136 72.7231C185.26 72.4762 185.322 72.1921 185.322 71.8671V69.7541C185.322 69.4292 185.26 69.1451 185.136 68.8981C185.012 68.6512 184.837 68.4618 184.61 68.3281C184.384 68.1944 184.122 68.1276 183.825 68.1276C183.528 68.1276 183.266 68.1944 183.04 68.3281C182.813 68.4618 182.639 68.653 182.514 68.8981C182.39 69.1451 182.328 69.4292 182.328 69.7541V71.8671C182.328 72.1921 182.39 72.4762 182.514 72.7231C182.639 72.9701 182.813 73.1595 183.04 73.2932C183.266 73.4269 183.528 73.4937 183.825 73.4937C184.122 73.4937 184.384 73.4287 184.61 73.2932Z" fill="black"/>
<path d="M189.731 67.2065H194.819V68.1684H189.731V67.2065ZM191.768 67.797H192.78V74.4183H191.768V67.797Z" fill="black"/>
<path d="M195.612 67.2065H196.624V74.4165H195.612V67.2065ZM196.241 70.3854H200.243V71.3472H196.241V70.3854ZM199.708 67.2065H200.72V74.4165H199.708V67.2065Z" fill="black"/>
<path d="M202.506 67.2065H203.518V74.4165H202.506V67.2065ZM202.996 67.2065H207.137V68.1684H202.996V67.2065ZM202.996 70.3557H206.591V71.3175H202.996V70.3557ZM202.996 73.4547H207.137V74.4165H202.996V73.4547Z" fill="black"/>
<path d="M214.364 67.2065H215.058L216.536 72.8605L217.81 67.2065H218.861L217.1 74.4165H216.068L214.739 69.3771L213.35 74.4165H212.317L210.557 67.2065H211.608L212.882 72.8605L214.364 67.2065Z" fill="black"/>
<path d="M220.958 74.1621C220.574 73.943 220.279 73.6311 220.069 73.23C219.859 72.829 219.753 72.3629 219.753 71.8337V69.7913C219.753 69.2621 219.859 68.7979 220.069 68.395C220.279 67.9939 220.576 67.6819 220.958 67.4628C221.343 67.2437 221.785 67.1323 222.288 67.1323C222.791 67.1323 223.233 67.2419 223.617 67.4628C224.002 67.6819 224.297 67.9939 224.507 68.395C224.717 68.796 224.822 69.2621 224.822 69.7913V71.8337C224.822 72.3629 224.717 72.829 224.507 73.23C224.297 73.6311 224 73.943 223.617 74.1621C223.233 74.3812 222.791 74.4927 222.288 74.4927C221.785 74.4908 221.341 74.3812 220.958 74.1621ZM223.073 73.2932C223.3 73.1595 223.474 72.9701 223.599 72.7231C223.723 72.4762 223.785 72.1921 223.785 71.8671V69.7541C223.785 69.4292 223.723 69.1451 223.599 68.8981C223.474 68.6512 223.3 68.4618 223.073 68.3281C222.847 68.1944 222.585 68.1276 222.288 68.1276C221.991 68.1276 221.729 68.1944 221.503 68.3281C221.276 68.4618 221.101 68.653 220.977 68.8981C220.853 69.1432 220.791 69.4292 220.791 69.7541V71.8671C220.791 72.1921 220.853 72.4762 220.977 72.7231C221.101 72.9701 221.276 73.1595 221.503 73.2932C221.729 73.4269 221.991 73.4937 222.288 73.4937C222.585 73.4937 222.847 73.4287 223.073 73.2932Z" fill="black"/>
<path d="M226.458 67.2009H227.47V74.4164H226.458V67.2009ZM226.899 70.4058H229.359C229.55 70.4058 229.721 70.3593 229.869 70.2665C230.018 70.1737 230.133 70.0418 230.215 69.8729C230.296 69.702 230.335 69.5071 230.335 69.2861C230.335 69.0651 230.295 68.8683 230.215 68.6975C230.133 68.5267 230.02 68.3949 229.873 68.3039C229.726 68.211 229.556 68.1646 229.361 68.1646H226.9V67.2028H229.32C229.736 67.2028 230.103 67.2882 230.419 67.4609C230.735 67.6336 230.98 67.8768 231.152 68.1925C231.325 68.5081 231.412 68.872 231.412 69.2861C231.412 69.7002 231.325 70.0641 231.149 70.3798C230.972 70.6954 230.727 70.9387 230.412 71.1113C230.096 71.284 229.732 71.3694 229.318 71.3694H226.899V70.4058ZM228.863 71.1448L229.869 70.9164L231.715 74.4183H230.516L228.863 71.1448Z" fill="black"/>
<path d="M233.078 67.2065H234.09V74.4165H233.078V67.2065ZM233.585 73.4547H237.711V74.4165H233.585V73.4547Z" fill="black"/>
<path d="M238.901 67.2065H239.913V74.4165H238.901V67.2065ZM239.584 73.4547H241.216C241.749 73.4547 242.161 73.3173 242.453 73.0406C242.746 72.7639 242.891 72.3759 242.891 71.8727V69.7503C242.891 69.2471 242.744 68.8591 242.453 68.5824C242.16 68.3058 241.747 68.1684 241.216 68.1684H239.584V67.2065H241.187C241.766 67.2065 242.26 67.3068 242.67 67.5092C243.081 67.7116 243.392 68.005 243.608 68.3912C243.823 68.7774 243.931 69.2435 243.931 69.7893V71.8318C243.931 72.3777 243.823 72.8438 243.608 73.23C243.392 73.6162 243.081 73.9114 242.668 74.112C242.256 74.3125 241.762 74.4146 241.183 74.4146H239.586V73.4547H239.584Z" fill="black"/>
<defs>
<linearGradient id="paint0_linear_208_4498" x1="15.1081" y1="17.1337" x2="49.8391" y2="17.1337" gradientUnits="userSpaceOnUse">
<stop stop-color="#004693"/>
<stop offset="1"/>
</linearGradient>
<linearGradient id="paint1_linear_208_4498" x1="18.213" y1="76.5405" x2="17.2301" y2="41.8234" gradientUnits="userSpaceOnUse">
<stop stop-color="#004693"/>
<stop offset="1"/>
</linearGradient>
<linearGradient id="paint2_linear_208_4498" x1="78.3784" y1="69.6759" x2="43.7829" y2="72.7391" gradientUnits="userSpaceOnUse">
<stop stop-color="#004693"/>
<stop offset="1"/>
</linearGradient>
</defs>
</svg>
