<svg width="256" height="90" viewBox="0 0 256 90" fill="none" xmlns="http://www.w3.org/2000/svg">
<path d="M43.692 15.6821C44.1102 15.4085 44.9922 14.915 46.2063 14.8436C48.0061 14.7386 49.2875 15.6345 49.6502 15.909C48.2558 14.248 42.575 7.87447 33.0767 6.74268C27.5485 6.08461 23.1066 7.48598 20.7855 8.41857C18.8302 10.0013 16.8748 11.585 14.9194 13.1677L28.8875 27.1358C29.0768 27.2775 29.6823 27.6947 30.5634 27.6947C30.7992 27.6947 31.5346 27.665 32.2392 27.1358C36.0558 23.3182 39.8744 19.4996 43.692 15.6821Z" fill="white"/>
<path d="M76.6553 13.7267C72.2788 18.01 67.9023 22.2934 63.5257 26.5768C63.3781 26.7165 62.5486 27.4727 61.2909 27.4152C60.2096 27.3657 59.5139 26.7462 59.3355 26.5768C58.3494 25.1913 54.6389 20.1041 49.1127 15.4511C43.2882 10.5463 35.4469 6.12322 26.6513 7.02211C24.8485 7.20645 22.8793 7.62765 20.7852 8.41852C23.6037 6.30458 33.4965 -0.571412 47.6033 0.0380922C64.4038 0.764541 74.6821 11.5681 76.6553 13.7267Z" fill="white"/>
<path d="M15.7537 47.8165C15.4682 47.4062 14.9499 46.538 14.8449 45.3269C14.6883 43.5311 15.5485 42.2249 15.8121 41.8542C14.1918 43.2953 7.98076 49.1544 7.11854 58.6805C6.61706 64.2255 8.1433 68.6248 9.14229 70.9191C10.7805 72.8289 12.4178 74.7387 14.056 76.6485L27.6226 62.291C27.7594 62.0977 28.1588 61.4803 28.134 60.5992C28.1271 60.3633 28.0765 59.629 27.5285 58.9392C23.6019 55.2336 19.6773 51.525 15.7537 47.8165Z" fill="white"/>
<path d="M12.8646 14.9219C17.2698 19.1755 21.6761 23.4282 26.0814 27.6818C26.2251 27.8255 27.0041 28.6332 26.9823 29.8919C26.9634 30.9741 26.3638 31.6867 26.2003 31.87C24.8435 32.8948 19.8634 36.7481 15.368 42.4041C10.6307 48.3653 6.43058 56.3285 7.57923 65.0954C7.81411 66.8922 8.29081 68.8496 9.14114 70.9199C6.94792 68.1628 -0.205573 58.4692 0.00453264 44.3505C0.254281 27.5351 10.7625 16.9555 12.8646 14.9219Z" fill="white"/>
<path d="M49.6594 73.6561C49.2669 73.9653 48.4315 74.5352 47.2293 74.7126C45.4464 74.9762 44.0906 74.1962 43.7051 73.9554C45.2402 75.4866 51.4621 81.3349 61.0219 81.6243C66.5867 81.7927 70.887 80.0049 73.1178 78.8711C74.9265 77.1219 76.7342 75.3726 78.5429 73.6234L63.3985 60.9418C63.1983 60.8169 62.5571 60.4551 61.68 60.5334C61.4451 60.5543 60.7157 60.6484 60.0596 61.2381C56.5919 65.3768 53.1251 69.5164 49.6594 73.6561Z" fill="white"/>
<path d="M16.9971 78.5115C20.9792 73.8585 24.9603 69.2064 28.9424 64.5534C29.0771 64.4018 29.8373 63.5752 31.0949 63.5217C32.1772 63.4761 32.9235 64.0311 33.1167 64.1837C34.2208 65.4771 38.3654 70.2163 44.281 74.3649C50.5148 78.7365 58.7159 82.451 67.3986 80.7801C69.1785 80.4372 71.1032 79.8445 73.119 78.8713C70.4976 81.225 61.25 88.9474 47.1452 89.5837C30.3437 90.3428 19.1526 80.4877 16.9971 78.5115Z" fill="white"/>
<path d="M83.261 29.4418V59.0567C83.261 64.3054 77.273 67.3063 73.0679 64.1637L53.2219 49.3304C49.8067 46.7775 49.8106 41.6576 53.2308 39.1106L73.0768 24.3289C77.2819 21.1951 83.261 24.1971 83.261 29.4418Z" fill="white"/>
<path d="M48.7015 21.2827L51.8353 32.2012C52.3903 34.1367 50.5003 35.8761 48.6173 35.1625L39.7304 31.7939C38.2012 31.2141 37.6611 29.3261 38.6521 28.0249L44.4053 20.4749C45.6243 18.8754 48.1465 19.3491 48.7015 21.2827Z" fill="white"/>
<path d="M49.6772 69.0577L51.7307 57.8854C52.0944 55.9053 50.0439 54.3582 48.2392 55.2522L39.724 59.4721C38.2582 60.1986 37.9054 62.1302 39.0183 63.3284L45.4801 70.2807C46.8497 71.7544 49.3135 71.0369 49.6772 69.0577Z" fill="white"/>
<path d="M124.995 26.7179V30.8652H120.125V26.4557C120.125 22.3085 118.478 19.8077 114.726 19.8077C111.04 19.8077 109.328 22.3085 109.328 26.4557V50.8108C109.328 54.958 111.04 57.4587 114.726 57.4587C118.478 57.4587 120.125 54.958 120.125 50.8108V44.8204H124.995V50.5467C124.995 57.5243 121.704 62.1323 114.595 62.1323C107.552 62.1323 104.261 57.5243 104.261 50.5467V26.7179C104.261 19.7403 107.552 15.1323 114.595 15.1323C121.704 15.1323 124.995 19.7403 124.995 26.7179Z" fill="white"/>
<path d="M134.866 52.3902L133.089 61.6718H128.35L137.17 15.5952H144.609L153.43 61.6718H148.295L146.518 52.3902H134.866ZM135.524 47.9789H145.793L140.593 21.3853L135.524 47.9789Z" fill="white"/>
<path d="M177.783 26.7179V30.8652H172.913V26.4557C172.913 22.3085 171.268 19.8077 167.516 19.8077C163.83 19.8077 162.119 22.3085 162.119 26.4557V50.8108C162.119 54.958 163.832 57.4587 167.516 57.4587C171.268 57.4587 172.913 54.958 172.913 50.8108V44.8204H177.783V50.5467C177.783 57.5243 174.492 62.1323 167.383 62.1323C160.34 62.1323 157.049 57.5243 157.049 50.5467V26.7179C157.049 19.7403 160.34 15.1323 167.383 15.1323C174.492 15.1323 177.783 19.7403 177.783 26.7179Z" fill="white"/>
<path d="M187.591 40.9356V61.6698H182.457V15.5933H187.591V36.3275H198.912V15.5933H204.047V61.6698H198.912V40.9356H187.591Z" fill="white"/>
<path d="M208.918 26.7179C208.918 19.6748 212.406 15.1323 219.449 15.1323C226.558 15.1323 230.047 19.6748 230.047 26.7179V50.5467C230.047 57.5243 226.56 62.1323 219.449 62.1323C212.406 62.1323 208.918 57.5243 208.918 50.5467V26.7179ZM213.985 50.809C213.985 55.0218 215.763 57.4569 219.449 57.4569C223.201 57.4569 224.913 55.0218 224.913 50.809V26.4539C224.913 22.3066 223.201 19.8059 219.449 19.8059C215.763 19.8059 213.985 22.3066 213.985 26.4539V50.809Z" fill="white"/>
<path d="M234.522 26.7179C234.522 19.6748 238.01 15.1323 245.054 15.1323C252.162 15.1323 255.652 19.6748 255.652 26.7179V50.5467C255.652 57.5243 252.164 62.1323 245.054 62.1323C238.01 62.1323 234.522 57.5243 234.522 50.5467V26.7179ZM239.591 50.809C239.591 55.0218 241.369 57.4569 245.055 57.4569C248.807 57.4569 250.519 55.0218 250.519 50.809V26.4539C250.519 22.3066 248.807 19.8059 245.055 19.8059C241.369 19.8059 239.591 22.3066 239.591 26.4539V50.809Z" fill="white"/>
<path d="M119.379 71.4865V74.4165H118.367V71.4865L116.171 67.2065H117.296L118.873 70.4596L120.449 67.2065H121.574L119.379 71.4865Z" fill="white"/>
<path d="M123.375 74.1621C122.991 73.943 122.695 73.6311 122.486 73.23C122.276 72.829 122.17 72.3629 122.17 71.8337V69.7913C122.17 69.2621 122.274 68.7979 122.486 68.395C122.695 67.9939 122.992 67.6819 123.375 67.4628C123.759 67.2437 124.201 67.1323 124.704 67.1323C125.208 67.1323 125.65 67.2419 126.034 67.4628C126.418 67.6819 126.713 67.9939 126.923 68.395C127.133 68.796 127.239 69.2621 127.239 69.7913V71.8337C127.239 72.3629 127.133 72.829 126.923 73.23C126.713 73.6311 126.416 73.943 126.034 74.1621C125.65 74.3812 125.208 74.4927 124.704 74.4927C124.203 74.4908 123.759 74.3812 123.375 74.1621ZM125.492 73.2932C125.718 73.1595 125.893 72.9701 126.017 72.7231C126.142 72.4762 126.203 72.1921 126.203 71.8671V69.7541C126.203 69.4292 126.142 69.1451 126.017 68.8981C125.893 68.6512 125.718 68.4618 125.492 68.3281C125.265 68.1944 125.003 68.1276 124.706 68.1276C124.409 68.1276 124.147 68.1944 123.921 68.3281C123.694 68.4618 123.52 68.653 123.395 68.8981C123.271 69.1451 123.21 69.4292 123.21 69.7541V71.8671C123.21 72.1921 123.271 72.4762 123.395 72.7231C123.52 72.9701 123.694 73.1595 123.921 73.2932C124.147 73.4269 124.409 73.4937 124.706 73.4937C125.003 73.4937 125.265 73.4287 125.492 73.2932Z" fill="white"/>
<path d="M129.939 74.1769C129.56 73.9671 129.272 73.6607 129.073 73.2597C128.875 72.8586 128.776 72.374 128.776 71.8095V67.2065H129.788V71.8429C129.788 72.3684 129.92 72.7751 130.186 73.0629C130.449 73.3507 130.824 73.4936 131.307 73.4936C131.794 73.4936 132.169 73.3507 132.436 73.0629C132.702 72.7751 132.835 72.3684 132.835 71.8429V67.2065H133.847V71.8095C133.847 72.374 133.749 72.8586 133.55 73.2597C133.351 73.6607 133.062 73.9671 132.683 74.1769C132.304 74.3868 131.846 74.4926 131.309 74.4926C130.772 74.4907 130.317 74.3868 129.939 74.1769Z" fill="white"/>
<path d="M135.531 67.2009H136.543V74.4164H135.531V67.2009ZM135.971 70.4058H138.432C138.623 70.4058 138.794 70.3593 138.942 70.2665C139.091 70.1737 139.206 70.0418 139.288 69.8729C139.369 69.702 139.408 69.5071 139.408 69.2861C139.408 69.0651 139.367 68.8683 139.288 68.6975C139.206 68.5267 139.093 68.3949 138.946 68.3039C138.799 68.211 138.628 68.1646 138.433 68.1646H135.973V67.2028H138.393C138.808 67.2028 139.176 67.2882 139.492 67.4609C139.807 67.6336 140.053 67.8768 140.225 68.1925C140.398 68.5081 140.485 68.872 140.485 69.2861C140.485 69.7002 140.398 70.0641 140.222 70.3798C140.045 70.6954 139.8 70.9387 139.484 71.1113C139.169 71.284 138.805 71.3694 138.391 71.3694H135.971V70.4058ZM137.936 71.1448L138.942 70.9164L140.788 74.4183H139.588L137.936 71.1448Z" fill="white"/>
<path d="M149.808 70.534V71.7929C149.808 72.3276 149.704 72.8011 149.496 73.2096C149.288 73.6181 148.993 73.9338 148.611 74.1566C148.228 74.3794 147.786 74.4908 147.285 74.4908C146.776 74.4908 146.329 74.3868 145.944 74.1751C145.56 73.9653 145.261 73.6682 145.049 73.2857C144.838 72.9032 144.732 72.4576 144.732 71.9526V69.8247C144.732 69.2899 144.836 68.8183 145.044 68.4117C145.252 68.005 145.547 67.6894 145.93 67.4666C146.312 67.2437 146.754 67.1323 147.255 67.1323C147.669 67.1323 148.05 67.2215 148.399 67.3979C148.748 67.5743 149.04 67.8249 149.274 68.1498C149.508 68.4748 149.667 68.8499 149.749 69.2751H148.653C148.594 69.0337 148.494 68.8257 148.351 68.653C148.208 68.4785 148.041 68.3467 147.849 68.2557C147.658 68.1647 147.46 68.1183 147.253 68.1183C146.956 68.1183 146.695 68.1889 146.47 68.3318C146.245 68.4748 146.071 68.6735 145.95 68.9297C145.827 69.1859 145.766 69.4849 145.766 69.8247V71.9526C145.766 72.2627 145.829 72.5356 145.954 72.7677C146.08 73.0016 146.256 73.1818 146.487 73.3099C146.717 73.438 146.982 73.503 147.283 73.503C147.58 73.503 147.842 73.4361 148.067 73.3024C148.291 73.1688 148.466 72.9738 148.587 72.7194C148.707 72.465 148.77 72.1624 148.77 71.8115V71.4995H147.307V70.5321H149.808V70.534Z" fill="white"/>
<path d="M152.508 74.1769C152.129 73.9671 151.841 73.6607 151.643 73.2597C151.444 72.8586 151.346 72.374 151.346 71.8095V67.2065H152.358V71.8429C152.358 72.3684 152.489 72.7751 152.755 73.0629C153.019 73.3507 153.394 73.4936 153.877 73.4936C154.363 73.4936 154.738 73.3507 155.005 73.0629C155.271 72.7751 155.405 72.3684 155.405 71.8429V67.2065H156.417V71.8095C156.417 72.374 156.318 72.8586 156.12 73.2597C155.921 73.6607 155.631 73.9671 155.252 74.1769C154.874 74.3868 154.415 74.4926 153.878 74.4926C153.342 74.4907 152.887 74.3868 152.508 74.1769Z" fill="white"/>
<path d="M159.111 74.4165H158.099V67.2065H159.111V74.4165Z" fill="white"/>
<path d="M160.897 67.2065H161.909V74.4165H160.897V67.2065ZM161.582 73.4547H163.214C163.747 73.4547 164.159 73.3173 164.451 73.0406C164.744 72.7639 164.889 72.3759 164.889 71.8727V69.7503C164.889 69.2471 164.742 68.8591 164.451 68.5824C164.157 68.3058 163.745 68.1684 163.214 68.1684H161.582V67.2065H163.185C163.764 67.2065 164.258 67.3068 164.668 67.5092C165.078 67.7116 165.39 68.005 165.606 68.3912C165.821 68.7774 165.929 69.2435 165.929 69.7893V71.8318C165.929 72.3777 165.821 72.8438 165.606 73.23C165.39 73.6162 165.078 73.9114 164.666 74.112C164.254 74.3125 163.76 74.4146 163.181 74.4146H161.584V73.4547H161.582Z" fill="white"/>
<path d="M167.563 67.2065H168.575V74.4165H167.563V67.2065ZM168.053 67.2065H172.194V68.1684H168.053V67.2065ZM168.053 70.3557H171.648V71.3175H168.053V70.3557ZM168.053 73.4547H172.194V74.4165H168.053V73.4547Z" fill="white"/>
<path d="M175.367 67.2065H180.455V68.1684H175.367V67.2065ZM177.406 67.797H178.418V74.4183H177.406V67.797Z" fill="white"/>
<path d="M182.306 74.1621C181.922 73.943 181.627 73.6311 181.417 73.23C181.207 72.829 181.101 72.3629 181.101 71.8337V69.7913C181.101 69.2621 181.205 68.7979 181.417 68.395C181.627 67.9939 181.924 67.6819 182.306 67.4628C182.69 67.2437 183.132 67.1323 183.636 67.1323C184.139 67.1323 184.581 67.2419 184.965 67.4628C185.349 67.6819 185.645 67.9939 185.854 68.395C186.064 68.796 186.17 69.2621 186.17 69.7913V71.8337C186.17 72.3629 186.064 72.829 185.854 73.23C185.645 73.6311 185.348 73.943 184.965 74.1621C184.581 74.3812 184.139 74.4927 183.636 74.4927C183.132 74.4908 182.689 74.3812 182.306 74.1621ZM184.421 73.2932C184.648 73.1595 184.822 72.9701 184.946 72.7231C185.071 72.4762 185.132 72.1921 185.132 71.8671V69.7541C185.132 69.4292 185.071 69.1451 184.946 68.8981C184.822 68.6512 184.648 68.4618 184.421 68.3281C184.194 68.1944 183.933 68.1276 183.636 68.1276C183.339 68.1276 183.077 68.1944 182.85 68.3281C182.624 68.4618 182.449 68.653 182.325 68.8981C182.2 69.1451 182.139 69.4292 182.139 69.7541V71.8671C182.139 72.1921 182.2 72.4762 182.325 72.7231C182.449 72.9701 182.624 73.1595 182.85 73.2932C183.077 73.4269 183.339 73.4937 183.636 73.4937C183.933 73.4937 184.194 73.4287 184.421 73.2932Z" fill="white"/>
<path d="M189.542 67.2065H194.63V68.1684H189.542V67.2065ZM191.579 67.797H192.591V74.4183H191.579V67.797Z" fill="white"/>
<path d="M195.422 67.2065H196.434V74.4165H195.422V67.2065ZM196.052 70.3854H200.053V71.3472H196.052V70.3854ZM199.518 67.2065H200.53V74.4165H199.518V67.2065Z" fill="white"/>
<path d="M202.316 67.2065H203.328V74.4165H202.316V67.2065ZM202.807 67.2065H206.947V68.1684H202.807V67.2065ZM202.807 70.3557H206.401V71.3175H202.807V70.3557ZM202.807 73.4547H206.947V74.4165H202.807V73.4547Z" fill="white"/>
<path d="M214.174 67.2065H214.869L216.347 72.8605L217.62 67.2065H218.671L216.911 74.4165H215.879L214.549 69.3771L213.16 74.4165H212.128L210.368 67.2065H211.419L212.692 72.8605L214.174 67.2065Z" fill="white"/>
<path d="M220.769 74.1621C220.385 73.943 220.089 73.6311 219.88 73.23C219.67 72.829 219.564 72.3629 219.564 71.8337V69.7913C219.564 69.2621 219.67 68.7979 219.88 68.395C220.089 67.9939 220.387 67.6819 220.769 67.4628C221.153 67.2437 221.595 67.1323 222.098 67.1323C222.602 67.1323 223.044 67.2419 223.428 67.4628C223.812 67.6819 224.108 67.9939 224.317 68.395C224.527 68.796 224.633 69.2621 224.633 69.7913V71.8337C224.633 72.3629 224.527 72.829 224.317 73.23C224.108 73.6311 223.81 73.943 223.428 74.1621C223.044 74.3812 222.602 74.4927 222.098 74.4927C221.595 74.4908 221.152 74.3812 220.769 74.1621ZM222.884 73.2932C223.11 73.1595 223.285 72.9701 223.409 72.7231C223.534 72.4762 223.595 72.1921 223.595 71.8671V69.7541C223.595 69.4292 223.534 69.1451 223.409 68.8981C223.285 68.6512 223.11 68.4618 222.884 68.3281C222.657 68.1944 222.396 68.1276 222.098 68.1276C221.801 68.1276 221.54 68.1944 221.313 68.3281C221.087 68.4618 220.912 68.653 220.788 68.8981C220.663 69.1432 220.602 69.4292 220.602 69.7541V71.8671C220.602 72.1921 220.663 72.4762 220.788 72.7231C220.912 72.9701 221.087 73.1595 221.313 73.2932C221.54 73.4269 221.801 73.4937 222.098 73.4937C222.396 73.4937 222.657 73.4287 222.884 73.2932Z" fill="white"/>
<path d="M226.269 67.2009H227.281V74.4164H226.269V67.2009ZM226.709 70.4058H229.169C229.361 70.4058 229.531 70.3593 229.68 70.2665C229.829 70.1737 229.944 70.0418 230.025 69.8729C230.107 69.702 230.146 69.5071 230.146 69.2861C230.146 69.0651 230.105 68.8683 230.025 68.6975C229.944 68.5267 229.83 68.3949 229.684 68.3039C229.537 68.211 229.366 68.1646 229.171 68.1646H226.711V67.2028H229.13C229.546 67.2028 229.914 67.2882 230.23 67.4609C230.545 67.6336 230.79 67.8768 230.963 68.1925C231.136 68.5081 231.223 68.872 231.223 69.2861C231.223 69.7002 231.136 70.0641 230.959 70.3798C230.783 70.6954 230.538 70.9387 230.222 71.1113C229.906 71.284 229.543 71.3694 229.129 71.3694H226.709V70.4058ZM228.674 71.1448L229.68 70.9164L231.526 74.4183H230.326L228.674 71.1448Z" fill="white"/>
<path d="M232.889 67.2065H233.901V74.4165H232.889V67.2065ZM233.396 73.4547H237.521V74.4165H233.396V73.4547Z" fill="white"/>
<path d="M238.711 67.2065H239.723V74.4165H238.711V67.2065ZM239.395 73.4547H241.027C241.56 73.4547 241.972 73.3173 242.263 73.0406C242.557 72.7639 242.702 72.3759 242.702 71.8727V69.7503C242.702 69.2471 242.555 68.8591 242.263 68.5824C241.97 68.3058 241.558 68.1684 241.027 68.1684H239.395V67.2065H240.997C241.576 67.2065 242.07 67.3068 242.481 67.5092C242.891 67.7116 243.203 68.005 243.418 68.3912C243.634 68.7774 243.741 69.2435 243.741 69.7893V71.8318C243.741 72.3777 243.634 72.8438 243.418 73.23C243.203 73.6162 242.891 73.9114 242.479 74.112C242.067 74.3125 241.573 74.4146 240.993 74.4146H239.397V73.4547H239.395Z" fill="white"/>
</svg>
