<svg width="26" height="25" viewBox="0 0 26 25" fill="none" xmlns="http://www.w3.org/2000/svg">
<path d="M13.4996 4.37444C13.6252 4.29814 13.8901 4.16047 14.2546 4.14057C14.795 4.11126 15.1798 4.36117 15.2887 4.43775C14.87 3.97442 13.1643 2.1966 10.3123 1.88089C8.65239 1.69733 7.31864 2.08823 6.62172 2.34837C6.03459 2.78985 5.44747 3.23161 4.86035 3.6731L9.05442 7.56933C9.11125 7.60886 9.29307 7.72525 9.55762 7.72525C9.62844 7.72525 9.84925 7.71696 10.0608 7.56933C11.2068 6.50446 12.3534 5.43931 13.4996 4.37444Z" fill="url(#paint0_linear_293_6016)"/>
<path d="M23.3973 3.8289C22.0831 5.02371 20.769 6.21851 19.4549 7.41331C19.4106 7.45229 19.1615 7.66322 18.7839 7.64718C18.4592 7.63336 18.2503 7.46058 18.1968 7.41331C17.9007 7.02684 16.7866 5.60784 15.1273 4.30992C13.3784 2.94179 11.024 1.70801 8.38295 1.95874C7.84165 2.01016 7.25036 2.12765 6.62158 2.34826C7.46789 1.7586 10.4383 -0.159389 14.674 0.0106254C19.7186 0.213261 22.8048 3.2268 23.3973 3.8289Z" fill="#004693"/>
<path d="M5.11115 13.3379C5.02545 13.2235 4.86981 12.9813 4.83827 12.6435C4.79125 12.1426 5.04955 11.7782 5.12871 11.6748C4.64217 12.0768 2.77724 13.7111 2.51835 16.3683C2.36778 17.915 2.82605 19.1422 3.12601 19.7822C3.6179 20.3149 4.1095 20.8476 4.6014 21.3803L8.67495 17.3754C8.71601 17.3215 8.83593 17.1493 8.82849 16.9035C8.82641 16.8377 8.81124 16.6329 8.64667 16.4405C7.46767 15.4068 6.28926 14.3724 5.11115 13.3379Z" fill="url(#paint1_linear_293_6016)"/>
<path d="M4.24359 4.16235C5.56633 5.34886 6.88936 6.53509 8.2121 7.7216C8.25525 7.76169 8.48914 7.98699 8.48259 8.33808C8.47694 8.63996 8.29691 8.83872 8.24781 8.88986C7.84042 9.17571 6.34509 10.2505 4.99528 11.8282C3.57285 13.491 2.31172 15.7123 2.65661 18.1577C2.72714 18.6589 2.87027 19.2049 3.12559 19.7824C2.46705 19.0133 0.319134 16.3094 0.38222 12.3712C0.45721 7.68069 3.61243 4.72962 4.24359 4.16235Z" fill="#004693"/>
<path d="M15.2918 20.5456C15.1739 20.6318 14.9231 20.7908 14.5621 20.8403C14.0268 20.9138 13.6197 20.6962 13.5039 20.6291C13.9649 21.0562 15.833 22.6875 18.7035 22.7682C20.3744 22.8152 21.6656 22.3165 22.3354 22.0002C22.8785 21.5123 23.4213 21.0244 23.9644 20.5364L19.4171 16.999C19.357 16.9642 19.1644 16.8633 18.9011 16.8851C18.8306 16.8909 18.6115 16.9172 18.4145 17.0817C17.3733 18.2361 16.3324 19.3909 15.2918 20.5456Z" fill="url(#paint2_linear_293_6016)"/>
<path d="M5.48438 21.9C6.68004 20.6021 7.87542 19.3045 9.07108 18.0065C9.11156 17.9642 9.3398 17.7337 9.71742 17.7188C10.0424 17.706 10.2665 17.8609 10.3245 17.9034C10.656 18.2642 11.9005 19.5862 13.6767 20.7434C15.5485 21.9628 18.0109 22.9989 20.618 22.5328C21.1525 22.4371 21.7304 22.2718 22.3356 22.0004C21.5485 22.6569 18.7718 24.811 14.5367 24.9885C9.49186 25.2002 6.13161 22.4512 5.48438 21.9Z" fill="#004693"/>
<path d="M25.3812 8.21241V16.4732C25.3812 17.9372 23.5832 18.7743 22.3206 17.8977L16.3616 13.7601C15.3361 13.048 15.3373 11.6199 16.3642 10.9094L22.3233 6.78623C23.5859 5.9121 25.3812 6.74946 25.3812 8.21241Z" fill="#004693"/>
<path d="M15.0039 5.93664L15.9448 8.98225C16.1115 9.52215 15.544 10.0073 14.9786 9.80827L12.3102 8.86863C11.851 8.70691 11.6889 8.18028 11.9864 7.81731L13.7139 5.71133C14.0799 5.26515 14.8372 5.39729 15.0039 5.93664Z" fill="#004693"/>
<path d="M15.2969 19.2629L15.9135 16.1465C16.0227 15.5942 15.407 15.1626 14.8651 15.412L12.3083 16.5891C11.8682 16.7917 11.7623 17.3305 12.0964 17.6647L14.0367 19.604C14.4479 20.0151 15.1877 19.815 15.2969 19.2629Z" fill="#004693"/>
<defs>
<linearGradient id="paint0_linear_293_6016" x1="4.86011" y1="4.77935" x2="15.2885" y2="4.77935" gradientUnits="userSpaceOnUse">
<stop stop-color="#004693"/>
<stop offset="1"/>
</linearGradient>
<linearGradient id="paint1_linear_293_6016" x1="5.79271" y1="21.3502" x2="5.53798" y2="11.6651" gradientUnits="userSpaceOnUse">
<stop stop-color="#004693"/>
<stop offset="1"/>
</linearGradient>
<linearGradient id="paint2_linear_293_6016" x1="23.8581" y1="19.4353" x2="13.4832" y2="20.4242" gradientUnits="userSpaceOnUse">
<stop stop-color="#004693"/>
<stop offset="1"/>
</linearGradient>
</defs>
</svg>
